<?xml version="1.0" encoding="utf-8" standalone="no"?>
<!DOCTYPE svg PUBLIC "-//W3C//DTD SVG 1.1//EN"
  "http://www.w3.org/Graphics/SVG/1.1/DTD/svg11.dtd">
<svg xmlns:xlink="http://www.w3.org/1999/xlink" width="718.611406pt" height="228.557734pt" viewBox="0 0 718.611406 228.557734" xmlns="http://www.w3.org/2000/svg" version="1.1">
 <metadata>
  <rdf:RDF xmlns:dc="http://purl.org/dc/elements/1.1/" xmlns:cc="http://creativecommons.org/ns#" xmlns:rdf="http://www.w3.org/1999/02/22-rdf-syntax-ns#">
   <cc:Work>
    <dc:type rdf:resource="http://purl.org/dc/dcmitype/StillImage"/>
    <dc:date>2026-07-08T03:23:53.846836</dc:date>
    <dc:format>image/svg+xml</dc:format>
    <dc:creator>
     <cc:Agent>
      <dc:title>Matplotlib v3.11.0, https://matplotlib.org/</dc:title>
     </cc:Agent>
    </dc:creator>
   </cc:Work>
  </rdf:RDF>
 </metadata>
 <defs>
  <style type="text/css">*{stroke-linejoin: round; stroke-linecap: butt}</style>
 </defs>
 <g id="figure_1">
  <g id="patch_1">
   <path d="M 0 228.557734 
L 718.611406 228.557734 
L 718.611406 0 
L 0 0 
L 0 228.557734 
z
" style="fill: none"/>
  </g>
  <g id="axes_1">
   <g id="patch_2">
    <path d="M 40.811406 195.356563 
L 711.411406 195.356563 
L 711.411406 24.798438 
L 40.811406 24.798438 
L 40.811406 195.356563 
z
" style="fill: none"/>
   </g>
   <g id="matplotlib.axis_1">
    <g id="xtick_1">
     <g id="line2d_1">
      <path d="M 91.246188 195.356563 
L 91.246188 24.798438 
" clip-path="url(#paa7fbb5fc1)" style="fill: none; stroke-dasharray: 0.7,1.155; stroke-dashoffset: 0; stroke: #283d58; stroke-width: 0.7"/>
     </g>
     <g id="line2d_2">
      <defs>
       <path id="mab78abdd55" d="M 0 0 
L 0 3.5 
" style="stroke: #58a6ff; stroke-width: 0.8"/>
      </defs>
      <g>
       <use xlink:href="#mab78abdd55" x="91.246188" y="195.356563" style="fill: #58a6ff; stroke: #58a6ff; stroke-width: 0.8"/>
      </g>
     </g>
     <g id="text_1">
      <!-- Dec '25 -->
      <g style="fill: #58a6ff" transform="translate(76.731579 207.674922) scale(0.07 -0.07)">
       <defs>
        <path id="DejaVuSans-Bold-27" d="M 1791 3756 
L 1791 909 
L 2222 909 
Q 2959 909 3348 1275 
Q 3738 1641 3738 2338 
Q 3738 3031 3350 3393 
Q 2963 3756 2222 3756 
L 1791 3756 
z
M 588 4666 
L 1856 4666 
Q 2919 4666 3439 4514 
Q 3959 4363 4331 4000 
Q 4659 3684 4818 3271 
Q 4978 2859 4978 2338 
Q 4978 1809 4818 1395 
Q 4659 981 4331 666 
Q 3956 303 3431 151 
Q 2906 0 1856 0 
L 588 0 
L 588 4666 
z
" transform="scale(0.015625)"/>
        <path id="DejaVuSans-Bold-48" d="M 4031 1759 
L 4031 1441 
L 1416 1441 
Q 1456 1047 1700 850 
Q 1944 653 2381 653 
Q 2734 653 3104 758 
Q 3475 863 3866 1075 
L 3866 213 
Q 3469 63 3072 -14 
Q 2675 -91 2278 -91 
Q 1328 -91 801 392 
Q 275 875 275 1747 
Q 275 2603 792 3093 
Q 1309 3584 2216 3584 
Q 3041 3584 3536 3087 
Q 4031 2591 4031 1759 
z
M 2881 2131 
Q 2881 2450 2695 2645 
Q 2509 2841 2209 2841 
Q 1884 2841 1681 2658 
Q 1478 2475 1428 2131 
L 2881 2131 
z
" transform="scale(0.015625)"/>
        <path id="DejaVuSans-Bold-46" d="M 3366 3391 
L 3366 2478 
Q 3138 2634 2908 2709 
Q 2678 2784 2431 2784 
Q 1963 2784 1702 2511 
Q 1441 2238 1441 1747 
Q 1441 1256 1702 982 
Q 1963 709 2431 709 
Q 2694 709 2930 787 
Q 3166 866 3366 1019 
L 3366 103 
Q 3103 6 2833 -42 
Q 2563 -91 2291 -91 
Q 1344 -91 809 395 
Q 275 881 275 1747 
Q 275 2613 809 3098 
Q 1344 3584 2291 3584 
Q 2566 3584 2833 3536 
Q 3100 3488 3366 3391 
z
" transform="scale(0.015625)"/>
        <path id="DejaVuSans-Bold-3" transform="scale(0.015625)"/>
        <path id="DejaVuSans-Bold-a" d="M 1350 4666 
L 1350 2931 
L 609 2931 
L 609 4666 
L 1350 4666 
z
" transform="scale(0.015625)"/>
        <path id="DejaVuSans-Bold-15" d="M 1844 884 
L 3897 884 
L 3897 0 
L 506 0 
L 506 884 
L 2209 2388 
Q 2438 2594 2547 2791 
Q 2656 2988 2656 3200 
Q 2656 3528 2436 3728 
Q 2216 3928 1850 3928 
Q 1569 3928 1234 3808 
Q 900 3688 519 3450 
L 519 4475 
Q 925 4609 1322 4679 
Q 1719 4750 2100 4750 
Q 2938 4750 3402 4381 
Q 3866 4013 3866 3353 
Q 3866 2972 3669 2642 
Q 3472 2313 2841 1759 
L 1844 884 
z
" transform="scale(0.015625)"/>
        <path id="DejaVuSans-Bold-18" d="M 678 4666 
L 3669 4666 
L 3669 3781 
L 1638 3781 
L 1638 3059 
Q 1775 3097 1914 3117 
Q 2053 3138 2203 3138 
Q 3056 3138 3531 2711 
Q 4006 2284 4006 1522 
Q 4006 766 3489 337 
Q 2972 -91 2053 -91 
Q 1656 -91 1267 -14 
Q 878 63 494 219 
L 494 1166 
Q 875 947 1217 837 
Q 1559 728 1863 728 
Q 2300 728 2551 942 
Q 2803 1156 2803 1522 
Q 2803 1891 2551 2103 
Q 2300 2316 1863 2316 
Q 1603 2316 1309 2248 
Q 1016 2181 678 2041 
L 678 4666 
z
" transform="scale(0.015625)"/>
       </defs>
       <use xlink:href="#DejaVuSans-Bold-27"/>
       <use xlink:href="#DejaVuSans-Bold-48" transform="translate(83.015625 0)"/>
       <use xlink:href="#DejaVuSans-Bold-46" transform="translate(150.84375 0)"/>
       <use xlink:href="#DejaVuSans-Bold-3" transform="translate(210.125 0)"/>
       <use xlink:href="#DejaVuSans-Bold-a" transform="translate(244.9375 0)"/>
       <use xlink:href="#DejaVuSans-Bold-15" transform="translate(275.546875 0)"/>
       <use xlink:href="#DejaVuSans-Bold-18" transform="translate(345.125 0)"/>
      </g>
     </g>
    </g>
    <g id="xtick_2">
     <g id="line2d_3">
      <path d="M 177.151108 195.356563 
L 177.151108 24.798438 
" clip-path="url(#paa7fbb5fc1)" style="fill: none; stroke-dasharray: 0.7,1.155; stroke-dashoffset: 0; stroke: #283d58; stroke-width: 0.7"/>
     </g>
     <g id="line2d_4">
      <g>
       <use xlink:href="#mab78abdd55" x="177.151108" y="195.356563" style="fill: #58a6ff; stroke: #58a6ff; stroke-width: 0.8"/>
      </g>
     </g>
     <g id="text_2">
      <!-- Jan '26 -->
      <g style="fill: #58a6ff" transform="translate(163.835248 207.674922) scale(0.07 -0.07)">
       <defs>
        <path id="DejaVuSans-Bold-2d" d="M 588 4666 
L 1791 4666 
L 1791 453 
Q 1791 -419 1317 -850 
Q 844 -1281 -116 -1281 
L -359 -1281 
L -359 -372 
L -172 -372 
Q 203 -372 395 -162 
Q 588 47 588 453 
L 588 4666 
z
" transform="scale(0.015625)"/>
        <path id="DejaVuSans-Bold-44" d="M 2106 1575 
Q 1756 1575 1579 1456 
Q 1403 1338 1403 1106 
Q 1403 894 1545 773 
Q 1688 653 1941 653 
Q 2256 653 2472 879 
Q 2688 1106 2688 1447 
L 2688 1575 
L 2106 1575 
z
M 3816 1997 
L 3816 0 
L 2688 0 
L 2688 519 
Q 2463 200 2181 54 
Q 1900 -91 1497 -91 
Q 953 -91 614 226 
Q 275 544 275 1050 
Q 275 1666 698 1953 
Q 1122 2241 2028 2241 
L 2688 2241 
L 2688 2328 
Q 2688 2594 2478 2717 
Q 2269 2841 1825 2841 
Q 1466 2841 1156 2769 
Q 847 2697 581 2553 
L 581 3406 
Q 941 3494 1303 3539 
Q 1666 3584 2028 3584 
Q 2975 3584 3395 3211 
Q 3816 2838 3816 1997 
z
" transform="scale(0.015625)"/>
        <path id="DejaVuSans-Bold-51" d="M 4056 2131 
L 4056 0 
L 2931 0 
L 2931 347 
L 2931 1631 
Q 2931 2084 2911 2256 
Q 2891 2428 2841 2509 
Q 2775 2619 2662 2680 
Q 2550 2741 2406 2741 
Q 2056 2741 1856 2470 
Q 1656 2200 1656 1722 
L 1656 0 
L 538 0 
L 538 3500 
L 1656 3500 
L 1656 2988 
Q 1909 3294 2193 3439 
Q 2478 3584 2822 3584 
Q 3428 3584 3742 3212 
Q 4056 2841 4056 2131 
z
" transform="scale(0.015625)"/>
        <path id="DejaVuSans-Bold-19" d="M 2316 2303 
Q 2000 2303 1842 2098 
Q 1684 1894 1684 1484 
Q 1684 1075 1842 870 
Q 2000 666 2316 666 
Q 2634 666 2792 870 
Q 2950 1075 2950 1484 
Q 2950 1894 2792 2098 
Q 2634 2303 2316 2303 
z
M 3803 4544 
L 3803 3681 
Q 3506 3822 3243 3889 
Q 2981 3956 2731 3956 
Q 2194 3956 1894 3657 
Q 1594 3359 1544 2772 
Q 1750 2925 1990 3001 
Q 2231 3078 2516 3078 
Q 3231 3078 3670 2659 
Q 4109 2241 4109 1563 
Q 4109 813 3618 361 
Q 3128 -91 2303 -91 
Q 1394 -91 895 523 
Q 397 1138 397 2266 
Q 397 3422 980 4083 
Q 1563 4744 2578 4744 
Q 2900 4744 3203 4694 
Q 3506 4644 3803 4544 
z
" transform="scale(0.015625)"/>
       </defs>
       <use xlink:href="#DejaVuSans-Bold-2d"/>
       <use xlink:href="#DejaVuSans-Bold-44" transform="translate(37.203125 0)"/>
       <use xlink:href="#DejaVuSans-Bold-51" transform="translate(104.6875 0)"/>
       <use xlink:href="#DejaVuSans-Bold-3" transform="translate(175.875 0)"/>
       <use xlink:href="#DejaVuSans-Bold-a" transform="translate(210.6875 0)"/>
       <use xlink:href="#DejaVuSans-Bold-15" transform="translate(241.296875 0)"/>
       <use xlink:href="#DejaVuSans-Bold-19" transform="translate(310.875 0)"/>
      </g>
     </g>
    </g>
    <g id="xtick_3">
     <g id="line2d_5">
      <path d="M 263.056027 195.356563 
L 263.056027 24.798438 
" clip-path="url(#paa7fbb5fc1)" style="fill: none; stroke-dasharray: 0.7,1.155; stroke-dashoffset: 0; stroke: #283d58; stroke-width: 0.7"/>
     </g>
     <g id="line2d_6">
      <g>
       <use xlink:href="#mab78abdd55" x="263.056027" y="195.356563" style="fill: #58a6ff; stroke: #58a6ff; stroke-width: 0.8"/>
      </g>
     </g>
     <g id="text_3">
      <!-- Feb '26 -->
      <g style="fill: #58a6ff" transform="translate(248.767277 207.675469) scale(0.07 -0.07)">
       <defs>
        <path id="DejaVuSans-Bold-29" d="M 588 4666 
L 3834 4666 
L 3834 3756 
L 1791 3756 
L 1791 2888 
L 3713 2888 
L 3713 1978 
L 1791 1978 
L 1791 0 
L 588 0 
L 588 4666 
z
" transform="scale(0.015625)"/>
        <path id="DejaVuSans-Bold-45" d="M 2400 722 
Q 2759 722 2948 984 
Q 3138 1247 3138 1747 
Q 3138 2247 2948 2509 
Q 2759 2772 2400 2772 
Q 2041 2772 1848 2508 
Q 1656 2244 1656 1747 
Q 1656 1250 1848 986 
Q 2041 722 2400 722 
z
M 1656 2988 
Q 1888 3294 2169 3439 
Q 2450 3584 2816 3584 
Q 3463 3584 3878 3070 
Q 4294 2556 4294 1747 
Q 4294 938 3878 423 
Q 3463 -91 2816 -91 
Q 2450 -91 2169 54 
Q 1888 200 1656 506 
L 1656 0 
L 538 0 
L 538 4863 
L 1656 4863 
L 1656 2988 
z
" transform="scale(0.015625)"/>
       </defs>
       <use xlink:href="#DejaVuSans-Bold-29"/>
       <use xlink:href="#DejaVuSans-Bold-48" transform="translate(64.265625 0)"/>
       <use xlink:href="#DejaVuSans-Bold-45" transform="translate(132.09375 0)"/>
       <use xlink:href="#DejaVuSans-Bold-3" transform="translate(203.671875 0)"/>
       <use xlink:href="#DejaVuSans-Bold-a" transform="translate(238.484375 0)"/>
       <use xlink:href="#DejaVuSans-Bold-15" transform="translate(269.09375 0)"/>
       <use xlink:href="#DejaVuSans-Bold-19" transform="translate(338.671875 0)"/>
      </g>
     </g>
    </g>
    <g id="xtick_4">
     <g id="line2d_7">
      <path d="M 340.647567 195.356563 
L 340.647567 24.798438 
" clip-path="url(#paa7fbb5fc1)" style="fill: none; stroke-dasharray: 0.7,1.155; stroke-dashoffset: 0; stroke: #283d58; stroke-width: 0.7"/>
     </g>
     <g id="line2d_8">
      <g>
       <use xlink:href="#mab78abdd55" x="340.647567" y="195.356563" style="fill: #58a6ff; stroke: #58a6ff; stroke-width: 0.8"/>
      </g>
     </g>
     <g id="text_4">
      <!-- Mar '26 -->
      <g style="fill: #58a6ff" transform="translate(325.916395 207.674922) scale(0.07 -0.07)">
       <defs>
        <path id="DejaVuSans-Bold-30" d="M 588 4666 
L 2119 4666 
L 3181 2169 
L 4250 4666 
L 5778 4666 
L 5778 0 
L 4641 0 
L 4641 3413 
L 3566 897 
L 2803 897 
L 1728 3413 
L 1728 0 
L 588 0 
L 588 4666 
z
" transform="scale(0.015625)"/>
        <path id="DejaVuSans-Bold-55" d="M 3138 2547 
Q 2991 2616 2845 2648 
Q 2700 2681 2553 2681 
Q 2122 2681 1889 2404 
Q 1656 2128 1656 1613 
L 1656 0 
L 538 0 
L 538 3500 
L 1656 3500 
L 1656 2925 
Q 1872 3269 2151 3426 
Q 2431 3584 2822 3584 
Q 2878 3584 2943 3579 
Q 3009 3575 3134 3559 
L 3138 2547 
z
" transform="scale(0.015625)"/>
       </defs>
       <use xlink:href="#DejaVuSans-Bold-30"/>
       <use xlink:href="#DejaVuSans-Bold-44" transform="translate(99.515625 0)"/>
       <use xlink:href="#DejaVuSans-Bold-55" transform="translate(167 0)"/>
       <use xlink:href="#DejaVuSans-Bold-3" transform="translate(216.3125 0)"/>
       <use xlink:href="#DejaVuSans-Bold-a" transform="translate(251.125 0)"/>
       <use xlink:href="#DejaVuSans-Bold-15" transform="translate(281.734375 0)"/>
       <use xlink:href="#DejaVuSans-Bold-19" transform="translate(351.3125 0)"/>
      </g>
     </g>
    </g>
    <g id="xtick_5">
     <g id="line2d_9">
      <path d="M 426.552487 195.356563 
L 426.552487 24.798438 
" clip-path="url(#paa7fbb5fc1)" style="fill: none; stroke-dasharray: 0.7,1.155; stroke-dashoffset: 0; stroke: #283d58; stroke-width: 0.7"/>
     </g>
     <g id="line2d_10">
      <g>
       <use xlink:href="#mab78abdd55" x="426.552487" y="195.356563" style="fill: #58a6ff; stroke: #58a6ff; stroke-width: 0.8"/>
      </g>
     </g>
     <g id="text_5">
      <!-- Apr '26 -->
      <g style="fill: #58a6ff" transform="translate(412.452408 207.674922) scale(0.07 -0.07)">
       <defs>
        <path id="DejaVuSans-Bold-24" d="M 3419 850 
L 1538 850 
L 1241 0 
L 31 0 
L 1759 4666 
L 3194 4666 
L 4922 0 
L 3713 0 
L 3419 850 
z
M 1838 1716 
L 3116 1716 
L 2478 3572 
L 1838 1716 
z
" transform="scale(0.015625)"/>
        <path id="DejaVuSans-Bold-53" d="M 1656 506 
L 1656 -1331 
L 538 -1331 
L 538 3500 
L 1656 3500 
L 1656 2988 
Q 1888 3294 2169 3439 
Q 2450 3584 2816 3584 
Q 3463 3584 3878 3070 
Q 4294 2556 4294 1747 
Q 4294 938 3878 423 
Q 3463 -91 2816 -91 
Q 2450 -91 2169 54 
Q 1888 200 1656 506 
z
M 2400 2772 
Q 2041 2772 1848 2508 
Q 1656 2244 1656 1747 
Q 1656 1250 1848 986 
Q 2041 722 2400 722 
Q 2759 722 2948 984 
Q 3138 1247 3138 1747 
Q 3138 2247 2948 2509 
Q 2759 2772 2400 2772 
z
" transform="scale(0.015625)"/>
       </defs>
       <use xlink:href="#DejaVuSans-Bold-24"/>
       <use xlink:href="#DejaVuSans-Bold-53" transform="translate(77.390625 0)"/>
       <use xlink:href="#DejaVuSans-Bold-55" transform="translate(148.96875 0)"/>
       <use xlink:href="#DejaVuSans-Bold-3" transform="translate(198.28125 0)"/>
       <use xlink:href="#DejaVuSans-Bold-a" transform="translate(233.09375 0)"/>
       <use xlink:href="#DejaVuSans-Bold-15" transform="translate(263.703125 0)"/>
       <use xlink:href="#DejaVuSans-Bold-19" transform="translate(333.28125 0)"/>
      </g>
     </g>
    </g>
    <g id="xtick_6">
     <g id="line2d_11">
      <path d="M 509.686279 195.356563 
L 509.686279 24.798438 
" clip-path="url(#paa7fbb5fc1)" style="fill: none; stroke-dasharray: 0.7,1.155; stroke-dashoffset: 0; stroke: #283d58; stroke-width: 0.7"/>
     </g>
     <g id="line2d_12">
      <g>
       <use xlink:href="#mab78abdd55" x="509.686279" y="195.356563" style="fill: #58a6ff; stroke: #58a6ff; stroke-width: 0.8"/>
      </g>
     </g>
     <g id="text_6">
      <!-- May '26 -->
      <g style="fill: #58a6ff" transform="translate(494.507217 207.674922) scale(0.07 -0.07)">
       <defs>
        <path id="DejaVuSans-Bold-5c" d="M 78 3500 
L 1197 3500 
L 2138 1125 
L 2938 3500 
L 4056 3500 
L 2584 -331 
Q 2363 -916 2067 -1148 
Q 1772 -1381 1288 -1381 
L 641 -1381 
L 641 -647 
L 991 -647 
Q 1275 -647 1404 -556 
Q 1534 -466 1606 -231 
L 1638 -134 
L 78 3500 
z
" transform="scale(0.015625)"/>
       </defs>
       <use xlink:href="#DejaVuSans-Bold-30"/>
       <use xlink:href="#DejaVuSans-Bold-44" transform="translate(99.515625 0)"/>
       <use xlink:href="#DejaVuSans-Bold-5c" transform="translate(163.921875 0)"/>
       <use xlink:href="#DejaVuSans-Bold-3" transform="translate(229.109375 0)"/>
       <use xlink:href="#DejaVuSans-Bold-a" transform="translate(263.921875 0)"/>
       <use xlink:href="#DejaVuSans-Bold-15" transform="translate(294.53125 0)"/>
       <use xlink:href="#DejaVuSans-Bold-19" transform="translate(364.109375 0)"/>
      </g>
     </g>
    </g>
    <g id="xtick_7">
     <g id="line2d_13">
      <path d="M 595.591199 195.356563 
L 595.591199 24.798438 
" clip-path="url(#paa7fbb5fc1)" style="fill: none; stroke-dasharray: 0.7,1.155; stroke-dashoffset: 0; stroke: #283d58; stroke-width: 0.7"/>
     </g>
     <g id="line2d_14">
      <g>
       <use xlink:href="#mab78abdd55" x="595.591199" y="195.356563" style="fill: #58a6ff; stroke: #58a6ff; stroke-width: 0.8"/>
      </g>
     </g>
     <g id="text_7">
      <!-- Jun '26 -->
      <g style="fill: #58a6ff" transform="translate(582.14573 207.674922) scale(0.07 -0.07)">
       <defs>
        <path id="DejaVuSans-Bold-58" d="M 500 1363 
L 500 3500 
L 1625 3500 
L 1625 3150 
Q 1625 2866 1622 2436 
Q 1619 2006 1619 1863 
Q 1619 1441 1641 1255 
Q 1663 1069 1716 984 
Q 1784 875 1895 815 
Q 2006 756 2150 756 
Q 2500 756 2700 1025 
Q 2900 1294 2900 1772 
L 2900 3500 
L 4019 3500 
L 4019 0 
L 2900 0 
L 2900 506 
Q 2647 200 2364 54 
Q 2081 -91 1741 -91 
Q 1134 -91 817 281 
Q 500 653 500 1363 
z
" transform="scale(0.015625)"/>
       </defs>
       <use xlink:href="#DejaVuSans-Bold-2d"/>
       <use xlink:href="#DejaVuSans-Bold-58" transform="translate(37.203125 0)"/>
       <use xlink:href="#DejaVuSans-Bold-51" transform="translate(108.390625 0)"/>
       <use xlink:href="#DejaVuSans-Bold-3" transform="translate(179.578125 0)"/>
       <use xlink:href="#DejaVuSans-Bold-a" transform="translate(214.390625 0)"/>
       <use xlink:href="#DejaVuSans-Bold-15" transform="translate(245 0)"/>
       <use xlink:href="#DejaVuSans-Bold-19" transform="translate(314.578125 0)"/>
      </g>
     </g>
    </g>
    <g id="xtick_8">
     <g id="line2d_15">
      <path d="M 678.724992 195.356563 
L 678.724992 24.798438 
" clip-path="url(#paa7fbb5fc1)" style="fill: none; stroke-dasharray: 0.7,1.155; stroke-dashoffset: 0; stroke: #283d58; stroke-width: 0.7"/>
     </g>
     <g id="line2d_16">
      <g>
       <use xlink:href="#mab78abdd55" x="678.724992" y="195.356563" style="fill: #58a6ff; stroke: #58a6ff; stroke-width: 0.8"/>
      </g>
     </g>
     <g id="text_8">
      <!-- Jul '26 -->
      <g style="fill: #58a6ff" transform="translate(666.571242 207.675469) scale(0.07 -0.07)">
       <defs>
        <path id="DejaVuSans-Bold-4f" d="M 538 4863 
L 1656 4863 
L 1656 0 
L 538 0 
L 538 4863 
z
" transform="scale(0.015625)"/>
       </defs>
       <use xlink:href="#DejaVuSans-Bold-2d"/>
       <use xlink:href="#DejaVuSans-Bold-58" transform="translate(37.203125 0)"/>
       <use xlink:href="#DejaVuSans-Bold-4f" transform="translate(108.390625 0)"/>
       <use xlink:href="#DejaVuSans-Bold-3" transform="translate(142.671875 0)"/>
       <use xlink:href="#DejaVuSans-Bold-a" transform="translate(177.484375 0)"/>
       <use xlink:href="#DejaVuSans-Bold-15" transform="translate(208.09375 0)"/>
       <use xlink:href="#DejaVuSans-Bold-19" transform="translate(277.671875 0)"/>
      </g>
     </g>
    </g>
    <g id="text_9">
     <!-- Month -->
     <g style="fill: #58a6ff" transform="translate(361.775781 219.435859) scale(0.08 -0.08)">
      <defs>
       <path id="DejaVuSans-Bold-52" d="M 2203 2784 
Q 1831 2784 1636 2517 
Q 1441 2250 1441 1747 
Q 1441 1244 1636 976 
Q 1831 709 2203 709 
Q 2569 709 2762 976 
Q 2956 1244 2956 1747 
Q 2956 2250 2762 2517 
Q 2569 2784 2203 2784 
z
M 2203 3584 
Q 3106 3584 3614 3096 
Q 4122 2609 4122 1747 
Q 4122 884 3614 396 
Q 3106 -91 2203 -91 
Q 1297 -91 786 396 
Q 275 884 275 1747 
Q 275 2609 786 3096 
Q 1297 3584 2203 3584 
z
" transform="scale(0.015625)"/>
       <path id="DejaVuSans-Bold-57" d="M 1759 4494 
L 1759 3500 
L 2913 3500 
L 2913 2700 
L 1759 2700 
L 1759 1216 
Q 1759 972 1856 886 
Q 1953 800 2241 800 
L 2816 800 
L 2816 0 
L 1856 0 
Q 1194 0 917 276 
Q 641 553 641 1216 
L 641 2700 
L 84 2700 
L 84 3500 
L 641 3500 
L 641 4494 
L 1759 4494 
z
" transform="scale(0.015625)"/>
       <path id="DejaVuSans-Bold-4b" d="M 4056 2131 
L 4056 0 
L 2931 0 
L 2931 347 
L 2931 1625 
Q 2931 2084 2911 2256 
Q 2891 2428 2841 2509 
Q 2775 2619 2662 2680 
Q 2550 2741 2406 2741 
Q 2056 2741 1856 2470 
Q 1656 2200 1656 1722 
L 1656 0 
L 538 0 
L 538 4863 
L 1656 4863 
L 1656 2988 
Q 1909 3294 2193 3439 
Q 2478 3584 2822 3584 
Q 3428 3584 3742 3212 
Q 4056 2841 4056 2131 
z
" transform="scale(0.015625)"/>
      </defs>
      <use xlink:href="#DejaVuSans-Bold-30"/>
      <use xlink:href="#DejaVuSans-Bold-52" transform="translate(99.515625 0)"/>
      <use xlink:href="#DejaVuSans-Bold-51" transform="translate(168.21875 0)"/>
      <use xlink:href="#DejaVuSans-Bold-57" transform="translate(239.40625 0)"/>
      <use xlink:href="#DejaVuSans-Bold-4b" transform="translate(287.203125 0)"/>
     </g>
    </g>
   </g>
   <g id="matplotlib.axis_2">
    <g id="ytick_1">
     <g id="line2d_17">
      <path d="M 40.811406 195.356563 
L 711.411406 195.356563 
" clip-path="url(#paa7fbb5fc1)" style="fill: none; stroke-dasharray: 0.7,1.155; stroke-dashoffset: 0; stroke: #283d58; stroke-width: 0.7"/>
     </g>
     <g id="line2d_18">
      <defs>
       <path id="m6f367ddee4" d="M 0 0 
L -3.5 0 
" style="stroke: #58a6ff; stroke-width: 0.8"/>
      </defs>
      <g>
       <use xlink:href="#m6f367ddee4" x="40.811406" y="195.356563" style="fill: #58a6ff; stroke: #58a6ff; stroke-width: 0.8"/>
      </g>
     </g>
     <g id="text_10">
      <!-- 0 -->
      <g style="fill: #58a6ff" transform="translate(28.940938 198.015742) scale(0.07 -0.07)">
       <defs>
        <path id="DejaVuSans-Bold-13" d="M 2944 2338 
Q 2944 3213 2780 3570 
Q 2616 3928 2228 3928 
Q 1841 3928 1675 3570 
Q 1509 3213 1509 2338 
Q 1509 1453 1675 1090 
Q 1841 728 2228 728 
Q 2613 728 2778 1090 
Q 2944 1453 2944 2338 
z
M 4147 2328 
Q 4147 1169 3647 539 
Q 3147 -91 2228 -91 
Q 1306 -91 806 539 
Q 306 1169 306 2328 
Q 306 3491 806 4120 
Q 1306 4750 2228 4750 
Q 3147 4750 3647 4120 
Q 4147 3491 4147 2328 
z
" transform="scale(0.015625)"/>
       </defs>
       <use xlink:href="#DejaVuSans-Bold-13"/>
      </g>
     </g>
    </g>
    <g id="ytick_2">
     <g id="line2d_19">
      <path d="M 40.811406 172.615479 
L 711.411406 172.615479 
" clip-path="url(#paa7fbb5fc1)" style="fill: none; stroke-dasharray: 0.7,1.155; stroke-dashoffset: 0; stroke: #283d58; stroke-width: 0.7"/>
     </g>
     <g id="line2d_20">
      <g>
       <use xlink:href="#m6f367ddee4" x="40.811406" y="172.615479" style="fill: #58a6ff; stroke: #58a6ff; stroke-width: 0.8"/>
      </g>
     </g>
     <g id="text_11">
      <!-- 29 -->
      <g style="fill: #58a6ff" transform="translate(24.070469 175.274659) scale(0.07 -0.07)">
       <defs>
        <path id="DejaVuSans-Bold-1c" d="M 641 103 
L 641 966 
Q 928 831 1190 764 
Q 1453 697 1709 697 
Q 2247 697 2547 995 
Q 2847 1294 2900 1881 
Q 2688 1725 2447 1647 
Q 2206 1569 1925 1569 
Q 1209 1569 770 1986 
Q 331 2403 331 3084 
Q 331 3838 820 4291 
Q 1309 4744 2131 4744 
Q 3044 4744 3544 4128 
Q 4044 3513 4044 2388 
Q 4044 1231 3459 570 
Q 2875 -91 1856 -91 
Q 1528 -91 1228 -42 
Q 928 6 641 103 
z
M 2125 2350 
Q 2441 2350 2600 2554 
Q 2759 2759 2759 3169 
Q 2759 3575 2600 3781 
Q 2441 3988 2125 3988 
Q 1809 3988 1650 3781 
Q 1491 3575 1491 3169 
Q 1491 2759 1650 2554 
Q 1809 2350 2125 2350 
z
" transform="scale(0.015625)"/>
       </defs>
       <use xlink:href="#DejaVuSans-Bold-15"/>
       <use xlink:href="#DejaVuSans-Bold-1c" transform="translate(69.578125 0)"/>
      </g>
     </g>
    </g>
    <g id="ytick_3">
     <g id="line2d_21">
      <path d="M 40.811406 149.874396 
L 711.411406 149.874396 
" clip-path="url(#paa7fbb5fc1)" style="fill: none; stroke-dasharray: 0.7,1.155; stroke-dashoffset: 0; stroke: #283d58; stroke-width: 0.7"/>
     </g>
     <g id="line2d_22">
      <g>
       <use xlink:href="#m6f367ddee4" x="40.811406" y="149.874396" style="fill: #58a6ff; stroke: #58a6ff; stroke-width: 0.8"/>
      </g>
     </g>
     <g id="text_12">
      <!-- 58 -->
      <g style="fill: #58a6ff" transform="translate(24.070469 152.533576) scale(0.07 -0.07)">
       <defs>
        <path id="DejaVuSans-Bold-1b" d="M 2228 2088 
Q 1891 2088 1709 1903 
Q 1528 1719 1528 1375 
Q 1528 1031 1709 848 
Q 1891 666 2228 666 
Q 2563 666 2741 848 
Q 2919 1031 2919 1375 
Q 2919 1722 2741 1905 
Q 2563 2088 2228 2088 
z
M 1350 2484 
Q 925 2613 709 2878 
Q 494 3144 494 3541 
Q 494 4131 934 4440 
Q 1375 4750 2228 4750 
Q 3075 4750 3515 4442 
Q 3956 4134 3956 3541 
Q 3956 3144 3739 2878 
Q 3522 2613 3097 2484 
Q 3572 2353 3814 2058 
Q 4056 1763 4056 1313 
Q 4056 619 3595 264 
Q 3134 -91 2228 -91 
Q 1319 -91 855 264 
Q 391 619 391 1313 
Q 391 1763 633 2058 
Q 875 2353 1350 2484 
z
M 1631 3419 
Q 1631 3141 1786 2991 
Q 1941 2841 2228 2841 
Q 2509 2841 2662 2991 
Q 2816 3141 2816 3419 
Q 2816 3697 2662 3845 
Q 2509 3994 2228 3994 
Q 1941 3994 1786 3844 
Q 1631 3694 1631 3419 
z
" transform="scale(0.015625)"/>
       </defs>
       <use xlink:href="#DejaVuSans-Bold-18"/>
       <use xlink:href="#DejaVuSans-Bold-1b" transform="translate(69.578125 0)"/>
      </g>
     </g>
    </g>
    <g id="ytick_4">
     <g id="line2d_23">
      <path d="M 40.811406 127.133313 
L 711.411406 127.133313 
" clip-path="url(#paa7fbb5fc1)" style="fill: none; stroke-dasharray: 0.7,1.155; stroke-dashoffset: 0; stroke: #283d58; stroke-width: 0.7"/>
     </g>
     <g id="line2d_24">
      <g>
       <use xlink:href="#m6f367ddee4" x="40.811406" y="127.133313" style="fill: #58a6ff; stroke: #58a6ff; stroke-width: 0.8"/>
      </g>
     </g>
     <g id="text_13">
      <!-- 87 -->
      <g style="fill: #58a6ff" transform="translate(24.070469 129.792492) scale(0.07 -0.07)">
       <defs>
        <path id="DejaVuSans-Bold-1a" d="M 428 4666 
L 3944 4666 
L 3944 3988 
L 2125 0 
L 953 0 
L 2675 3781 
L 428 3781 
L 428 4666 
z
" transform="scale(0.015625)"/>
       </defs>
       <use xlink:href="#DejaVuSans-Bold-1b"/>
       <use xlink:href="#DejaVuSans-Bold-1a" transform="translate(69.578125 0)"/>
      </g>
     </g>
    </g>
    <g id="ytick_5">
     <g id="line2d_25">
      <path d="M 40.811406 104.392229 
L 711.411406 104.392229 
" clip-path="url(#paa7fbb5fc1)" style="fill: none; stroke-dasharray: 0.7,1.155; stroke-dashoffset: 0; stroke: #283d58; stroke-width: 0.7"/>
     </g>
     <g id="line2d_26">
      <g>
       <use xlink:href="#m6f367ddee4" x="40.811406" y="104.392229" style="fill: #58a6ff; stroke: #58a6ff; stroke-width: 0.8"/>
      </g>
     </g>
     <g id="text_14">
      <!-- 116 -->
      <g style="fill: #58a6ff" transform="translate(19.2 107.051409) scale(0.07 -0.07)">
       <defs>
        <path id="DejaVuSans-Bold-14" d="M 750 831 
L 1813 831 
L 1813 3847 
L 722 3622 
L 722 4441 
L 1806 4666 
L 2950 4666 
L 2950 831 
L 4013 831 
L 4013 0 
L 750 0 
L 750 831 
z
" transform="scale(0.015625)"/>
       </defs>
       <use xlink:href="#DejaVuSans-Bold-14"/>
       <use xlink:href="#DejaVuSans-Bold-14" transform="translate(69.578125 0)"/>
       <use xlink:href="#DejaVuSans-Bold-19" transform="translate(139.15625 0)"/>
      </g>
     </g>
    </g>
    <g id="ytick_6">
     <g id="line2d_27">
      <path d="M 40.811406 81.651146 
L 711.411406 81.651146 
" clip-path="url(#paa7fbb5fc1)" style="fill: none; stroke-dasharray: 0.7,1.155; stroke-dashoffset: 0; stroke: #283d58; stroke-width: 0.7"/>
     </g>
     <g id="line2d_28">
      <g>
       <use xlink:href="#m6f367ddee4" x="40.811406" y="81.651146" style="fill: #58a6ff; stroke: #58a6ff; stroke-width: 0.8"/>
      </g>
     </g>
     <g id="text_15">
      <!-- 145 -->
      <g style="fill: #58a6ff" transform="translate(19.2 84.310326) scale(0.07 -0.07)">
       <defs>
        <path id="DejaVuSans-Bold-17" d="M 2356 3675 
L 1038 1722 
L 2356 1722 
L 2356 3675 
z
M 2156 4666 
L 3494 4666 
L 3494 1722 
L 4159 1722 
L 4159 850 
L 3494 850 
L 3494 0 
L 2356 0 
L 2356 850 
L 288 850 
L 288 1881 
L 2156 4666 
z
" transform="scale(0.015625)"/>
       </defs>
       <use xlink:href="#DejaVuSans-Bold-14"/>
       <use xlink:href="#DejaVuSans-Bold-17" transform="translate(69.578125 0)"/>
       <use xlink:href="#DejaVuSans-Bold-18" transform="translate(139.15625 0)"/>
      </g>
     </g>
    </g>
    <g id="ytick_7">
     <g id="line2d_29">
      <path d="M 40.811406 58.910063 
L 711.411406 58.910063 
" clip-path="url(#paa7fbb5fc1)" style="fill: none; stroke-dasharray: 0.7,1.155; stroke-dashoffset: 0; stroke: #283d58; stroke-width: 0.7"/>
     </g>
     <g id="line2d_30">
      <g>
       <use xlink:href="#m6f367ddee4" x="40.811406" y="58.910063" style="fill: #58a6ff; stroke: #58a6ff; stroke-width: 0.8"/>
      </g>
     </g>
     <g id="text_16">
      <!-- 174 -->
      <g style="fill: #58a6ff" transform="translate(19.2 61.569242) scale(0.07 -0.07)">
       <use xlink:href="#DejaVuSans-Bold-14"/>
       <use xlink:href="#DejaVuSans-Bold-1a" transform="translate(69.578125 0)"/>
       <use xlink:href="#DejaVuSans-Bold-17" transform="translate(139.15625 0)"/>
      </g>
     </g>
    </g>
    <g id="ytick_8">
     <g id="line2d_31">
      <path d="M 40.811406 36.168979 
L 711.411406 36.168979 
" clip-path="url(#paa7fbb5fc1)" style="fill: none; stroke-dasharray: 0.7,1.155; stroke-dashoffset: 0; stroke: #283d58; stroke-width: 0.7"/>
     </g>
     <g id="line2d_32">
      <g>
       <use xlink:href="#m6f367ddee4" x="40.811406" y="36.168979" style="fill: #58a6ff; stroke: #58a6ff; stroke-width: 0.8"/>
      </g>
     </g>
     <g id="text_17">
      <!-- 203 -->
      <g style="fill: #58a6ff" transform="translate(19.2 38.828159) scale(0.07 -0.07)">
       <defs>
        <path id="DejaVuSans-Bold-16" d="M 2981 2516 
Q 3453 2394 3698 2092 
Q 3944 1791 3944 1325 
Q 3944 631 3412 270 
Q 2881 -91 1863 -91 
Q 1503 -91 1142 -33 
Q 781 25 428 141 
L 428 1069 
Q 766 900 1098 814 
Q 1431 728 1753 728 
Q 2231 728 2486 893 
Q 2741 1059 2741 1369 
Q 2741 1688 2480 1852 
Q 2219 2016 1709 2016 
L 1228 2016 
L 1228 2791 
L 1734 2791 
Q 2188 2791 2409 2933 
Q 2631 3075 2631 3366 
Q 2631 3634 2415 3781 
Q 2200 3928 1806 3928 
Q 1516 3928 1219 3862 
Q 922 3797 628 3669 
L 628 4550 
Q 984 4650 1334 4700 
Q 1684 4750 2022 4750 
Q 2931 4750 3382 4451 
Q 3834 4153 3834 3553 
Q 3834 3144 3618 2883 
Q 3403 2622 2981 2516 
z
" transform="scale(0.015625)"/>
       </defs>
       <use xlink:href="#DejaVuSans-Bold-15"/>
       <use xlink:href="#DejaVuSans-Bold-13" transform="translate(69.578125 0)"/>
       <use xlink:href="#DejaVuSans-Bold-16" transform="translate(139.15625 0)"/>
      </g>
     </g>
    </g>
    <g id="text_18">
     <!-- Stars -->
     <g style="fill: #58a6ff" transform="translate(13.278125 121.9225) rotate(-90) scale(0.08 -0.08)">
      <defs>
       <path id="DejaVuSans-Bold-36" d="M 3834 4519 
L 3834 3531 
Q 3450 3703 3084 3790 
Q 2719 3878 2394 3878 
Q 1963 3878 1756 3759 
Q 1550 3641 1550 3391 
Q 1550 3203 1689 3098 
Q 1828 2994 2194 2919 
L 2706 2816 
Q 3484 2659 3812 2340 
Q 4141 2022 4141 1434 
Q 4141 663 3683 286 
Q 3225 -91 2284 -91 
Q 1841 -91 1394 -6 
Q 947 78 500 244 
L 500 1259 
Q 947 1022 1364 901 
Q 1781 781 2169 781 
Q 2563 781 2772 912 
Q 2981 1044 2981 1288 
Q 2981 1506 2839 1625 
Q 2697 1744 2272 1838 
L 1806 1941 
Q 1106 2091 782 2419 
Q 459 2747 459 3303 
Q 459 4000 909 4375 
Q 1359 4750 2203 4750 
Q 2588 4750 2994 4692 
Q 3400 4634 3834 4519 
z
" transform="scale(0.015625)"/>
       <path id="DejaVuSans-Bold-56" d="M 3272 3391 
L 3272 2541 
Q 2913 2691 2578 2766 
Q 2244 2841 1947 2841 
Q 1628 2841 1473 2761 
Q 1319 2681 1319 2516 
Q 1319 2381 1436 2309 
Q 1553 2238 1856 2203 
L 2053 2175 
Q 2913 2066 3209 1816 
Q 3506 1566 3506 1031 
Q 3506 472 3093 190 
Q 2681 -91 1863 -91 
Q 1516 -91 1145 -36 
Q 775 19 384 128 
L 384 978 
Q 719 816 1070 734 
Q 1422 653 1784 653 
Q 2113 653 2278 743 
Q 2444 834 2444 1013 
Q 2444 1163 2330 1236 
Q 2216 1309 1875 1350 
L 1678 1375 
Q 931 1469 631 1722 
Q 331 1975 331 2491 
Q 331 3047 712 3315 
Q 1094 3584 1881 3584 
Q 2191 3584 2531 3537 
Q 2872 3491 3272 3391 
z
" transform="scale(0.015625)"/>
      </defs>
      <use xlink:href="#DejaVuSans-Bold-36"/>
      <use xlink:href="#DejaVuSans-Bold-57" transform="translate(72.015625 0)"/>
      <use xlink:href="#DejaVuSans-Bold-44" transform="translate(119.8125 0)"/>
      <use xlink:href="#DejaVuSans-Bold-55" transform="translate(187.296875 0)"/>
      <use xlink:href="#DejaVuSans-Bold-56" transform="translate(236.609375 0)"/>
     </g>
    </g>
   </g>
   <g id="FillBetweenPolyCollection_1">
    <defs>
     <path id="m12928cd56d" d="M 53.70756 -33.201172 
L 53.70756 -33.985347 
L 58.025354 -34.769522 
L 58.79803 -35.553698 
L 58.945021 -36.337873 
L 59.242308 -37.122048 
L 59.27499 -37.906224 
L 60.289819 -38.690399 
L 64.413506 -39.474574 
L 69.108833 -40.258749 
L 69.78994 -41.042925 
L 69.940716 -41.8271 
L 70.018205 -42.611275 
L 70.351253 -43.395451 
L 70.383391 -44.179626 
L 70.690364 -44.963801 
L 71.968578 -45.747976 
L 73.034756 -46.532152 
L 74.321213 -47.316327 
L 75.047703 -48.100502 
L 92.141223 -48.884678 
L 97.671192 -49.668853 
L 103.234838 -50.453028 
L 109.500406 -51.237203 
L 109.966526 -52.021379 
L 114.861221 -52.805554 
L 115.009463 -53.589729 
L 124.208513 -54.373905 
L 130.378535 -55.15808 
L 148.454554 -55.942255 
L 169.876708 -56.72643 
L 170.008208 -57.510606 
L 170.956004 -58.294781 
L 171.672071 -59.078956 
L 172.000212 -59.863132 
L 172.292463 -60.647307 
L 172.445549 -61.431482 
L 174.909863 -62.215658 
L 175.137037 -62.999833 
L 175.820806 -63.784008 
L 175.878699 -64.568183 
L 176.131532 -65.352359 
L 176.180155 -66.136534 
L 177.344028 -66.920709 
L 177.644843 -67.704885 
L 177.763321 -68.48906 
L 178.646265 -69.273235 
L 178.998076 -70.05741 
L 179.565163 -70.841586 
L 180.894053 -71.625761 
L 181.570766 -72.409936 
L 181.789954 -73.194112 
L 181.997019 -73.978287 
L 182.201485 -74.762462 
L 182.900586 -75.546637 
L 185.862483 -76.330813 
L 186.970228 -77.114988 
L 188.111554 -77.899163 
L 188.201391 -78.683339 
L 189.55331 -79.467514 
L 192.753255 -80.251689 
L 194.016651 -81.035864 
L 197.387739 -81.82004 
L 198.819424 -82.604215 
L 200.978722 -83.38839 
L 208.795319 -84.172566 
L 209.187254 -84.956741 
L 220.962552 -85.740916 
L 221.42431 -86.525091 
L 232.558241 -87.309267 
L 254.330539 -88.093442 
L 260.845957 -88.877617 
L 264.768641 -89.661793 
L 265.899992 -90.445968 
L 273.302075 -91.230143 
L 276.89883 -92.014318 
L 276.969295 -92.798494 
L 277.771895 -93.582669 
L 279.29563 -94.366844 
L 280.209524 -95.15102 
L 290.975799 -95.935195 
L 291.611908 -96.71937 
L 291.857556 -97.503545 
L 291.878051 -98.287721 
L 292.559511 -99.071896 
L 293.225255 -99.856071 
L 295.590334 -100.640247 
L 299.632971 -101.424422 
L 302.099883 -102.208597 
L 308.472416 -102.992772 
L 309.13322 -103.776948 
L 309.476211 -104.561123 
L 309.589334 -105.345298 
L 322.604102 -106.129474 
L 324.687739 -106.913649 
L 326.557127 -107.697824 
L 327.513871 -108.481999 
L 327.957925 -109.266175 
L 332.475053 -110.05035 
L 334.184845 -110.834525 
L 334.326224 -111.618701 
L 335.156599 -112.402876 
L 336.13711 -113.187051 
L 336.141696 -113.971226 
L 336.337696 -114.755402 
L 336.394145 -115.539577 
L 336.394337 -116.323752 
L 336.653489 -117.107928 
L 338.962344 -117.892103 
L 338.966481 -118.676278 
L 339.423108 -119.460453 
L 339.434782 -120.244629 
L 340.63647 -121.028804 
L 340.706486 -121.812979 
L 341.399235 -122.597155 
L 343.097095 -123.38133 
L 344.308084 -124.165505 
L 346.316541 -124.94968 
L 347.147398 -125.733856 
L 347.759067 -126.518031 
L 351.641274 -127.302206 
L 352.686412 -128.086382 
L 353.037485 -128.870557 
L 357.181859 -129.654732 
L 358.401988 -130.438908 
L 358.896878 -131.223083 
L 366.442777 -132.007258 
L 367.478133 -132.791433 
L 368.040056 -133.575609 
L 369.810177 -134.359784 
L 370.471847 -135.143959 
L 376.013459 -135.928135 
L 378.777305 -136.71231 
L 390.244412 -137.496485 
L 396.624032 -138.28066 
L 400.064719 -139.064836 
L 422.128499 -139.849011 
L 427.896515 -140.633186 
L 436.687464 -141.417362 
L 436.791927 -142.201537 
L 439.004947 -142.985712 
L 447.728864 -143.769887 
L 451.975647 -144.554063 
L 455.289934 -145.338238 
L 455.785946 -146.122413 
L 456.547781 -146.906589 
L 461.312162 -147.690764 
L 467.162286 -148.474939 
L 467.918957 -149.259114 
L 469.617908 -150.04329 
L 470.45008 -150.827465 
L 475.451674 -151.61164 
L 483.457504 -152.395816 
L 495.422804 -153.179991 
L 497.021975 -153.964166 
L 498.00085 -154.748341 
L 505.706089 -155.532517 
L 511.71103 -156.316692 
L 518.167722 -157.100867 
L 545.123727 -157.885043 
L 545.792517 -158.669218 
L 550.153962 -159.453393 
L 557.043194 -160.237568 
L 557.221457 -161.021744 
L 557.548604 -161.805919 
L 558.095966 -162.590094 
L 558.679859 -163.37427 
L 558.707121 -164.158445 
L 561.024572 -164.94262 
L 569.185924 -165.726795 
L 572.691592 -166.510971 
L 573.343287 -167.295146 
L 575.100836 -168.079321 
L 576.988409 -168.863497 
L 586.950224 -169.647672 
L 596.218166 -170.431847 
L 601.375893 -171.216022 
L 603.360328 -172.000198 
L 604.777451 -172.784373 
L 605.716683 -173.568548 
L 606.121319 -174.352724 
L 610.824087 -175.136899 
L 616.058373 -175.921074 
L 617.743661 -176.705249 
L 619.103661 -177.489425 
L 622.916334 -178.2736 
L 623.927121 -179.057775 
L 624.819783 -179.841951 
L 626.250762 -180.626126 
L 633.042299 -181.410301 
L 633.322844 -182.194476 
L 634.366699 -182.978652 
L 637.990716 -183.762827 
L 642.205972 -184.547002 
L 652.043984 -185.331178 
L 673.203875 -186.115353 
L 674.982111 -186.899528 
L 680.994429 -187.683703 
L 682.446737 -188.467879 
L 686.165017 -189.252054 
L 686.889519 -190.036229 
L 691.360078 -190.820405 
L 694.035626 -191.60458 
L 696.020092 -192.388755 
L 698.515252 -192.388755 
L 698.515252 -33.201172 
L 698.515252 -33.201172 
L 696.020092 -33.201172 
L 694.035626 -33.201172 
L 691.360078 -33.201172 
L 686.889519 -33.201172 
L 686.165017 -33.201172 
L 682.446737 -33.201172 
L 680.994429 -33.201172 
L 674.982111 -33.201172 
L 673.203875 -33.201172 
L 652.043984 -33.201172 
L 642.205972 -33.201172 
L 637.990716 -33.201172 
L 634.366699 -33.201172 
L 633.322844 -33.201172 
L 633.042299 -33.201172 
L 626.250762 -33.201172 
L 624.819783 -33.201172 
L 623.927121 -33.201172 
L 622.916334 -33.201172 
L 619.103661 -33.201172 
L 617.743661 -33.201172 
L 616.058373 -33.201172 
L 610.824087 -33.201172 
L 606.121319 -33.201172 
L 605.716683 -33.201172 
L 604.777451 -33.201172 
L 603.360328 -33.201172 
L 601.375893 -33.201172 
L 596.218166 -33.201172 
L 586.950224 -33.201172 
L 576.988409 -33.201172 
L 575.100836 -33.201172 
L 573.343287 -33.201172 
L 572.691592 -33.201172 
L 569.185924 -33.201172 
L 561.024572 -33.201172 
L 558.707121 -33.201172 
L 558.679859 -33.201172 
L 558.095966 -33.201172 
L 557.548604 -33.201172 
L 557.221457 -33.201172 
L 557.043194 -33.201172 
L 550.153962 -33.201172 
L 545.792517 -33.201172 
L 545.123727 -33.201172 
L 518.167722 -33.201172 
L 511.71103 -33.201172 
L 505.706089 -33.201172 
L 498.00085 -33.201172 
L 497.021975 -33.201172 
L 495.422804 -33.201172 
L 483.457504 -33.201172 
L 475.451674 -33.201172 
L 470.45008 -33.201172 
L 469.617908 -33.201172 
L 467.918957 -33.201172 
L 467.162286 -33.201172 
L 461.312162 -33.201172 
L 456.547781 -33.201172 
L 455.785946 -33.201172 
L 455.289934 -33.201172 
L 451.975647 -33.201172 
L 447.728864 -33.201172 
L 439.004947 -33.201172 
L 436.791927 -33.201172 
L 436.687464 -33.201172 
L 427.896515 -33.201172 
L 422.128499 -33.201172 
L 400.064719 -33.201172 
L 396.624032 -33.201172 
L 390.244412 -33.201172 
L 378.777305 -33.201172 
L 376.013459 -33.201172 
L 370.471847 -33.201172 
L 369.810177 -33.201172 
L 368.040056 -33.201172 
L 367.478133 -33.201172 
L 366.442777 -33.201172 
L 358.896878 -33.201172 
L 358.401988 -33.201172 
L 357.181859 -33.201172 
L 353.037485 -33.201172 
L 352.686412 -33.201172 
L 351.641274 -33.201172 
L 347.759067 -33.201172 
L 347.147398 -33.201172 
L 346.316541 -33.201172 
L 344.308084 -33.201172 
L 343.097095 -33.201172 
L 341.399235 -33.201172 
L 340.706486 -33.201172 
L 340.63647 -33.201172 
L 339.434782 -33.201172 
L 339.423108 -33.201172 
L 338.966481 -33.201172 
L 338.962344 -33.201172 
L 336.653489 -33.201172 
L 336.394337 -33.201172 
L 336.394145 -33.201172 
L 336.337696 -33.201172 
L 336.141696 -33.201172 
L 336.13711 -33.201172 
L 335.156599 -33.201172 
L 334.326224 -33.201172 
L 334.184845 -33.201172 
L 332.475053 -33.201172 
L 327.957925 -33.201172 
L 327.513871 -33.201172 
L 326.557127 -33.201172 
L 324.687739 -33.201172 
L 322.604102 -33.201172 
L 309.589334 -33.201172 
L 309.476211 -33.201172 
L 309.13322 -33.201172 
L 308.472416 -33.201172 
L 302.099883 -33.201172 
L 299.632971 -33.201172 
L 295.590334 -33.201172 
L 293.225255 -33.201172 
L 292.559511 -33.201172 
L 291.878051 -33.201172 
L 291.857556 -33.201172 
L 291.611908 -33.201172 
L 290.975799 -33.201172 
L 280.209524 -33.201172 
L 279.29563 -33.201172 
L 277.771895 -33.201172 
L 276.969295 -33.201172 
L 276.89883 -33.201172 
L 273.302075 -33.201172 
L 265.899992 -33.201172 
L 264.768641 -33.201172 
L 260.845957 -33.201172 
L 254.330539 -33.201172 
L 232.558241 -33.201172 
L 221.42431 -33.201172 
L 220.962552 -33.201172 
L 209.187254 -33.201172 
L 208.795319 -33.201172 
L 200.978722 -33.201172 
L 198.819424 -33.201172 
L 197.387739 -33.201172 
L 194.016651 -33.201172 
L 192.753255 -33.201172 
L 189.55331 -33.201172 
L 188.201391 -33.201172 
L 188.111554 -33.201172 
L 186.970228 -33.201172 
L 185.862483 -33.201172 
L 182.900586 -33.201172 
L 182.201485 -33.201172 
L 181.997019 -33.201172 
L 181.789954 -33.201172 
L 181.570766 -33.201172 
L 180.894053 -33.201172 
L 179.565163 -33.201172 
L 178.998076 -33.201172 
L 178.646265 -33.201172 
L 177.763321 -33.201172 
L 177.644843 -33.201172 
L 177.344028 -33.201172 
L 176.180155 -33.201172 
L 176.131532 -33.201172 
L 175.878699 -33.201172 
L 175.820806 -33.201172 
L 175.137037 -33.201172 
L 174.909863 -33.201172 
L 172.445549 -33.201172 
L 172.292463 -33.201172 
L 172.000212 -33.201172 
L 171.672071 -33.201172 
L 170.956004 -33.201172 
L 170.008208 -33.201172 
L 169.876708 -33.201172 
L 148.454554 -33.201172 
L 130.378535 -33.201172 
L 124.208513 -33.201172 
L 115.009463 -33.201172 
L 114.861221 -33.201172 
L 109.966526 -33.201172 
L 109.500406 -33.201172 
L 103.234838 -33.201172 
L 97.671192 -33.201172 
L 92.141223 -33.201172 
L 75.047703 -33.201172 
L 74.321213 -33.201172 
L 73.034756 -33.201172 
L 71.968578 -33.201172 
L 70.690364 -33.201172 
L 70.383391 -33.201172 
L 70.351253 -33.201172 
L 70.018205 -33.201172 
L 69.940716 -33.201172 
L 69.78994 -33.201172 
L 69.108833 -33.201172 
L 64.413506 -33.201172 
L 60.289819 -33.201172 
L 59.27499 -33.201172 
L 59.242308 -33.201172 
L 58.945021 -33.201172 
L 58.79803 -33.201172 
L 58.025354 -33.201172 
L 53.70756 -33.201172 
z
" style="stroke: #1f6feb; stroke-opacity: 0.15"/>
    </defs>
    <g clip-path="url(#paa7fbb5fc1)">
     <use xlink:href="#m12928cd56d" x="0" y="228.557734" style="fill: #1f6feb; fill-opacity: 0.15; stroke: #1f6feb; stroke-opacity: 0.15"/>
    </g>
   </g>
   <g id="patch_3">
    <path d="M 40.811406 195.356563 
L 40.811406 24.798438 
" style="fill: none; stroke: #283d58; stroke-width: 0.8; stroke-linejoin: miter; stroke-linecap: square"/>
   </g>
   <g id="patch_4">
    <path d="M 711.411406 195.356563 
L 711.411406 24.798438 
" style="fill: none; stroke: #283d58; stroke-width: 0.8; stroke-linejoin: miter; stroke-linecap: square"/>
   </g>
   <g id="patch_5">
    <path d="M 40.811406 195.356563 
L 711.411406 195.356563 
" style="fill: none; stroke: #283d58; stroke-width: 0.8; stroke-linejoin: miter; stroke-linecap: square"/>
   </g>
   <g id="patch_6">
    <path d="M 40.811406 24.798438 
L 711.411406 24.798438 
" style="fill: none; stroke: #283d58; stroke-width: 0.8; stroke-linejoin: miter; stroke-linecap: square"/>
   </g>
   <g id="line2d_33">
    <path d="M 53.70756 194.572387 
L 58.025354 193.788212 
L 58.79803 193.004037 
L 58.945021 192.219861 
L 59.242308 191.435686 
L 59.27499 190.651511 
L 60.289819 189.867335 
L 69.108833 188.298985 
L 69.78994 187.51481 
L 70.383391 184.378108 
L 70.690364 183.593933 
L 74.321213 181.241407 
L 75.047703 180.457232 
L 92.141223 179.673057 
L 109.500406 177.320531 
L 109.966526 176.536356 
L 114.861221 175.75218 
L 115.009463 174.968005 
L 124.208513 174.18383 
L 130.378535 173.399654 
L 148.454554 172.615479 
L 169.876708 171.831304 
L 170.008208 171.047129 
L 170.956004 170.262953 
L 171.672071 169.478778 
L 172.292463 167.910427 
L 172.445549 167.126252 
L 174.909863 166.342077 
L 175.137037 165.557902 
L 175.820806 164.773726 
L 175.878699 163.989551 
L 176.131532 163.205376 
L 176.180155 162.4212 
L 177.344028 161.637025 
L 177.644843 160.85285 
L 177.763321 160.068675 
L 178.646265 159.284499 
L 178.998076 158.500324 
L 179.565163 157.716149 
L 180.894053 156.931973 
L 181.570766 156.147798 
L 182.201485 153.795272 
L 182.900586 153.011097 
L 185.862483 152.226922 
L 188.111554 150.658571 
L 188.201391 149.874396 
L 189.55331 149.090221 
L 192.753255 148.306045 
L 194.016651 147.52187 
L 197.387739 146.737695 
L 198.819424 145.953519 
L 200.978722 145.169344 
L 208.795319 144.385169 
L 209.187254 143.600994 
L 220.962552 142.816818 
L 221.42431 142.032643 
L 232.558241 141.248468 
L 254.330539 140.464292 
L 260.845957 139.680117 
L 264.768641 138.895942 
L 265.899992 138.111767 
L 273.302075 137.327591 
L 276.89883 136.543416 
L 276.969295 135.759241 
L 277.771895 134.975065 
L 279.29563 134.19089 
L 280.209524 133.406715 
L 290.975799 132.62254 
L 291.611908 131.838364 
L 291.857556 131.054189 
L 291.878051 130.270014 
L 293.225255 128.701663 
L 295.590334 127.917488 
L 299.632971 127.133313 
L 302.099883 126.349137 
L 308.472416 125.564962 
L 309.13322 124.780787 
L 309.476211 123.996611 
L 309.589334 123.212436 
L 322.604102 122.428261 
L 326.557127 120.85991 
L 327.513871 120.075735 
L 327.957925 119.29156 
L 332.475053 118.507384 
L 334.184845 117.723209 
L 334.326224 116.939034 
L 336.13711 115.370683 
L 336.141696 114.586508 
L 336.337696 113.802333 
L 336.394337 112.233982 
L 336.653489 111.449807 
L 338.962344 110.665631 
L 338.966481 109.881456 
L 339.423108 109.097281 
L 339.434782 108.313106 
L 340.63647 107.52893 
L 340.706486 106.744755 
L 341.399235 105.96058 
L 343.097095 105.176404 
L 344.308084 104.392229 
L 346.316541 103.608054 
L 347.147398 102.823879 
L 347.759067 102.039703 
L 351.641274 101.255528 
L 352.686412 100.471353 
L 353.037485 99.687177 
L 357.181859 98.903002 
L 358.401988 98.118827 
L 358.896878 97.334652 
L 366.442777 96.550476 
L 367.478133 95.766301 
L 368.040056 94.982126 
L 369.810177 94.19795 
L 370.471847 93.413775 
L 376.013459 92.6296 
L 378.777305 91.845425 
L 390.244412 91.061249 
L 396.624032 90.277074 
L 400.064719 89.492899 
L 422.128499 88.708723 
L 427.896515 87.924548 
L 436.687464 87.140373 
L 436.791927 86.356198 
L 439.004947 85.572022 
L 447.728864 84.787847 
L 451.975647 84.003672 
L 455.289934 83.219496 
L 455.785946 82.435321 
L 456.547781 81.651146 
L 461.312162 80.866971 
L 467.162286 80.082795 
L 467.918957 79.29862 
L 469.617908 78.514445 
L 470.45008 77.730269 
L 475.451674 76.946094 
L 483.457504 76.161919 
L 495.422804 75.377744 
L 497.021975 74.593568 
L 498.00085 73.809393 
L 505.706089 73.025218 
L 518.167722 71.456867 
L 545.123727 70.672692 
L 545.792517 69.888517 
L 550.153962 69.104341 
L 557.043194 68.320166 
L 557.221457 67.535991 
L 557.548604 66.751815 
L 558.679859 65.183465 
L 558.707121 64.39929 
L 561.024572 63.615114 
L 569.185924 62.830939 
L 572.691592 62.046764 
L 573.343287 61.262588 
L 576.988409 59.694238 
L 596.218166 58.125887 
L 601.375893 57.341712 
L 603.360328 56.557537 
L 604.777451 55.773361 
L 605.716683 54.989186 
L 606.121319 54.205011 
L 616.058373 52.63666 
L 617.743661 51.852485 
L 619.103661 51.06831 
L 622.916334 50.284134 
L 624.819783 48.715784 
L 626.250762 47.931608 
L 633.042299 47.147433 
L 633.322844 46.363258 
L 634.366699 45.579083 
L 637.990716 44.794907 
L 642.205972 44.010732 
L 652.043984 43.226557 
L 673.203875 42.442381 
L 674.982111 41.658206 
L 680.994429 40.874031 
L 682.446737 40.089856 
L 686.165017 39.30568 
L 686.889519 38.521505 
L 691.360078 37.73733 
L 694.035626 36.953154 
L 696.020092 36.168979 
L 698.515252 36.168979 
L 698.515252 36.168979 
" clip-path="url(#paa7fbb5fc1)" style="fill: none; stroke: #1f6feb; stroke-width: 2.5; stroke-linecap: square"/>
   </g>
   <g id="text_19">
    <!-- FirstEverTech / Universal-Intel-Chipset-Updater · Stars History -->
    <g style="fill: #58a6ff" transform="translate(222.398125 14.798438) scale(0.1 -0.1)">
     <defs>
      <path id="DejaVuSans-29" d="M 628 4666 
L 3309 4666 
L 3309 4134 
L 1259 4134 
L 1259 2759 
L 3109 2759 
L 3109 2228 
L 1259 2228 
L 1259 0 
L 628 0 
L 628 4666 
z
" transform="scale(0.015625)"/>
      <path id="DejaVuSans-4c" d="M 603 3500 
L 1178 3500 
L 1178 0 
L 603 0 
L 603 3500 
z
M 603 4863 
L 1178 4863 
L 1178 4134 
L 603 4134 
L 603 4863 
z
" transform="scale(0.015625)"/>
      <path id="DejaVuSans-55" d="M 2631 2963 
Q 2534 3019 2420 3045 
Q 2306 3072 2169 3072 
Q 1681 3072 1420 2755 
Q 1159 2438 1159 1844 
L 1159 0 
L 581 0 
L 581 3500 
L 1159 3500 
L 1159 2956 
Q 1341 3275 1631 3429 
Q 1922 3584 2338 3584 
Q 2397 3584 2469 3576 
Q 2541 3569 2628 3553 
L 2631 2963 
z
" transform="scale(0.015625)"/>
      <path id="DejaVuSans-56" d="M 2834 3397 
L 2834 2853 
Q 2591 2978 2328 3040 
Q 2066 3103 1784 3103 
Q 1356 3103 1142 2972 
Q 928 2841 928 2578 
Q 928 2378 1081 2264 
Q 1234 2150 1697 2047 
L 1894 2003 
Q 2506 1872 2764 1633 
Q 3022 1394 3022 966 
Q 3022 478 2636 193 
Q 2250 -91 1575 -91 
Q 1294 -91 989 -36 
Q 684 19 347 128 
L 347 722 
Q 666 556 975 473 
Q 1284 391 1588 391 
Q 1994 391 2212 530 
Q 2431 669 2431 922 
Q 2431 1156 2273 1281 
Q 2116 1406 1581 1522 
L 1381 1569 
Q 847 1681 609 1914 
Q 372 2147 372 2553 
Q 372 3047 722 3315 
Q 1072 3584 1716 3584 
Q 2034 3584 2315 3537 
Q 2597 3491 2834 3397 
z
" transform="scale(0.015625)"/>
      <path id="DejaVuSans-57" d="M 1172 4494 
L 1172 3500 
L 2356 3500 
L 2356 3053 
L 1172 3053 
L 1172 1153 
Q 1172 725 1289 603 
Q 1406 481 1766 481 
L 2356 481 
L 2356 0 
L 1766 0 
Q 1100 0 847 248 
Q 594 497 594 1153 
L 594 3053 
L 172 3053 
L 172 3500 
L 594 3500 
L 594 4494 
L 1172 4494 
z
" transform="scale(0.015625)"/>
      <path id="DejaVuSans-28" d="M 628 4666 
L 3578 4666 
L 3578 4134 
L 1259 4134 
L 1259 2753 
L 3481 2753 
L 3481 2222 
L 1259 2222 
L 1259 531 
L 3634 531 
L 3634 0 
L 628 0 
L 628 4666 
z
" transform="scale(0.015625)"/>
      <path id="DejaVuSans-59" d="M 191 3500 
L 800 3500 
L 1894 563 
L 2988 3500 
L 3597 3500 
L 2284 0 
L 1503 0 
L 191 3500 
z
" transform="scale(0.015625)"/>
      <path id="DejaVuSans-48" d="M 3597 1894 
L 3597 1613 
L 953 1613 
Q 991 1019 1311 708 
Q 1631 397 2203 397 
Q 2534 397 2845 478 
Q 3156 559 3463 722 
L 3463 178 
Q 3153 47 2828 -22 
Q 2503 -91 2169 -91 
Q 1331 -91 842 396 
Q 353 884 353 1716 
Q 353 2575 817 3079 
Q 1281 3584 2069 3584 
Q 2775 3584 3186 3129 
Q 3597 2675 3597 1894 
z
M 3022 2063 
Q 3016 2534 2758 2815 
Q 2500 3097 2075 3097 
Q 1594 3097 1305 2825 
Q 1016 2553 972 2059 
L 3022 2063 
z
" transform="scale(0.015625)"/>
      <path id="DejaVuSans-37" d="M -19 4666 
L 3928 4666 
L 3928 4134 
L 2272 4134 
L 2272 0 
L 1638 0 
L 1638 4134 
L -19 4134 
L -19 4666 
z
" transform="scale(0.015625)"/>
      <path id="DejaVuSans-46" d="M 3122 3366 
L 3122 2828 
Q 2878 2963 2633 3030 
Q 2388 3097 2138 3097 
Q 1578 3097 1268 2742 
Q 959 2388 959 1747 
Q 959 1106 1268 751 
Q 1578 397 2138 397 
Q 2388 397 2633 464 
Q 2878 531 3122 666 
L 3122 134 
Q 2881 22 2623 -34 
Q 2366 -91 2075 -91 
Q 1284 -91 818 406 
Q 353 903 353 1747 
Q 353 2603 823 3093 
Q 1294 3584 2113 3584 
Q 2378 3584 2631 3529 
Q 2884 3475 3122 3366 
z
" transform="scale(0.015625)"/>
      <path id="DejaVuSans-4b" d="M 3513 2113 
L 3513 0 
L 2938 0 
L 2938 2094 
Q 2938 2591 2744 2837 
Q 2550 3084 2163 3084 
Q 1697 3084 1428 2787 
Q 1159 2491 1159 1978 
L 1159 0 
L 581 0 
L 581 4863 
L 1159 4863 
L 1159 2956 
Q 1366 3272 1645 3428 
Q 1925 3584 2291 3584 
Q 2894 3584 3203 3211 
Q 3513 2838 3513 2113 
z
" transform="scale(0.015625)"/>
      <path id="DejaVuSans-3" transform="scale(0.015625)"/>
      <path id="DejaVuSans-12" d="M 1625 4666 
L 2156 4666 
L 531 -594 
L 0 -594 
L 1625 4666 
z
" transform="scale(0.015625)"/>
      <path id="DejaVuSans-38" d="M 556 4666 
L 1191 4666 
L 1191 1831 
Q 1191 1081 1462 751 
Q 1734 422 2344 422 
Q 2950 422 3222 751 
Q 3494 1081 3494 1831 
L 3494 4666 
L 4128 4666 
L 4128 1753 
Q 4128 841 3676 375 
Q 3225 -91 2344 -91 
Q 1459 -91 1007 375 
Q 556 841 556 1753 
L 556 4666 
z
" transform="scale(0.015625)"/>
      <path id="DejaVuSans-51" d="M 3513 2113 
L 3513 0 
L 2938 0 
L 2938 2094 
Q 2938 2591 2744 2837 
Q 2550 3084 2163 3084 
Q 1697 3084 1428 2787 
Q 1159 2491 1159 1978 
L 1159 0 
L 581 0 
L 581 3500 
L 1159 3500 
L 1159 2956 
Q 1366 3272 1645 3428 
Q 1925 3584 2291 3584 
Q 2894 3584 3203 3211 
Q 3513 2838 3513 2113 
z
" transform="scale(0.015625)"/>
      <path id="DejaVuSans-44" d="M 2194 1759 
Q 1497 1759 1228 1600 
Q 959 1441 959 1056 
Q 959 750 1161 570 
Q 1363 391 1709 391 
Q 2188 391 2477 730 
Q 2766 1069 2766 1631 
L 2766 1759 
L 2194 1759 
z
M 3341 1997 
L 3341 0 
L 2766 0 
L 2766 531 
Q 2569 213 2275 61 
Q 1981 -91 1556 -91 
Q 1019 -91 701 211 
Q 384 513 384 1019 
Q 384 1609 779 1909 
Q 1175 2209 1959 2209 
L 2766 2209 
L 2766 2266 
Q 2766 2663 2505 2880 
Q 2244 3097 1772 3097 
Q 1472 3097 1187 3025 
Q 903 2953 641 2809 
L 641 3341 
Q 956 3463 1253 3523 
Q 1550 3584 1831 3584 
Q 2591 3584 2966 3190 
Q 3341 2797 3341 1997 
z
" transform="scale(0.015625)"/>
      <path id="DejaVuSans-4f" d="M 603 4863 
L 1178 4863 
L 1178 0 
L 603 0 
L 603 4863 
z
" transform="scale(0.015625)"/>
      <path id="DejaVuSans-10" d="M 313 2009 
L 1997 2009 
L 1997 1497 
L 313 1497 
L 313 2009 
z
" transform="scale(0.015625)"/>
      <path id="DejaVuSans-2c" d="M 628 4666 
L 1259 4666 
L 1259 0 
L 628 0 
L 628 4666 
z
" transform="scale(0.015625)"/>
      <path id="DejaVuSans-26" d="M 4122 4306 
L 4122 3641 
Q 3803 3938 3442 4084 
Q 3081 4231 2675 4231 
Q 1875 4231 1450 3742 
Q 1025 3253 1025 2328 
Q 1025 1406 1450 917 
Q 1875 428 2675 428 
Q 3081 428 3442 575 
Q 3803 722 4122 1019 
L 4122 359 
Q 3791 134 3420 21 
Q 3050 -91 2638 -91 
Q 1578 -91 968 557 
Q 359 1206 359 2328 
Q 359 3453 968 4101 
Q 1578 4750 2638 4750 
Q 3056 4750 3426 4639 
Q 3797 4528 4122 4306 
z
" transform="scale(0.015625)"/>
      <path id="DejaVuSans-53" d="M 1159 525 
L 1159 -1331 
L 581 -1331 
L 581 3500 
L 1159 3500 
L 1159 2969 
Q 1341 3281 1617 3432 
Q 1894 3584 2278 3584 
Q 2916 3584 3314 3078 
Q 3713 2572 3713 1747 
Q 3713 922 3314 415 
Q 2916 -91 2278 -91 
Q 1894 -91 1617 61 
Q 1341 213 1159 525 
z
M 3116 1747 
Q 3116 2381 2855 2742 
Q 2594 3103 2138 3103 
Q 1681 3103 1420 2742 
Q 1159 2381 1159 1747 
Q 1159 1113 1420 752 
Q 1681 391 2138 391 
Q 2594 391 2855 752 
Q 3116 1113 3116 1747 
z
" transform="scale(0.015625)"/>
      <path id="DejaVuSans-47" d="M 2906 2969 
L 2906 4863 
L 3481 4863 
L 3481 0 
L 2906 0 
L 2906 525 
Q 2725 213 2448 61 
Q 2172 -91 1784 -91 
Q 1150 -91 751 415 
Q 353 922 353 1747 
Q 353 2572 751 3078 
Q 1150 3584 1784 3584 
Q 2172 3584 2448 3432 
Q 2725 3281 2906 2969 
z
M 947 1747 
Q 947 1113 1208 752 
Q 1469 391 1925 391 
Q 2381 391 2643 752 
Q 2906 1113 2906 1747 
Q 2906 2381 2643 2742 
Q 2381 3103 1925 3103 
Q 1469 3103 1208 2742 
Q 947 2381 947 1747 
z
" transform="scale(0.015625)"/>
      <path id="DejaVuSans-79" d="M 684 2619 
L 1344 2619 
L 1344 1825 
L 684 1825 
L 684 2619 
z
" transform="scale(0.015625)"/>
      <path id="DejaVuSans-36" d="M 3425 4513 
L 3425 3897 
Q 3066 4069 2747 4153 
Q 2428 4238 2131 4238 
Q 1616 4238 1336 4038 
Q 1056 3838 1056 3469 
Q 1056 3159 1242 3001 
Q 1428 2844 1947 2747 
L 2328 2669 
Q 3034 2534 3370 2195 
Q 3706 1856 3706 1288 
Q 3706 609 3251 259 
Q 2797 -91 1919 -91 
Q 1588 -91 1214 -16 
Q 841 59 441 206 
L 441 856 
Q 825 641 1194 531 
Q 1563 422 1919 422 
Q 2459 422 2753 634 
Q 3047 847 3047 1241 
Q 3047 1584 2836 1778 
Q 2625 1972 2144 2069 
L 1759 2144 
Q 1053 2284 737 2584 
Q 422 2884 422 3419 
Q 422 4038 858 4394 
Q 1294 4750 2059 4750 
Q 2388 4750 2728 4690 
Q 3069 4631 3425 4513 
z
" transform="scale(0.015625)"/>
      <path id="DejaVuSans-2b" d="M 628 4666 
L 1259 4666 
L 1259 2753 
L 3553 2753 
L 3553 4666 
L 4184 4666 
L 4184 0 
L 3553 0 
L 3553 2222 
L 1259 2222 
L 1259 0 
L 628 0 
L 628 4666 
z
" transform="scale(0.015625)"/>
      <path id="DejaVuSans-52" d="M 1959 3097 
Q 1497 3097 1228 2736 
Q 959 2375 959 1747 
Q 959 1119 1226 758 
Q 1494 397 1959 397 
Q 2419 397 2687 759 
Q 2956 1122 2956 1747 
Q 2956 2369 2687 2733 
Q 2419 3097 1959 3097 
z
M 1959 3584 
Q 2709 3584 3137 3096 
Q 3566 2609 3566 1747 
Q 3566 888 3137 398 
Q 2709 -91 1959 -91 
Q 1206 -91 779 398 
Q 353 888 353 1747 
Q 353 2609 779 3096 
Q 1206 3584 1959 3584 
z
" transform="scale(0.015625)"/>
      <path id="DejaVuSans-5c" d="M 2059 -325 
Q 1816 -950 1584 -1140 
Q 1353 -1331 966 -1331 
L 506 -1331 
L 506 -850 
L 844 -850 
Q 1081 -850 1212 -737 
Q 1344 -625 1503 -206 
L 1606 56 
L 191 3500 
L 800 3500 
L 1894 763 
L 2988 3500 
L 3597 3500 
L 2059 -325 
z
" transform="scale(0.015625)"/>
     </defs>
     <use xlink:href="#DejaVuSans-29"/>
     <use xlink:href="#DejaVuSans-4c" transform="translate(50.234375 0)"/>
     <use xlink:href="#DejaVuSans-55" transform="translate(78.015625 0)"/>
     <use xlink:href="#DejaVuSans-56" transform="translate(119.125 0)"/>
     <use xlink:href="#DejaVuSans-57" transform="translate(171.21875 0)"/>
     <use xlink:href="#DejaVuSans-28" transform="translate(210.421875 0)"/>
     <use xlink:href="#DejaVuSans-59" transform="translate(273.609375 0)"/>
     <use xlink:href="#DejaVuSans-48" transform="translate(332.796875 0)"/>
     <use xlink:href="#DejaVuSans-55" transform="translate(394.328125 0)"/>
     <use xlink:href="#DejaVuSans-37" transform="translate(435.4375 0)"/>
     <use xlink:href="#DejaVuSans-48" transform="translate(479.53125 0)"/>
     <use xlink:href="#DejaVuSans-46" transform="translate(541.0625 0)"/>
     <use xlink:href="#DejaVuSans-4b" transform="translate(596.046875 0)"/>
     <use xlink:href="#DejaVuSans-3" transform="translate(659.421875 0)"/>
     <use xlink:href="#DejaVuSans-12" transform="translate(691.203125 0)"/>
     <use xlink:href="#DejaVuSans-3" transform="translate(724.890625 0)"/>
     <use xlink:href="#DejaVuSans-38" transform="translate(756.671875 0)"/>
     <use xlink:href="#DejaVuSans-51" transform="translate(829.859375 0)"/>
     <use xlink:href="#DejaVuSans-4c" transform="translate(893.234375 0)"/>
     <use xlink:href="#DejaVuSans-59" transform="translate(921.015625 0)"/>
     <use xlink:href="#DejaVuSans-48" transform="translate(980.203125 0)"/>
     <use xlink:href="#DejaVuSans-55" transform="translate(1041.734375 0)"/>
     <use xlink:href="#DejaVuSans-56" transform="translate(1082.84375 0)"/>
     <use xlink:href="#DejaVuSans-44" transform="translate(1134.9375 0)"/>
     <use xlink:href="#DejaVuSans-4f" transform="translate(1196.21875 0)"/>
     <use xlink:href="#DejaVuSans-10" transform="translate(1224 0)"/>
     <use xlink:href="#DejaVuSans-2c" transform="translate(1260.078125 0)"/>
     <use xlink:href="#DejaVuSans-51" transform="translate(1289.578125 0)"/>
     <use xlink:href="#DejaVuSans-57" transform="translate(1352.953125 0)"/>
     <use xlink:href="#DejaVuSans-48" transform="translate(1392.15625 0)"/>
     <use xlink:href="#DejaVuSans-4f" transform="translate(1453.6875 0)"/>
     <use xlink:href="#DejaVuSans-10" transform="translate(1481.46875 0)"/>
     <use xlink:href="#DejaVuSans-26" transform="translate(1517.546875 0)"/>
     <use xlink:href="#DejaVuSans-4b" transform="translate(1587.375 0)"/>
     <use xlink:href="#DejaVuSans-4c" transform="translate(1650.75 0)"/>
     <use xlink:href="#DejaVuSans-53" transform="translate(1678.53125 0)"/>
     <use xlink:href="#DejaVuSans-56" transform="translate(1742.015625 0)"/>
     <use xlink:href="#DejaVuSans-48" transform="translate(1794.109375 0)"/>
     <use xlink:href="#DejaVuSans-57" transform="translate(1855.640625 0)"/>
     <use xlink:href="#DejaVuSans-10" transform="translate(1894.84375 0)"/>
     <use xlink:href="#DejaVuSans-38" transform="translate(1930.921875 0)"/>
     <use xlink:href="#DejaVuSans-53" transform="translate(2004.109375 0)"/>
     <use xlink:href="#DejaVuSans-47" transform="translate(2067.59375 0)"/>
     <use xlink:href="#DejaVuSans-44" transform="translate(2131.078125 0)"/>
     <use xlink:href="#DejaVuSans-57" transform="translate(2192.359375 0)"/>
     <use xlink:href="#DejaVuSans-48" transform="translate(2231.5625 0)"/>
     <use xlink:href="#DejaVuSans-55" transform="translate(2293.09375 0)"/>
     <use xlink:href="#DejaVuSans-3" transform="translate(2334.203125 0)"/>
     <use xlink:href="#DejaVuSans-79" transform="translate(2365.984375 0)"/>
     <use xlink:href="#DejaVuSans-3" transform="translate(2397.765625 0)"/>
     <use xlink:href="#DejaVuSans-36" transform="translate(2429.546875 0)"/>
     <use xlink:href="#DejaVuSans-57" transform="translate(2493.03125 0)"/>
     <use xlink:href="#DejaVuSans-44" transform="translate(2532.234375 0)"/>
     <use xlink:href="#DejaVuSans-55" transform="translate(2593.515625 0)"/>
     <use xlink:href="#DejaVuSans-56" transform="translate(2634.625 0)"/>
     <use xlink:href="#DejaVuSans-3" transform="translate(2686.71875 0)"/>
     <use xlink:href="#DejaVuSans-2b" transform="translate(2718.5 0)"/>
     <use xlink:href="#DejaVuSans-4c" transform="translate(2793.703125 0)"/>
     <use xlink:href="#DejaVuSans-56" transform="translate(2821.484375 0)"/>
     <use xlink:href="#DejaVuSans-57" transform="translate(2873.578125 0)"/>
     <use xlink:href="#DejaVuSans-52" transform="translate(2912.78125 0)"/>
     <use xlink:href="#DejaVuSans-55" transform="translate(2973.96875 0)"/>
     <use xlink:href="#DejaVuSans-5c" transform="translate(3015.078125 0)"/>
    </g>
   </g>
   <g id="PathCollection_1">
    <defs>
     <path id="m6291a410f8" d="M 0 2.738613 
C 0.726289 2.738613 1.422928 2.450055 1.936492 1.936492 
C 2.450055 1.422928 2.738613 0.726289 2.738613 0 
C 2.738613 -0.726289 2.450055 -1.422928 1.936492 -1.936492 
C 1.422928 -2.450055 0.726289 -2.738613 0 -2.738613 
C -0.726289 -2.738613 -1.422928 -2.450055 -1.936492 -1.936492 
C -2.450055 -1.422928 -2.738613 -0.726289 -2.738613 0 
C -2.738613 0.726289 -2.450055 1.422928 -1.936492 1.936492 
C -1.422928 2.450055 -0.726289 2.738613 0 2.738613 
z
"/>
    </defs>
    <g clip-path="url(#paa7fbb5fc1)">
     <use xlink:href="#m6291a410f8" x="53.70756" y="194.572387" style="fill: #58a6ff"/>
     <use xlink:href="#m6291a410f8" x="75.20115" y="180.450193" style="fill: #58a6ff"/>
     <use xlink:href="#m6291a410f8" x="96.69474" y="179.027347" style="fill: #58a6ff"/>
     <use xlink:href="#m6291a410f8" x="118.188329" y="174.697022" style="fill: #58a6ff"/>
     <use xlink:href="#m6291a410f8" x="139.681919" y="172.996054" style="fill: #58a6ff"/>
     <use xlink:href="#m6291a410f8" x="161.175509" y="172.149818" style="fill: #58a6ff"/>
     <use xlink:href="#m6291a410f8" x="182.669099" y="153.270754" style="fill: #58a6ff"/>
     <use xlink:href="#m6291a410f8" x="204.162688" y="144.849923" style="fill: #58a6ff"/>
     <use xlink:href="#m6291a410f8" x="225.656278" y="141.734581" style="fill: #58a6ff"/>
     <use xlink:href="#m6291a410f8" x="247.149868" y="140.722919" style="fill: #58a6ff"/>
     <use xlink:href="#m6291a410f8" x="268.643458" y="137.821124" style="fill: #58a6ff"/>
     <use xlink:href="#m6291a410f8" x="290.137047" y="132.683631" style="fill: #58a6ff"/>
     <use xlink:href="#m6291a410f8" x="311.630637" y="123.089442" style="fill: #58a6ff"/>
     <use xlink:href="#m6291a410f8" x="333.124227" y="118.209649" style="fill: #58a6ff"/>
     <use xlink:href="#m6291a410f8" x="354.617817" y="99.388156" style="fill: #58a6ff"/>
     <use xlink:href="#m6291a410f8" x="376.111406" y="92.60181" style="fill: #58a6ff"/>
     <use xlink:href="#m6291a410f8" x="397.604996" y="90.0535" style="fill: #58a6ff"/>
     <use xlink:href="#m6291a410f8" x="419.098586" y="88.81641" style="fill: #58a6ff"/>
     <use xlink:href="#m6291a410f8" x="440.592175" y="85.42935" style="fill: #58a6ff"/>
     <use xlink:href="#m6291a410f8" x="462.085765" y="80.763274" style="fill: #58a6ff"/>
     <use xlink:href="#m6291a410f8" x="483.579355" y="76.153933" style="fill: #58a6ff"/>
     <use xlink:href="#m6291a410f8" x="505.072945" y="73.089654" style="fill: #58a6ff"/>
     <use xlink:href="#m6291a410f8" x="526.566534" y="71.212538" style="fill: #58a6ff"/>
     <use xlink:href="#m6291a410f8" x="548.060124" y="69.480807" style="fill: #58a6ff"/>
     <use xlink:href="#m6291a410f8" x="569.553714" y="62.748669" style="fill: #58a6ff"/>
     <use xlink:href="#m6291a410f8" x="591.047304" y="58.563402" style="fill: #58a6ff"/>
     <use xlink:href="#m6291a410f8" x="612.540893" y="53.163632" style="fill: #58a6ff"/>
     <use xlink:href="#m6291a410f8" x="634.034483" y="45.828653" style="fill: #58a6ff"/>
     <use xlink:href="#m6291a410f8" x="655.528073" y="43.097438" style="fill: #58a6ff"/>
     <use xlink:href="#m6291a410f8" x="677.021663" y="41.392191" style="fill: #58a6ff"/>
     <use xlink:href="#m6291a410f8" x="698.515252" y="36.168979" style="fill: #58a6ff"/>
    </g>
   </g>
  </g>
 </g>
 <defs>
  <clipPath id="paa7fbb5fc1">
   <rect x="40.811406" y="24.798438" width="670.6" height="170.558125"/>
  </clipPath>
 </defs>
</svg>
