<?xml version="1.0" encoding="utf-8" standalone="no"?>
<!DOCTYPE svg PUBLIC "-//W3C//DTD SVG 1.1//EN"
  "http://www.w3.org/Graphics/SVG/1.1/DTD/svg11.dtd">
<svg xmlns:xlink="http://www.w3.org/1999/xlink" width="718.611406pt" height="228.557734pt" viewBox="0 0 718.611406 228.557734" xmlns="http://www.w3.org/2000/svg" version="1.1">
 <metadata>
  <rdf:RDF xmlns:dc="http://purl.org/dc/elements/1.1/" xmlns:cc="http://creativecommons.org/ns#" xmlns:rdf="http://www.w3.org/1999/02/22-rdf-syntax-ns#">
   <cc:Work>
    <dc:type rdf:resource="http://purl.org/dc/dcmitype/StillImage"/>
    <dc:date>2026-07-14T15:33:52.860407</dc:date>
    <dc:format>image/svg+xml</dc:format>
    <dc:creator>
     <cc:Agent>
      <dc:title>Matplotlib v3.11.0, https://matplotlib.org/</dc:title>
     </cc:Agent>
    </dc:creator>
   </cc:Work>
  </rdf:RDF>
 </metadata>
 <defs>
  <style type="text/css">*{stroke-linejoin: round; stroke-linecap: butt}</style>
 </defs>
 <g id="figure_1">
  <g id="patch_1">
   <path d="M 0 228.557734 
L 718.611406 228.557734 
L 718.611406 0 
L 0 0 
L 0 228.557734 
z
" style="fill: none"/>
  </g>
  <g id="axes_1">
   <g id="patch_2">
    <path d="M 40.811406 195.356563 
L 711.411406 195.356563 
L 711.411406 24.798438 
L 40.811406 24.798438 
L 40.811406 195.356563 
z
" style="fill: none"/>
   </g>
   <g id="matplotlib.axis_1">
    <g id="xtick_1">
     <g id="line2d_1">
      <path d="M 90.225007 195.356563 
L 90.225007 24.798438 
" clip-path="url(#p98edec7583)" style="fill: none; stroke-dasharray: 0.7,1.155; stroke-dashoffset: 0; stroke: #283d58; stroke-width: 0.7"/>
     </g>
     <g id="line2d_2">
      <defs>
       <path id="m0148707257" d="M 0 0 
L 0 3.5 
" style="stroke: #58a6ff; stroke-width: 0.8"/>
      </defs>
      <g>
       <use xlink:href="#m0148707257" x="90.225007" y="195.356563" style="fill: #58a6ff; stroke: #58a6ff; stroke-width: 0.8"/>
      </g>
     </g>
     <g id="text_1">
      <!-- Dec '25 -->
      <g style="fill: #58a6ff" transform="translate(75.710397 207.674922) scale(0.07 -0.07)">
       <defs>
        <path id="DejaVuSans-Bold-27" d="M 1791 3756 
L 1791 909 
L 2222 909 
Q 2959 909 3348 1275 
Q 3738 1641 3738 2338 
Q 3738 3031 3350 3393 
Q 2963 3756 2222 3756 
L 1791 3756 
z
M 588 4666 
L 1856 4666 
Q 2919 4666 3439 4514 
Q 3959 4363 4331 4000 
Q 4659 3684 4818 3271 
Q 4978 2859 4978 2338 
Q 4978 1809 4818 1395 
Q 4659 981 4331 666 
Q 3956 303 3431 151 
Q 2906 0 1856 0 
L 588 0 
L 588 4666 
z
" transform="scale(0.015625)"/>
        <path id="DejaVuSans-Bold-48" d="M 4031 1759 
L 4031 1441 
L 1416 1441 
Q 1456 1047 1700 850 
Q 1944 653 2381 653 
Q 2734 653 3104 758 
Q 3475 863 3866 1075 
L 3866 213 
Q 3469 63 3072 -14 
Q 2675 -91 2278 -91 
Q 1328 -91 801 392 
Q 275 875 275 1747 
Q 275 2603 792 3093 
Q 1309 3584 2216 3584 
Q 3041 3584 3536 3087 
Q 4031 2591 4031 1759 
z
M 2881 2131 
Q 2881 2450 2695 2645 
Q 2509 2841 2209 2841 
Q 1884 2841 1681 2658 
Q 1478 2475 1428 2131 
L 2881 2131 
z
" transform="scale(0.015625)"/>
        <path id="DejaVuSans-Bold-46" d="M 3366 3391 
L 3366 2478 
Q 3138 2634 2908 2709 
Q 2678 2784 2431 2784 
Q 1963 2784 1702 2511 
Q 1441 2238 1441 1747 
Q 1441 1256 1702 982 
Q 1963 709 2431 709 
Q 2694 709 2930 787 
Q 3166 866 3366 1019 
L 3366 103 
Q 3103 6 2833 -42 
Q 2563 -91 2291 -91 
Q 1344 -91 809 395 
Q 275 881 275 1747 
Q 275 2613 809 3098 
Q 1344 3584 2291 3584 
Q 2566 3584 2833 3536 
Q 3100 3488 3366 3391 
z
" transform="scale(0.015625)"/>
        <path id="DejaVuSans-Bold-3" transform="scale(0.015625)"/>
        <path id="DejaVuSans-Bold-a" d="M 1350 4666 
L 1350 2931 
L 609 2931 
L 609 4666 
L 1350 4666 
z
" transform="scale(0.015625)"/>
        <path id="DejaVuSans-Bold-15" d="M 1844 884 
L 3897 884 
L 3897 0 
L 506 0 
L 506 884 
L 2209 2388 
Q 2438 2594 2547 2791 
Q 2656 2988 2656 3200 
Q 2656 3528 2436 3728 
Q 2216 3928 1850 3928 
Q 1569 3928 1234 3808 
Q 900 3688 519 3450 
L 519 4475 
Q 925 4609 1322 4679 
Q 1719 4750 2100 4750 
Q 2938 4750 3402 4381 
Q 3866 4013 3866 3353 
Q 3866 2972 3669 2642 
Q 3472 2313 2841 1759 
L 1844 884 
z
" transform="scale(0.015625)"/>
        <path id="DejaVuSans-Bold-18" d="M 678 4666 
L 3669 4666 
L 3669 3781 
L 1638 3781 
L 1638 3059 
Q 1775 3097 1914 3117 
Q 2053 3138 2203 3138 
Q 3056 3138 3531 2711 
Q 4006 2284 4006 1522 
Q 4006 766 3489 337 
Q 2972 -91 2053 -91 
Q 1656 -91 1267 -14 
Q 878 63 494 219 
L 494 1166 
Q 875 947 1217 837 
Q 1559 728 1863 728 
Q 2300 728 2551 942 
Q 2803 1156 2803 1522 
Q 2803 1891 2551 2103 
Q 2300 2316 1863 2316 
Q 1603 2316 1309 2248 
Q 1016 2181 678 2041 
L 678 4666 
z
" transform="scale(0.015625)"/>
       </defs>
       <use xlink:href="#DejaVuSans-Bold-27"/>
       <use xlink:href="#DejaVuSans-Bold-48" transform="translate(83.015625 0)"/>
       <use xlink:href="#DejaVuSans-Bold-46" transform="translate(150.84375 0)"/>
       <use xlink:href="#DejaVuSans-Bold-3" transform="translate(210.125 0)"/>
       <use xlink:href="#DejaVuSans-Bold-a" transform="translate(244.9375 0)"/>
       <use xlink:href="#DejaVuSans-Bold-15" transform="translate(275.546875 0)"/>
       <use xlink:href="#DejaVuSans-Bold-18" transform="translate(345.125 0)"/>
      </g>
     </g>
    </g>
    <g id="xtick_2">
     <g id="line2d_3">
      <path d="M 173.793013 195.356563 
L 173.793013 24.798438 
" clip-path="url(#p98edec7583)" style="fill: none; stroke-dasharray: 0.7,1.155; stroke-dashoffset: 0; stroke: #283d58; stroke-width: 0.7"/>
     </g>
     <g id="line2d_4">
      <g>
       <use xlink:href="#m0148707257" x="173.793013" y="195.356563" style="fill: #58a6ff; stroke: #58a6ff; stroke-width: 0.8"/>
      </g>
     </g>
     <g id="text_2">
      <!-- Jan '26 -->
      <g style="fill: #58a6ff" transform="translate(160.477154 207.674922) scale(0.07 -0.07)">
       <defs>
        <path id="DejaVuSans-Bold-2d" d="M 588 4666 
L 1791 4666 
L 1791 453 
Q 1791 -419 1317 -850 
Q 844 -1281 -116 -1281 
L -359 -1281 
L -359 -372 
L -172 -372 
Q 203 -372 395 -162 
Q 588 47 588 453 
L 588 4666 
z
" transform="scale(0.015625)"/>
        <path id="DejaVuSans-Bold-44" d="M 2106 1575 
Q 1756 1575 1579 1456 
Q 1403 1338 1403 1106 
Q 1403 894 1545 773 
Q 1688 653 1941 653 
Q 2256 653 2472 879 
Q 2688 1106 2688 1447 
L 2688 1575 
L 2106 1575 
z
M 3816 1997 
L 3816 0 
L 2688 0 
L 2688 519 
Q 2463 200 2181 54 
Q 1900 -91 1497 -91 
Q 953 -91 614 226 
Q 275 544 275 1050 
Q 275 1666 698 1953 
Q 1122 2241 2028 2241 
L 2688 2241 
L 2688 2328 
Q 2688 2594 2478 2717 
Q 2269 2841 1825 2841 
Q 1466 2841 1156 2769 
Q 847 2697 581 2553 
L 581 3406 
Q 941 3494 1303 3539 
Q 1666 3584 2028 3584 
Q 2975 3584 3395 3211 
Q 3816 2838 3816 1997 
z
" transform="scale(0.015625)"/>
        <path id="DejaVuSans-Bold-51" d="M 4056 2131 
L 4056 0 
L 2931 0 
L 2931 347 
L 2931 1631 
Q 2931 2084 2911 2256 
Q 2891 2428 2841 2509 
Q 2775 2619 2662 2680 
Q 2550 2741 2406 2741 
Q 2056 2741 1856 2470 
Q 1656 2200 1656 1722 
L 1656 0 
L 538 0 
L 538 3500 
L 1656 3500 
L 1656 2988 
Q 1909 3294 2193 3439 
Q 2478 3584 2822 3584 
Q 3428 3584 3742 3212 
Q 4056 2841 4056 2131 
z
" transform="scale(0.015625)"/>
        <path id="DejaVuSans-Bold-19" d="M 2316 2303 
Q 2000 2303 1842 2098 
Q 1684 1894 1684 1484 
Q 1684 1075 1842 870 
Q 2000 666 2316 666 
Q 2634 666 2792 870 
Q 2950 1075 2950 1484 
Q 2950 1894 2792 2098 
Q 2634 2303 2316 2303 
z
M 3803 4544 
L 3803 3681 
Q 3506 3822 3243 3889 
Q 2981 3956 2731 3956 
Q 2194 3956 1894 3657 
Q 1594 3359 1544 2772 
Q 1750 2925 1990 3001 
Q 2231 3078 2516 3078 
Q 3231 3078 3670 2659 
Q 4109 2241 4109 1563 
Q 4109 813 3618 361 
Q 3128 -91 2303 -91 
Q 1394 -91 895 523 
Q 397 1138 397 2266 
Q 397 3422 980 4083 
Q 1563 4744 2578 4744 
Q 2900 4744 3203 4694 
Q 3506 4644 3803 4544 
z
" transform="scale(0.015625)"/>
       </defs>
       <use xlink:href="#DejaVuSans-Bold-2d"/>
       <use xlink:href="#DejaVuSans-Bold-44" transform="translate(37.203125 0)"/>
       <use xlink:href="#DejaVuSans-Bold-51" transform="translate(104.6875 0)"/>
       <use xlink:href="#DejaVuSans-Bold-3" transform="translate(175.875 0)"/>
       <use xlink:href="#DejaVuSans-Bold-a" transform="translate(210.6875 0)"/>
       <use xlink:href="#DejaVuSans-Bold-15" transform="translate(241.296875 0)"/>
       <use xlink:href="#DejaVuSans-Bold-19" transform="translate(310.875 0)"/>
      </g>
     </g>
    </g>
    <g id="xtick_3">
     <g id="line2d_5">
      <path d="M 257.36102 195.356563 
L 257.36102 24.798438 
" clip-path="url(#p98edec7583)" style="fill: none; stroke-dasharray: 0.7,1.155; stroke-dashoffset: 0; stroke: #283d58; stroke-width: 0.7"/>
     </g>
     <g id="line2d_6">
      <g>
       <use xlink:href="#m0148707257" x="257.36102" y="195.356563" style="fill: #58a6ff; stroke: #58a6ff; stroke-width: 0.8"/>
      </g>
     </g>
     <g id="text_3">
      <!-- Feb '26 -->
      <g style="fill: #58a6ff" transform="translate(243.07227 207.675469) scale(0.07 -0.07)">
       <defs>
        <path id="DejaVuSans-Bold-29" d="M 588 4666 
L 3834 4666 
L 3834 3756 
L 1791 3756 
L 1791 2888 
L 3713 2888 
L 3713 1978 
L 1791 1978 
L 1791 0 
L 588 0 
L 588 4666 
z
" transform="scale(0.015625)"/>
        <path id="DejaVuSans-Bold-45" d="M 2400 722 
Q 2759 722 2948 984 
Q 3138 1247 3138 1747 
Q 3138 2247 2948 2509 
Q 2759 2772 2400 2772 
Q 2041 2772 1848 2508 
Q 1656 2244 1656 1747 
Q 1656 1250 1848 986 
Q 2041 722 2400 722 
z
M 1656 2988 
Q 1888 3294 2169 3439 
Q 2450 3584 2816 3584 
Q 3463 3584 3878 3070 
Q 4294 2556 4294 1747 
Q 4294 938 3878 423 
Q 3463 -91 2816 -91 
Q 2450 -91 2169 54 
Q 1888 200 1656 506 
L 1656 0 
L 538 0 
L 538 4863 
L 1656 4863 
L 1656 2988 
z
" transform="scale(0.015625)"/>
       </defs>
       <use xlink:href="#DejaVuSans-Bold-29"/>
       <use xlink:href="#DejaVuSans-Bold-48" transform="translate(64.265625 0)"/>
       <use xlink:href="#DejaVuSans-Bold-45" transform="translate(132.09375 0)"/>
       <use xlink:href="#DejaVuSans-Bold-3" transform="translate(203.671875 0)"/>
       <use xlink:href="#DejaVuSans-Bold-a" transform="translate(238.484375 0)"/>
       <use xlink:href="#DejaVuSans-Bold-15" transform="translate(269.09375 0)"/>
       <use xlink:href="#DejaVuSans-Bold-19" transform="translate(338.671875 0)"/>
      </g>
     </g>
    </g>
    <g id="xtick_4">
     <g id="line2d_7">
      <path d="M 332.8418 195.356563 
L 332.8418 24.798438 
" clip-path="url(#p98edec7583)" style="fill: none; stroke-dasharray: 0.7,1.155; stroke-dashoffset: 0; stroke: #283d58; stroke-width: 0.7"/>
     </g>
     <g id="line2d_8">
      <g>
       <use xlink:href="#m0148707257" x="332.8418" y="195.356563" style="fill: #58a6ff; stroke: #58a6ff; stroke-width: 0.8"/>
      </g>
     </g>
     <g id="text_4">
      <!-- Mar '26 -->
      <g style="fill: #58a6ff" transform="translate(318.110628 207.674922) scale(0.07 -0.07)">
       <defs>
        <path id="DejaVuSans-Bold-30" d="M 588 4666 
L 2119 4666 
L 3181 2169 
L 4250 4666 
L 5778 4666 
L 5778 0 
L 4641 0 
L 4641 3413 
L 3566 897 
L 2803 897 
L 1728 3413 
L 1728 0 
L 588 0 
L 588 4666 
z
" transform="scale(0.015625)"/>
        <path id="DejaVuSans-Bold-55" d="M 3138 2547 
Q 2991 2616 2845 2648 
Q 2700 2681 2553 2681 
Q 2122 2681 1889 2404 
Q 1656 2128 1656 1613 
L 1656 0 
L 538 0 
L 538 3500 
L 1656 3500 
L 1656 2925 
Q 1872 3269 2151 3426 
Q 2431 3584 2822 3584 
Q 2878 3584 2943 3579 
Q 3009 3575 3134 3559 
L 3138 2547 
z
" transform="scale(0.015625)"/>
       </defs>
       <use xlink:href="#DejaVuSans-Bold-30"/>
       <use xlink:href="#DejaVuSans-Bold-44" transform="translate(99.515625 0)"/>
       <use xlink:href="#DejaVuSans-Bold-55" transform="translate(167 0)"/>
       <use xlink:href="#DejaVuSans-Bold-3" transform="translate(216.3125 0)"/>
       <use xlink:href="#DejaVuSans-Bold-a" transform="translate(251.125 0)"/>
       <use xlink:href="#DejaVuSans-Bold-15" transform="translate(281.734375 0)"/>
       <use xlink:href="#DejaVuSans-Bold-19" transform="translate(351.3125 0)"/>
      </g>
     </g>
    </g>
    <g id="xtick_5">
     <g id="line2d_9">
      <path d="M 416.409807 195.356563 
L 416.409807 24.798438 
" clip-path="url(#p98edec7583)" style="fill: none; stroke-dasharray: 0.7,1.155; stroke-dashoffset: 0; stroke: #283d58; stroke-width: 0.7"/>
     </g>
     <g id="line2d_10">
      <g>
       <use xlink:href="#m0148707257" x="416.409807" y="195.356563" style="fill: #58a6ff; stroke: #58a6ff; stroke-width: 0.8"/>
      </g>
     </g>
     <g id="text_5">
      <!-- Apr '26 -->
      <g style="fill: #58a6ff" transform="translate(402.309729 207.674922) scale(0.07 -0.07)">
       <defs>
        <path id="DejaVuSans-Bold-24" d="M 3419 850 
L 1538 850 
L 1241 0 
L 31 0 
L 1759 4666 
L 3194 4666 
L 4922 0 
L 3713 0 
L 3419 850 
z
M 1838 1716 
L 3116 1716 
L 2478 3572 
L 1838 1716 
z
" transform="scale(0.015625)"/>
        <path id="DejaVuSans-Bold-53" d="M 1656 506 
L 1656 -1331 
L 538 -1331 
L 538 3500 
L 1656 3500 
L 1656 2988 
Q 1888 3294 2169 3439 
Q 2450 3584 2816 3584 
Q 3463 3584 3878 3070 
Q 4294 2556 4294 1747 
Q 4294 938 3878 423 
Q 3463 -91 2816 -91 
Q 2450 -91 2169 54 
Q 1888 200 1656 506 
z
M 2400 2772 
Q 2041 2772 1848 2508 
Q 1656 2244 1656 1747 
Q 1656 1250 1848 986 
Q 2041 722 2400 722 
Q 2759 722 2948 984 
Q 3138 1247 3138 1747 
Q 3138 2247 2948 2509 
Q 2759 2772 2400 2772 
z
" transform="scale(0.015625)"/>
       </defs>
       <use xlink:href="#DejaVuSans-Bold-24"/>
       <use xlink:href="#DejaVuSans-Bold-53" transform="translate(77.390625 0)"/>
       <use xlink:href="#DejaVuSans-Bold-55" transform="translate(148.96875 0)"/>
       <use xlink:href="#DejaVuSans-Bold-3" transform="translate(198.28125 0)"/>
       <use xlink:href="#DejaVuSans-Bold-a" transform="translate(233.09375 0)"/>
       <use xlink:href="#DejaVuSans-Bold-15" transform="translate(263.703125 0)"/>
       <use xlink:href="#DejaVuSans-Bold-19" transform="translate(333.28125 0)"/>
      </g>
     </g>
    </g>
    <g id="xtick_6">
     <g id="line2d_11">
      <path d="M 497.282071 195.356563 
L 497.282071 24.798438 
" clip-path="url(#p98edec7583)" style="fill: none; stroke-dasharray: 0.7,1.155; stroke-dashoffset: 0; stroke: #283d58; stroke-width: 0.7"/>
     </g>
     <g id="line2d_12">
      <g>
       <use xlink:href="#m0148707257" x="497.282071" y="195.356563" style="fill: #58a6ff; stroke: #58a6ff; stroke-width: 0.8"/>
      </g>
     </g>
     <g id="text_6">
      <!-- May '26 -->
      <g style="fill: #58a6ff" transform="translate(482.103009 207.674922) scale(0.07 -0.07)">
       <defs>
        <path id="DejaVuSans-Bold-5c" d="M 78 3500 
L 1197 3500 
L 2138 1125 
L 2938 3500 
L 4056 3500 
L 2584 -331 
Q 2363 -916 2067 -1148 
Q 1772 -1381 1288 -1381 
L 641 -1381 
L 641 -647 
L 991 -647 
Q 1275 -647 1404 -556 
Q 1534 -466 1606 -231 
L 1638 -134 
L 78 3500 
z
" transform="scale(0.015625)"/>
       </defs>
       <use xlink:href="#DejaVuSans-Bold-30"/>
       <use xlink:href="#DejaVuSans-Bold-44" transform="translate(99.515625 0)"/>
       <use xlink:href="#DejaVuSans-Bold-5c" transform="translate(163.921875 0)"/>
       <use xlink:href="#DejaVuSans-Bold-3" transform="translate(229.109375 0)"/>
       <use xlink:href="#DejaVuSans-Bold-a" transform="translate(263.921875 0)"/>
       <use xlink:href="#DejaVuSans-Bold-15" transform="translate(294.53125 0)"/>
       <use xlink:href="#DejaVuSans-Bold-19" transform="translate(364.109375 0)"/>
      </g>
     </g>
    </g>
    <g id="xtick_7">
     <g id="line2d_13">
      <path d="M 580.850078 195.356563 
L 580.850078 24.798438 
" clip-path="url(#p98edec7583)" style="fill: none; stroke-dasharray: 0.7,1.155; stroke-dashoffset: 0; stroke: #283d58; stroke-width: 0.7"/>
     </g>
     <g id="line2d_14">
      <g>
       <use xlink:href="#m0148707257" x="580.850078" y="195.356563" style="fill: #58a6ff; stroke: #58a6ff; stroke-width: 0.8"/>
      </g>
     </g>
     <g id="text_7">
      <!-- Jun '26 -->
      <g style="fill: #58a6ff" transform="translate(567.404609 207.674922) scale(0.07 -0.07)">
       <defs>
        <path id="DejaVuSans-Bold-58" d="M 500 1363 
L 500 3500 
L 1625 3500 
L 1625 3150 
Q 1625 2866 1622 2436 
Q 1619 2006 1619 1863 
Q 1619 1441 1641 1255 
Q 1663 1069 1716 984 
Q 1784 875 1895 815 
Q 2006 756 2150 756 
Q 2500 756 2700 1025 
Q 2900 1294 2900 1772 
L 2900 3500 
L 4019 3500 
L 4019 0 
L 2900 0 
L 2900 506 
Q 2647 200 2364 54 
Q 2081 -91 1741 -91 
Q 1134 -91 817 281 
Q 500 653 500 1363 
z
" transform="scale(0.015625)"/>
       </defs>
       <use xlink:href="#DejaVuSans-Bold-2d"/>
       <use xlink:href="#DejaVuSans-Bold-58" transform="translate(37.203125 0)"/>
       <use xlink:href="#DejaVuSans-Bold-51" transform="translate(108.390625 0)"/>
       <use xlink:href="#DejaVuSans-Bold-3" transform="translate(179.578125 0)"/>
       <use xlink:href="#DejaVuSans-Bold-a" transform="translate(214.390625 0)"/>
       <use xlink:href="#DejaVuSans-Bold-15" transform="translate(245 0)"/>
       <use xlink:href="#DejaVuSans-Bold-19" transform="translate(314.578125 0)"/>
      </g>
     </g>
    </g>
    <g id="xtick_8">
     <g id="line2d_15">
      <path d="M 661.722342 195.356563 
L 661.722342 24.798438 
" clip-path="url(#p98edec7583)" style="fill: none; stroke-dasharray: 0.7,1.155; stroke-dashoffset: 0; stroke: #283d58; stroke-width: 0.7"/>
     </g>
     <g id="line2d_16">
      <g>
       <use xlink:href="#m0148707257" x="661.722342" y="195.356563" style="fill: #58a6ff; stroke: #58a6ff; stroke-width: 0.8"/>
      </g>
     </g>
     <g id="text_8">
      <!-- Jul '26 -->
      <g style="fill: #58a6ff" transform="translate(649.568592 207.675469) scale(0.07 -0.07)">
       <defs>
        <path id="DejaVuSans-Bold-4f" d="M 538 4863 
L 1656 4863 
L 1656 0 
L 538 0 
L 538 4863 
z
" transform="scale(0.015625)"/>
       </defs>
       <use xlink:href="#DejaVuSans-Bold-2d"/>
       <use xlink:href="#DejaVuSans-Bold-58" transform="translate(37.203125 0)"/>
       <use xlink:href="#DejaVuSans-Bold-4f" transform="translate(108.390625 0)"/>
       <use xlink:href="#DejaVuSans-Bold-3" transform="translate(142.671875 0)"/>
       <use xlink:href="#DejaVuSans-Bold-a" transform="translate(177.484375 0)"/>
       <use xlink:href="#DejaVuSans-Bold-15" transform="translate(208.09375 0)"/>
       <use xlink:href="#DejaVuSans-Bold-19" transform="translate(277.671875 0)"/>
      </g>
     </g>
    </g>
    <g id="text_9">
     <!-- Month -->
     <g style="fill: #58a6ff" transform="translate(361.775781 219.435859) scale(0.08 -0.08)">
      <defs>
       <path id="DejaVuSans-Bold-52" d="M 2203 2784 
Q 1831 2784 1636 2517 
Q 1441 2250 1441 1747 
Q 1441 1244 1636 976 
Q 1831 709 2203 709 
Q 2569 709 2762 976 
Q 2956 1244 2956 1747 
Q 2956 2250 2762 2517 
Q 2569 2784 2203 2784 
z
M 2203 3584 
Q 3106 3584 3614 3096 
Q 4122 2609 4122 1747 
Q 4122 884 3614 396 
Q 3106 -91 2203 -91 
Q 1297 -91 786 396 
Q 275 884 275 1747 
Q 275 2609 786 3096 
Q 1297 3584 2203 3584 
z
" transform="scale(0.015625)"/>
       <path id="DejaVuSans-Bold-57" d="M 1759 4494 
L 1759 3500 
L 2913 3500 
L 2913 2700 
L 1759 2700 
L 1759 1216 
Q 1759 972 1856 886 
Q 1953 800 2241 800 
L 2816 800 
L 2816 0 
L 1856 0 
Q 1194 0 917 276 
Q 641 553 641 1216 
L 641 2700 
L 84 2700 
L 84 3500 
L 641 3500 
L 641 4494 
L 1759 4494 
z
" transform="scale(0.015625)"/>
       <path id="DejaVuSans-Bold-4b" d="M 4056 2131 
L 4056 0 
L 2931 0 
L 2931 347 
L 2931 1625 
Q 2931 2084 2911 2256 
Q 2891 2428 2841 2509 
Q 2775 2619 2662 2680 
Q 2550 2741 2406 2741 
Q 2056 2741 1856 2470 
Q 1656 2200 1656 1722 
L 1656 0 
L 538 0 
L 538 4863 
L 1656 4863 
L 1656 2988 
Q 1909 3294 2193 3439 
Q 2478 3584 2822 3584 
Q 3428 3584 3742 3212 
Q 4056 2841 4056 2131 
z
" transform="scale(0.015625)"/>
      </defs>
      <use xlink:href="#DejaVuSans-Bold-30"/>
      <use xlink:href="#DejaVuSans-Bold-52" transform="translate(99.515625 0)"/>
      <use xlink:href="#DejaVuSans-Bold-51" transform="translate(168.21875 0)"/>
      <use xlink:href="#DejaVuSans-Bold-57" transform="translate(239.40625 0)"/>
      <use xlink:href="#DejaVuSans-Bold-4b" transform="translate(287.203125 0)"/>
     </g>
    </g>
   </g>
   <g id="matplotlib.axis_2">
    <g id="ytick_1">
     <g id="line2d_17">
      <path d="M 40.811406 195.356563 
L 711.411406 195.356563 
" clip-path="url(#p98edec7583)" style="fill: none; stroke-dasharray: 0.7,1.155; stroke-dashoffset: 0; stroke: #283d58; stroke-width: 0.7"/>
     </g>
     <g id="line2d_18">
      <defs>
       <path id="m41efe72c86" d="M 0 0 
L -3.5 0 
" style="stroke: #58a6ff; stroke-width: 0.8"/>
      </defs>
      <g>
       <use xlink:href="#m41efe72c86" x="40.811406" y="195.356563" style="fill: #58a6ff; stroke: #58a6ff; stroke-width: 0.8"/>
      </g>
     </g>
     <g id="text_10">
      <!-- 0 -->
      <g style="fill: #58a6ff" transform="translate(28.940938 198.015742) scale(0.07 -0.07)">
       <defs>
        <path id="DejaVuSans-Bold-13" d="M 2944 2338 
Q 2944 3213 2780 3570 
Q 2616 3928 2228 3928 
Q 1841 3928 1675 3570 
Q 1509 3213 1509 2338 
Q 1509 1453 1675 1090 
Q 1841 728 2228 728 
Q 2613 728 2778 1090 
Q 2944 1453 2944 2338 
z
M 4147 2328 
Q 4147 1169 3647 539 
Q 3147 -91 2228 -91 
Q 1306 -91 806 539 
Q 306 1169 306 2328 
Q 306 3491 806 4120 
Q 1306 4750 2228 4750 
Q 3147 4750 3647 4120 
Q 4147 3491 4147 2328 
z
" transform="scale(0.015625)"/>
       </defs>
       <use xlink:href="#DejaVuSans-Bold-13"/>
      </g>
     </g>
    </g>
    <g id="ytick_2">
     <g id="line2d_19">
      <path d="M 40.811406 172.615479 
L 711.411406 172.615479 
" clip-path="url(#p98edec7583)" style="fill: none; stroke-dasharray: 0.7,1.155; stroke-dashoffset: 0; stroke: #283d58; stroke-width: 0.7"/>
     </g>
     <g id="line2d_20">
      <g>
       <use xlink:href="#m41efe72c86" x="40.811406" y="172.615479" style="fill: #58a6ff; stroke: #58a6ff; stroke-width: 0.8"/>
      </g>
     </g>
     <g id="text_11">
      <!-- 30 -->
      <g style="fill: #58a6ff" transform="translate(24.070469 175.274659) scale(0.07 -0.07)">
       <defs>
        <path id="DejaVuSans-Bold-16" d="M 2981 2516 
Q 3453 2394 3698 2092 
Q 3944 1791 3944 1325 
Q 3944 631 3412 270 
Q 2881 -91 1863 -91 
Q 1503 -91 1142 -33 
Q 781 25 428 141 
L 428 1069 
Q 766 900 1098 814 
Q 1431 728 1753 728 
Q 2231 728 2486 893 
Q 2741 1059 2741 1369 
Q 2741 1688 2480 1852 
Q 2219 2016 1709 2016 
L 1228 2016 
L 1228 2791 
L 1734 2791 
Q 2188 2791 2409 2933 
Q 2631 3075 2631 3366 
Q 2631 3634 2415 3781 
Q 2200 3928 1806 3928 
Q 1516 3928 1219 3862 
Q 922 3797 628 3669 
L 628 4550 
Q 984 4650 1334 4700 
Q 1684 4750 2022 4750 
Q 2931 4750 3382 4451 
Q 3834 4153 3834 3553 
Q 3834 3144 3618 2883 
Q 3403 2622 2981 2516 
z
" transform="scale(0.015625)"/>
       </defs>
       <use xlink:href="#DejaVuSans-Bold-16"/>
       <use xlink:href="#DejaVuSans-Bold-13" transform="translate(69.578125 0)"/>
      </g>
     </g>
    </g>
    <g id="ytick_3">
     <g id="line2d_21">
      <path d="M 40.811406 149.874396 
L 711.411406 149.874396 
" clip-path="url(#p98edec7583)" style="fill: none; stroke-dasharray: 0.7,1.155; stroke-dashoffset: 0; stroke: #283d58; stroke-width: 0.7"/>
     </g>
     <g id="line2d_22">
      <g>
       <use xlink:href="#m41efe72c86" x="40.811406" y="149.874396" style="fill: #58a6ff; stroke: #58a6ff; stroke-width: 0.8"/>
      </g>
     </g>
     <g id="text_12">
      <!-- 60 -->
      <g style="fill: #58a6ff" transform="translate(24.070469 152.533576) scale(0.07 -0.07)">
       <use xlink:href="#DejaVuSans-Bold-19"/>
       <use xlink:href="#DejaVuSans-Bold-13" transform="translate(69.578125 0)"/>
      </g>
     </g>
    </g>
    <g id="ytick_4">
     <g id="line2d_23">
      <path d="M 40.811406 127.133313 
L 711.411406 127.133313 
" clip-path="url(#p98edec7583)" style="fill: none; stroke-dasharray: 0.7,1.155; stroke-dashoffset: 0; stroke: #283d58; stroke-width: 0.7"/>
     </g>
     <g id="line2d_24">
      <g>
       <use xlink:href="#m41efe72c86" x="40.811406" y="127.133313" style="fill: #58a6ff; stroke: #58a6ff; stroke-width: 0.8"/>
      </g>
     </g>
     <g id="text_13">
      <!-- 90 -->
      <g style="fill: #58a6ff" transform="translate(24.070469 129.792492) scale(0.07 -0.07)">
       <defs>
        <path id="DejaVuSans-Bold-1c" d="M 641 103 
L 641 966 
Q 928 831 1190 764 
Q 1453 697 1709 697 
Q 2247 697 2547 995 
Q 2847 1294 2900 1881 
Q 2688 1725 2447 1647 
Q 2206 1569 1925 1569 
Q 1209 1569 770 1986 
Q 331 2403 331 3084 
Q 331 3838 820 4291 
Q 1309 4744 2131 4744 
Q 3044 4744 3544 4128 
Q 4044 3513 4044 2388 
Q 4044 1231 3459 570 
Q 2875 -91 1856 -91 
Q 1528 -91 1228 -42 
Q 928 6 641 103 
z
M 2125 2350 
Q 2441 2350 2600 2554 
Q 2759 2759 2759 3169 
Q 2759 3575 2600 3781 
Q 2441 3988 2125 3988 
Q 1809 3988 1650 3781 
Q 1491 3575 1491 3169 
Q 1491 2759 1650 2554 
Q 1809 2350 2125 2350 
z
" transform="scale(0.015625)"/>
       </defs>
       <use xlink:href="#DejaVuSans-Bold-1c"/>
       <use xlink:href="#DejaVuSans-Bold-13" transform="translate(69.578125 0)"/>
      </g>
     </g>
    </g>
    <g id="ytick_5">
     <g id="line2d_25">
      <path d="M 40.811406 104.392229 
L 711.411406 104.392229 
" clip-path="url(#p98edec7583)" style="fill: none; stroke-dasharray: 0.7,1.155; stroke-dashoffset: 0; stroke: #283d58; stroke-width: 0.7"/>
     </g>
     <g id="line2d_26">
      <g>
       <use xlink:href="#m41efe72c86" x="40.811406" y="104.392229" style="fill: #58a6ff; stroke: #58a6ff; stroke-width: 0.8"/>
      </g>
     </g>
     <g id="text_14">
      <!-- 120 -->
      <g style="fill: #58a6ff" transform="translate(19.2 107.051409) scale(0.07 -0.07)">
       <defs>
        <path id="DejaVuSans-Bold-14" d="M 750 831 
L 1813 831 
L 1813 3847 
L 722 3622 
L 722 4441 
L 1806 4666 
L 2950 4666 
L 2950 831 
L 4013 831 
L 4013 0 
L 750 0 
L 750 831 
z
" transform="scale(0.015625)"/>
       </defs>
       <use xlink:href="#DejaVuSans-Bold-14"/>
       <use xlink:href="#DejaVuSans-Bold-15" transform="translate(69.578125 0)"/>
       <use xlink:href="#DejaVuSans-Bold-13" transform="translate(139.15625 0)"/>
      </g>
     </g>
    </g>
    <g id="ytick_6">
     <g id="line2d_27">
      <path d="M 40.811406 81.651146 
L 711.411406 81.651146 
" clip-path="url(#p98edec7583)" style="fill: none; stroke-dasharray: 0.7,1.155; stroke-dashoffset: 0; stroke: #283d58; stroke-width: 0.7"/>
     </g>
     <g id="line2d_28">
      <g>
       <use xlink:href="#m41efe72c86" x="40.811406" y="81.651146" style="fill: #58a6ff; stroke: #58a6ff; stroke-width: 0.8"/>
      </g>
     </g>
     <g id="text_15">
      <!-- 150 -->
      <g style="fill: #58a6ff" transform="translate(19.2 84.310326) scale(0.07 -0.07)">
       <use xlink:href="#DejaVuSans-Bold-14"/>
       <use xlink:href="#DejaVuSans-Bold-18" transform="translate(69.578125 0)"/>
       <use xlink:href="#DejaVuSans-Bold-13" transform="translate(139.15625 0)"/>
      </g>
     </g>
    </g>
    <g id="ytick_7">
     <g id="line2d_29">
      <path d="M 40.811406 58.910063 
L 711.411406 58.910063 
" clip-path="url(#p98edec7583)" style="fill: none; stroke-dasharray: 0.7,1.155; stroke-dashoffset: 0; stroke: #283d58; stroke-width: 0.7"/>
     </g>
     <g id="line2d_30">
      <g>
       <use xlink:href="#m41efe72c86" x="40.811406" y="58.910063" style="fill: #58a6ff; stroke: #58a6ff; stroke-width: 0.8"/>
      </g>
     </g>
     <g id="text_16">
      <!-- 180 -->
      <g style="fill: #58a6ff" transform="translate(19.2 61.569242) scale(0.07 -0.07)">
       <defs>
        <path id="DejaVuSans-Bold-1b" d="M 2228 2088 
Q 1891 2088 1709 1903 
Q 1528 1719 1528 1375 
Q 1528 1031 1709 848 
Q 1891 666 2228 666 
Q 2563 666 2741 848 
Q 2919 1031 2919 1375 
Q 2919 1722 2741 1905 
Q 2563 2088 2228 2088 
z
M 1350 2484 
Q 925 2613 709 2878 
Q 494 3144 494 3541 
Q 494 4131 934 4440 
Q 1375 4750 2228 4750 
Q 3075 4750 3515 4442 
Q 3956 4134 3956 3541 
Q 3956 3144 3739 2878 
Q 3522 2613 3097 2484 
Q 3572 2353 3814 2058 
Q 4056 1763 4056 1313 
Q 4056 619 3595 264 
Q 3134 -91 2228 -91 
Q 1319 -91 855 264 
Q 391 619 391 1313 
Q 391 1763 633 2058 
Q 875 2353 1350 2484 
z
M 1631 3419 
Q 1631 3141 1786 2991 
Q 1941 2841 2228 2841 
Q 2509 2841 2662 2991 
Q 2816 3141 2816 3419 
Q 2816 3697 2662 3845 
Q 2509 3994 2228 3994 
Q 1941 3994 1786 3844 
Q 1631 3694 1631 3419 
z
" transform="scale(0.015625)"/>
       </defs>
       <use xlink:href="#DejaVuSans-Bold-14"/>
       <use xlink:href="#DejaVuSans-Bold-1b" transform="translate(69.578125 0)"/>
       <use xlink:href="#DejaVuSans-Bold-13" transform="translate(139.15625 0)"/>
      </g>
     </g>
    </g>
    <g id="ytick_8">
     <g id="line2d_31">
      <path d="M 40.811406 36.168979 
L 711.411406 36.168979 
" clip-path="url(#p98edec7583)" style="fill: none; stroke-dasharray: 0.7,1.155; stroke-dashoffset: 0; stroke: #283d58; stroke-width: 0.7"/>
     </g>
     <g id="line2d_32">
      <g>
       <use xlink:href="#m41efe72c86" x="40.811406" y="36.168979" style="fill: #58a6ff; stroke: #58a6ff; stroke-width: 0.8"/>
      </g>
     </g>
     <g id="text_17">
      <!-- 210 -->
      <g style="fill: #58a6ff" transform="translate(19.2 38.828159) scale(0.07 -0.07)">
       <use xlink:href="#DejaVuSans-Bold-15"/>
       <use xlink:href="#DejaVuSans-Bold-14" transform="translate(69.578125 0)"/>
       <use xlink:href="#DejaVuSans-Bold-13" transform="translate(139.15625 0)"/>
      </g>
     </g>
    </g>
    <g id="text_18">
     <!-- Stars -->
     <g style="fill: #58a6ff" transform="translate(13.278125 121.9225) rotate(-90) scale(0.08 -0.08)">
      <defs>
       <path id="DejaVuSans-Bold-36" d="M 3834 4519 
L 3834 3531 
Q 3450 3703 3084 3790 
Q 2719 3878 2394 3878 
Q 1963 3878 1756 3759 
Q 1550 3641 1550 3391 
Q 1550 3203 1689 3098 
Q 1828 2994 2194 2919 
L 2706 2816 
Q 3484 2659 3812 2340 
Q 4141 2022 4141 1434 
Q 4141 663 3683 286 
Q 3225 -91 2284 -91 
Q 1841 -91 1394 -6 
Q 947 78 500 244 
L 500 1259 
Q 947 1022 1364 901 
Q 1781 781 2169 781 
Q 2563 781 2772 912 
Q 2981 1044 2981 1288 
Q 2981 1506 2839 1625 
Q 2697 1744 2272 1838 
L 1806 1941 
Q 1106 2091 782 2419 
Q 459 2747 459 3303 
Q 459 4000 909 4375 
Q 1359 4750 2203 4750 
Q 2588 4750 2994 4692 
Q 3400 4634 3834 4519 
z
" transform="scale(0.015625)"/>
       <path id="DejaVuSans-Bold-56" d="M 3272 3391 
L 3272 2541 
Q 2913 2691 2578 2766 
Q 2244 2841 1947 2841 
Q 1628 2841 1473 2761 
Q 1319 2681 1319 2516 
Q 1319 2381 1436 2309 
Q 1553 2238 1856 2203 
L 2053 2175 
Q 2913 2066 3209 1816 
Q 3506 1566 3506 1031 
Q 3506 472 3093 190 
Q 2681 -91 1863 -91 
Q 1516 -91 1145 -36 
Q 775 19 384 128 
L 384 978 
Q 719 816 1070 734 
Q 1422 653 1784 653 
Q 2113 653 2278 743 
Q 2444 834 2444 1013 
Q 2444 1163 2330 1236 
Q 2216 1309 1875 1350 
L 1678 1375 
Q 931 1469 631 1722 
Q 331 1975 331 2491 
Q 331 3047 712 3315 
Q 1094 3584 1881 3584 
Q 2191 3584 2531 3537 
Q 2872 3491 3272 3391 
z
" transform="scale(0.015625)"/>
      </defs>
      <use xlink:href="#DejaVuSans-Bold-36"/>
      <use xlink:href="#DejaVuSans-Bold-57" transform="translate(72.015625 0)"/>
      <use xlink:href="#DejaVuSans-Bold-44" transform="translate(119.8125 0)"/>
      <use xlink:href="#DejaVuSans-Bold-55" transform="translate(187.296875 0)"/>
      <use xlink:href="#DejaVuSans-Bold-56" transform="translate(236.609375 0)"/>
     </g>
    </g>
   </g>
   <g id="FillBetweenPolyCollection_1">
    <defs>
     <path id="m6366a8e4ea" d="M 53.70756 -33.201172 
L 53.70756 -33.959208 
L 57.907895 -34.717244 
L 58.659551 -35.47528 
L 58.802544 -36.233316 
L 59.091743 -36.991352 
L 59.123537 -37.749389 
L 60.110759 -38.507425 
L 64.122267 -39.265461 
L 68.689865 -40.023497 
L 69.352443 -40.781533 
L 69.499118 -41.539569 
L 69.574499 -42.297605 
L 69.898487 -43.055641 
L 69.92975 -43.813677 
L 70.228372 -44.571714 
L 71.471814 -45.32975 
L 72.508989 -46.087786 
L 73.76045 -46.845822 
L 74.467177 -47.603858 
L 91.095694 -48.361894 
L 96.475228 -49.11993 
L 101.887524 -49.877966 
L 107.982647 -50.636002 
L 108.436087 -51.394039 
L 113.197628 -52.152075 
L 113.341838 -52.910111 
L 122.290641 -53.668147 
L 128.292817 -54.426183 
L 145.877106 -55.184219 
L 166.716503 -55.942255 
L 166.844426 -56.700291 
L 167.766438 -57.458327 
L 168.463026 -58.216364 
L 168.78224 -58.9744 
L 169.066541 -59.732436 
L 169.215462 -60.490472 
L 171.612738 -61.248508 
L 171.833733 -62.006544 
L 172.498901 -62.76458 
L 172.555218 -63.522616 
L 172.801174 -64.280652 
L 172.848474 -65.038689 
L 173.980686 -65.796725 
L 174.273317 -66.554761 
L 174.388573 -67.312797 
L 175.247497 -68.070833 
L 175.589738 -68.828869 
L 176.141398 -69.586905 
L 177.434137 -70.344941 
L 178.092441 -71.102977 
L 178.305667 -71.861014 
L 178.507099 -72.61905 
L 178.706003 -73.377086 
L 179.386086 -74.135122 
L 182.26741 -74.893158 
L 183.34502 -75.651194 
L 184.455298 -76.40923 
L 184.542691 -77.167266 
L 185.857832 -77.925302 
L 188.970728 -78.683339 
L 190.199756 -79.441375 
L 193.479138 -80.199411 
L 194.871876 -80.957447 
L 196.972433 -81.715483 
L 204.576392 -82.473519 
L 204.957665 -83.231555 
L 216.412634 -83.989591 
L 216.861831 -84.747627 
L 227.69288 -85.505664 
L 248.872895 -86.2637 
L 255.211072 -87.021736 
L 259.027045 -87.779772 
L 260.127619 -88.537808 
L 267.328339 -89.295844 
L 270.82725 -90.05388 
L 270.895798 -90.811916 
L 271.676565 -91.569952 
L 273.158849 -92.327989 
L 274.047882 -93.086025 
L 284.521277 -93.844061 
L 285.140081 -94.602097 
L 285.379047 -95.360133 
L 285.398985 -96.118169 
L 286.061906 -96.876205 
L 286.70954 -97.634241 
L 289.010281 -98.392277 
L 292.942944 -99.150314 
L 295.342748 -99.90835 
L 301.541925 -100.666386 
L 302.184753 -101.424422 
L 302.518414 -102.182458 
L 302.628459 -102.940494 
L 315.28918 -103.69853 
L 317.316135 -104.456566 
L 319.134669 -105.214602 
L 320.065386 -105.972639 
L 320.49736 -106.730675 
L 324.891607 -107.488711 
L 326.554886 -108.246747 
L 326.692419 -109.004783 
L 327.500206 -109.762819 
L 328.454043 -110.520855 
L 328.458505 -111.278891 
L 328.649172 -112.036927 
L 328.704086 -112.794964 
L 328.704273 -113.553 
L 328.956375 -114.311036 
L 331.202421 -115.069072 
L 331.206446 -115.827108 
L 331.65065 -116.585144 
L 331.662007 -117.34318 
L 332.831005 -118.101216 
L 332.899116 -118.859252 
L 333.57302 -119.617289 
L 335.224693 -120.375325 
L 336.402738 -121.133361 
L 338.356558 -121.891397 
L 339.164813 -122.649433 
L 339.759842 -123.407469 
L 343.536439 -124.165505 
L 344.553146 -124.923541 
L 344.894669 -125.681577 
L 348.926301 -126.439614 
L 350.113239 -127.19765 
L 350.594666 -127.955686 
L 357.935291 -128.713722 
L 358.942481 -129.471758 
L 359.489118 -130.229794 
L 361.211085 -130.98783 
L 361.854756 -131.745866 
L 367.245616 -132.503902 
L 369.934276 -133.261939 
L 381.089438 -134.019975 
L 387.295511 -134.778011 
L 390.642599 -135.536047 
L 412.106167 -136.294083 
L 417.717273 -137.052119 
L 426.269078 -137.810155 
L 426.370699 -138.568191 
L 428.523517 -139.326227 
L 437.010113 -140.084264 
L 441.141369 -140.8423 
L 444.365495 -141.600336 
L 444.848014 -142.358372 
L 445.589125 -143.116408 
L 450.223898 -143.874444 
L 455.914878 -144.63248 
L 456.650966 -145.390516 
L 458.303699 -146.148552 
L 459.113233 -146.906589 
L 463.978767 -147.664625 
L 471.766809 -148.422661 
L 483.406612 -149.180697 
L 484.96228 -149.938733 
L 485.914526 -150.696769 
L 493.410155 -151.454805 
L 499.251741 -152.212841 
L 505.532789 -152.970877 
L 531.755496 -153.728914 
L 532.406094 -154.48695 
L 536.648892 -155.244986 
L 543.350713 -156.003022 
L 543.524127 -156.761058 
L 543.842374 -157.519094 
L 544.374846 -158.27713 
L 544.942855 -159.035166 
L 544.969375 -159.793202 
L 547.223783 -160.551239 
L 555.163118 -161.309275 
L 558.573419 -162.067311 
L 559.207387 -162.825347 
L 560.917124 -163.583383 
L 562.753349 -164.341419 
L 572.444167 -165.099455 
L 581.459989 -165.857491 
L 586.477408 -166.615527 
L 588.407859 -167.373564 
L 589.786432 -168.1316 
L 590.700114 -168.889636 
L 591.093742 -169.647672 
L 595.668579 -170.405708 
L 600.760474 -171.163744 
L 602.399915 -171.92178 
L 603.722919 -172.679816 
L 607.431874 -173.437852 
L 608.415164 -174.195889 
L 609.283543 -174.953925 
L 610.675594 -175.711961 
L 617.282378 -176.469997 
L 617.55529 -177.228033 
L 618.570749 -177.986069 
L 622.096181 -178.744105 
L 626.196766 -179.502141 
L 635.76715 -180.260177 
L 656.351419 -181.018214 
L 658.081281 -181.77625 
L 663.930043 -182.534286 
L 665.342842 -183.292322 
L 668.959973 -184.050358 
L 669.664766 -184.808394 
L 674.01371 -185.56643 
L 676.616474 -186.324466 
L 678.546956 -187.082502 
L 687.682152 -187.840539 
L 693.911968 -188.598575 
L 698.515252 -188.598575 
L 698.515252 -33.201172 
L 698.515252 -33.201172 
L 693.911968 -33.201172 
L 687.682152 -33.201172 
L 678.546956 -33.201172 
L 676.616474 -33.201172 
L 674.01371 -33.201172 
L 669.664766 -33.201172 
L 668.959973 -33.201172 
L 665.342842 -33.201172 
L 663.930043 -33.201172 
L 658.081281 -33.201172 
L 656.351419 -33.201172 
L 635.76715 -33.201172 
L 626.196766 -33.201172 
L 622.096181 -33.201172 
L 618.570749 -33.201172 
L 617.55529 -33.201172 
L 617.282378 -33.201172 
L 610.675594 -33.201172 
L 609.283543 -33.201172 
L 608.415164 -33.201172 
L 607.431874 -33.201172 
L 603.722919 -33.201172 
L 602.399915 -33.201172 
L 600.760474 -33.201172 
L 595.668579 -33.201172 
L 591.093742 -33.201172 
L 590.700114 -33.201172 
L 589.786432 -33.201172 
L 588.407859 -33.201172 
L 586.477408 -33.201172 
L 581.459989 -33.201172 
L 572.444167 -33.201172 
L 562.753349 -33.201172 
L 560.917124 -33.201172 
L 559.207387 -33.201172 
L 558.573419 -33.201172 
L 555.163118 -33.201172 
L 547.223783 -33.201172 
L 544.969375 -33.201172 
L 544.942855 -33.201172 
L 544.374846 -33.201172 
L 543.842374 -33.201172 
L 543.524127 -33.201172 
L 543.350713 -33.201172 
L 536.648892 -33.201172 
L 532.406094 -33.201172 
L 531.755496 -33.201172 
L 505.532789 -33.201172 
L 499.251741 -33.201172 
L 493.410155 -33.201172 
L 485.914526 -33.201172 
L 484.96228 -33.201172 
L 483.406612 -33.201172 
L 471.766809 -33.201172 
L 463.978767 -33.201172 
L 459.113233 -33.201172 
L 458.303699 -33.201172 
L 456.650966 -33.201172 
L 455.914878 -33.201172 
L 450.223898 -33.201172 
L 445.589125 -33.201172 
L 444.848014 -33.201172 
L 444.365495 -33.201172 
L 441.141369 -33.201172 
L 437.010113 -33.201172 
L 428.523517 -33.201172 
L 426.370699 -33.201172 
L 426.269078 -33.201172 
L 417.717273 -33.201172 
L 412.106167 -33.201172 
L 390.642599 -33.201172 
L 387.295511 -33.201172 
L 381.089438 -33.201172 
L 369.934276 -33.201172 
L 367.245616 -33.201172 
L 361.854756 -33.201172 
L 361.211085 -33.201172 
L 359.489118 -33.201172 
L 358.942481 -33.201172 
L 357.935291 -33.201172 
L 350.594666 -33.201172 
L 350.113239 -33.201172 
L 348.926301 -33.201172 
L 344.894669 -33.201172 
L 344.553146 -33.201172 
L 343.536439 -33.201172 
L 339.759842 -33.201172 
L 339.164813 -33.201172 
L 338.356558 -33.201172 
L 336.402738 -33.201172 
L 335.224693 -33.201172 
L 333.57302 -33.201172 
L 332.899116 -33.201172 
L 332.831005 -33.201172 
L 331.662007 -33.201172 
L 331.65065 -33.201172 
L 331.206446 -33.201172 
L 331.202421 -33.201172 
L 328.956375 -33.201172 
L 328.704273 -33.201172 
L 328.704086 -33.201172 
L 328.649172 -33.201172 
L 328.458505 -33.201172 
L 328.454043 -33.201172 
L 327.500206 -33.201172 
L 326.692419 -33.201172 
L 326.554886 -33.201172 
L 324.891607 -33.201172 
L 320.49736 -33.201172 
L 320.065386 -33.201172 
L 319.134669 -33.201172 
L 317.316135 -33.201172 
L 315.28918 -33.201172 
L 302.628459 -33.201172 
L 302.518414 -33.201172 
L 302.184753 -33.201172 
L 301.541925 -33.201172 
L 295.342748 -33.201172 
L 292.942944 -33.201172 
L 289.010281 -33.201172 
L 286.70954 -33.201172 
L 286.061906 -33.201172 
L 285.398985 -33.201172 
L 285.379047 -33.201172 
L 285.140081 -33.201172 
L 284.521277 -33.201172 
L 274.047882 -33.201172 
L 273.158849 -33.201172 
L 271.676565 -33.201172 
L 270.895798 -33.201172 
L 270.82725 -33.201172 
L 267.328339 -33.201172 
L 260.127619 -33.201172 
L 259.027045 -33.201172 
L 255.211072 -33.201172 
L 248.872895 -33.201172 
L 227.69288 -33.201172 
L 216.861831 -33.201172 
L 216.412634 -33.201172 
L 204.957665 -33.201172 
L 204.576392 -33.201172 
L 196.972433 -33.201172 
L 194.871876 -33.201172 
L 193.479138 -33.201172 
L 190.199756 -33.201172 
L 188.970728 -33.201172 
L 185.857832 -33.201172 
L 184.542691 -33.201172 
L 184.455298 -33.201172 
L 183.34502 -33.201172 
L 182.26741 -33.201172 
L 179.386086 -33.201172 
L 178.706003 -33.201172 
L 178.507099 -33.201172 
L 178.305667 -33.201172 
L 178.092441 -33.201172 
L 177.434137 -33.201172 
L 176.141398 -33.201172 
L 175.589738 -33.201172 
L 175.247497 -33.201172 
L 174.388573 -33.201172 
L 174.273317 -33.201172 
L 173.980686 -33.201172 
L 172.848474 -33.201172 
L 172.801174 -33.201172 
L 172.555218 -33.201172 
L 172.498901 -33.201172 
L 171.833733 -33.201172 
L 171.612738 -33.201172 
L 169.215462 -33.201172 
L 169.066541 -33.201172 
L 168.78224 -33.201172 
L 168.463026 -33.201172 
L 167.766438 -33.201172 
L 166.844426 -33.201172 
L 166.716503 -33.201172 
L 145.877106 -33.201172 
L 128.292817 -33.201172 
L 122.290641 -33.201172 
L 113.341838 -33.201172 
L 113.197628 -33.201172 
L 108.436087 -33.201172 
L 107.982647 -33.201172 
L 101.887524 -33.201172 
L 96.475228 -33.201172 
L 91.095694 -33.201172 
L 74.467177 -33.201172 
L 73.76045 -33.201172 
L 72.508989 -33.201172 
L 71.471814 -33.201172 
L 70.228372 -33.201172 
L 69.92975 -33.201172 
L 69.898487 -33.201172 
L 69.574499 -33.201172 
L 69.499118 -33.201172 
L 69.352443 -33.201172 
L 68.689865 -33.201172 
L 64.122267 -33.201172 
L 60.110759 -33.201172 
L 59.123537 -33.201172 
L 59.091743 -33.201172 
L 58.802544 -33.201172 
L 58.659551 -33.201172 
L 57.907895 -33.201172 
L 53.70756 -33.201172 
z
" style="stroke: #1f6feb; stroke-opacity: 0.15"/>
    </defs>
    <g clip-path="url(#p98edec7583)">
     <use xlink:href="#m6366a8e4ea" x="0" y="228.557734" style="fill: #1f6feb; fill-opacity: 0.15; stroke: #1f6feb; stroke-opacity: 0.15"/>
    </g>
   </g>
   <g id="patch_3">
    <path d="M 40.811406 195.356563 
L 40.811406 24.798438 
" style="fill: none; stroke: #283d58; stroke-width: 0.8; stroke-linejoin: miter; stroke-linecap: square"/>
   </g>
   <g id="patch_4">
    <path d="M 711.411406 195.356563 
L 711.411406 24.798438 
" style="fill: none; stroke: #283d58; stroke-width: 0.8; stroke-linejoin: miter; stroke-linecap: square"/>
   </g>
   <g id="patch_5">
    <path d="M 40.811406 195.356563 
L 711.411406 195.356563 
" style="fill: none; stroke: #283d58; stroke-width: 0.8; stroke-linejoin: miter; stroke-linecap: square"/>
   </g>
   <g id="patch_6">
    <path d="M 40.811406 24.798438 
L 711.411406 24.798438 
" style="fill: none; stroke: #283d58; stroke-width: 0.8; stroke-linejoin: miter; stroke-linecap: square"/>
   </g>
   <g id="line2d_33">
    <path d="M 53.70756 194.598526 
L 57.907895 193.84049 
L 58.659551 193.082454 
L 58.802544 192.324418 
L 59.091743 191.566382 
L 59.123537 190.808346 
L 60.110759 190.05031 
L 68.689865 188.534238 
L 69.352443 187.776201 
L 69.92975 184.744057 
L 70.228372 183.986021 
L 73.76045 181.711913 
L 74.467177 180.953876 
L 91.095694 180.19584 
L 107.982647 177.921732 
L 108.436087 177.163696 
L 113.197628 176.40566 
L 113.341838 175.647624 
L 122.290641 174.889588 
L 128.292817 174.131551 
L 145.877106 173.373515 
L 166.716503 172.615479 
L 166.844426 171.857443 
L 167.766438 171.099407 
L 168.463026 170.341371 
L 169.066541 168.825299 
L 169.215462 168.067263 
L 171.612738 167.309226 
L 171.833733 166.55119 
L 172.498901 165.793154 
L 172.555218 165.035118 
L 172.801174 164.277082 
L 172.848474 163.519046 
L 173.980686 162.76101 
L 174.273317 162.002974 
L 174.388573 161.244938 
L 175.247497 160.486901 
L 175.589738 159.728865 
L 176.141398 158.970829 
L 177.434137 158.212793 
L 178.092441 157.454757 
L 178.706003 155.180649 
L 179.386086 154.422613 
L 182.26741 153.664576 
L 184.455298 152.148504 
L 184.542691 151.390468 
L 185.857832 150.632432 
L 188.970728 149.874396 
L 190.199756 149.11636 
L 193.479138 148.358324 
L 194.871876 147.600288 
L 196.972433 146.842251 
L 204.576392 146.084215 
L 204.957665 145.326179 
L 216.412634 144.568143 
L 216.861831 143.810107 
L 227.69288 143.052071 
L 248.872895 142.294035 
L 255.211072 141.535999 
L 259.027045 140.777963 
L 260.127619 140.019926 
L 267.328339 139.26189 
L 270.82725 138.503854 
L 270.895798 137.745818 
L 271.676565 136.987782 
L 273.158849 136.229746 
L 274.047882 135.47171 
L 284.521277 134.713674 
L 285.140081 133.955638 
L 285.379047 133.197601 
L 285.398985 132.439565 
L 286.70954 130.923493 
L 289.010281 130.165457 
L 292.942944 129.407421 
L 295.342748 128.649385 
L 301.541925 127.891349 
L 302.184753 127.133313 
L 302.518414 126.375276 
L 302.628459 125.61724 
L 315.28918 124.859204 
L 319.134669 123.343132 
L 320.065386 122.585096 
L 320.49736 121.82706 
L 324.891607 121.069024 
L 326.554886 120.310988 
L 326.692419 119.552951 
L 328.454043 118.036879 
L 328.458505 117.278843 
L 328.649172 116.520807 
L 328.704273 115.004735 
L 328.956375 114.246699 
L 331.202421 113.488663 
L 331.206446 112.730626 
L 331.65065 111.97259 
L 331.662007 111.214554 
L 332.831005 110.456518 
L 332.899116 109.698482 
L 333.57302 108.940446 
L 335.224693 108.18241 
L 336.402738 107.424374 
L 338.356558 106.666338 
L 339.164813 105.908301 
L 339.759842 105.150265 
L 343.536439 104.392229 
L 344.553146 103.634193 
L 344.894669 102.876157 
L 348.926301 102.118121 
L 350.113239 101.360085 
L 350.594666 100.602049 
L 357.935291 99.844013 
L 358.942481 99.085976 
L 359.489118 98.32794 
L 361.211085 97.569904 
L 361.854756 96.811868 
L 367.245616 96.053832 
L 369.934276 95.295796 
L 381.089438 94.53776 
L 387.295511 93.779724 
L 390.642599 93.021688 
L 412.106167 92.263651 
L 417.717273 91.505615 
L 426.269078 90.747579 
L 426.370699 89.989543 
L 428.523517 89.231507 
L 437.010113 88.473471 
L 441.141369 87.715435 
L 444.365495 86.957399 
L 444.848014 86.199363 
L 445.589125 85.441326 
L 450.223898 84.68329 
L 455.914878 83.925254 
L 456.650966 83.167218 
L 458.303699 82.409182 
L 459.113233 81.651146 
L 463.978767 80.89311 
L 471.766809 80.135074 
L 483.406612 79.377038 
L 484.96228 78.619001 
L 485.914526 77.860965 
L 493.410155 77.102929 
L 505.532789 75.586857 
L 531.755496 74.828821 
L 532.406094 74.070785 
L 536.648892 73.312749 
L 543.350713 72.554713 
L 543.524127 71.796676 
L 543.842374 71.03864 
L 544.942855 69.522568 
L 544.969375 68.764532 
L 547.223783 68.006496 
L 555.163118 67.24846 
L 558.573419 66.490424 
L 559.207387 65.732387 
L 562.753349 64.216315 
L 581.459989 62.700243 
L 586.477408 61.942207 
L 588.407859 61.184171 
L 589.786432 60.426135 
L 590.700114 59.668099 
L 591.093742 58.910063 
L 600.760474 57.39399 
L 602.399915 56.635954 
L 603.722919 55.877918 
L 607.431874 55.119882 
L 609.283543 53.60381 
L 610.675594 52.845774 
L 617.282378 52.087738 
L 617.55529 51.329701 
L 618.570749 50.571665 
L 622.096181 49.813629 
L 626.196766 49.055593 
L 635.76715 48.297557 
L 656.351419 47.539521 
L 658.081281 46.781485 
L 663.930043 46.023449 
L 665.342842 45.265412 
L 668.959973 44.507376 
L 669.664766 43.74934 
L 674.01371 42.991304 
L 676.616474 42.233268 
L 678.546956 41.475232 
L 687.682152 40.717196 
L 693.911968 39.95916 
L 698.515252 39.95916 
L 698.515252 39.95916 
" clip-path="url(#p98edec7583)" style="fill: none; stroke: #1f6feb; stroke-width: 2.5; stroke-linecap: square"/>
   </g>
   <g id="text_19">
    <!-- FirstEverTech / Universal-Intel-Chipset-Updater · Stars History -->
    <g style="fill: #58a6ff" transform="translate(222.398125 14.798438) scale(0.1 -0.1)">
     <defs>
      <path id="DejaVuSans-29" d="M 628 4666 
L 3309 4666 
L 3309 4134 
L 1259 4134 
L 1259 2759 
L 3109 2759 
L 3109 2228 
L 1259 2228 
L 1259 0 
L 628 0 
L 628 4666 
z
" transform="scale(0.015625)"/>
      <path id="DejaVuSans-4c" d="M 603 3500 
L 1178 3500 
L 1178 0 
L 603 0 
L 603 3500 
z
M 603 4863 
L 1178 4863 
L 1178 4134 
L 603 4134 
L 603 4863 
z
" transform="scale(0.015625)"/>
      <path id="DejaVuSans-55" d="M 2631 2963 
Q 2534 3019 2420 3045 
Q 2306 3072 2169 3072 
Q 1681 3072 1420 2755 
Q 1159 2438 1159 1844 
L 1159 0 
L 581 0 
L 581 3500 
L 1159 3500 
L 1159 2956 
Q 1341 3275 1631 3429 
Q 1922 3584 2338 3584 
Q 2397 3584 2469 3576 
Q 2541 3569 2628 3553 
L 2631 2963 
z
" transform="scale(0.015625)"/>
      <path id="DejaVuSans-56" d="M 2834 3397 
L 2834 2853 
Q 2591 2978 2328 3040 
Q 2066 3103 1784 3103 
Q 1356 3103 1142 2972 
Q 928 2841 928 2578 
Q 928 2378 1081 2264 
Q 1234 2150 1697 2047 
L 1894 2003 
Q 2506 1872 2764 1633 
Q 3022 1394 3022 966 
Q 3022 478 2636 193 
Q 2250 -91 1575 -91 
Q 1294 -91 989 -36 
Q 684 19 347 128 
L 347 722 
Q 666 556 975 473 
Q 1284 391 1588 391 
Q 1994 391 2212 530 
Q 2431 669 2431 922 
Q 2431 1156 2273 1281 
Q 2116 1406 1581 1522 
L 1381 1569 
Q 847 1681 609 1914 
Q 372 2147 372 2553 
Q 372 3047 722 3315 
Q 1072 3584 1716 3584 
Q 2034 3584 2315 3537 
Q 2597 3491 2834 3397 
z
" transform="scale(0.015625)"/>
      <path id="DejaVuSans-57" d="M 1172 4494 
L 1172 3500 
L 2356 3500 
L 2356 3053 
L 1172 3053 
L 1172 1153 
Q 1172 725 1289 603 
Q 1406 481 1766 481 
L 2356 481 
L 2356 0 
L 1766 0 
Q 1100 0 847 248 
Q 594 497 594 1153 
L 594 3053 
L 172 3053 
L 172 3500 
L 594 3500 
L 594 4494 
L 1172 4494 
z
" transform="scale(0.015625)"/>
      <path id="DejaVuSans-28" d="M 628 4666 
L 3578 4666 
L 3578 4134 
L 1259 4134 
L 1259 2753 
L 3481 2753 
L 3481 2222 
L 1259 2222 
L 1259 531 
L 3634 531 
L 3634 0 
L 628 0 
L 628 4666 
z
" transform="scale(0.015625)"/>
      <path id="DejaVuSans-59" d="M 191 3500 
L 800 3500 
L 1894 563 
L 2988 3500 
L 3597 3500 
L 2284 0 
L 1503 0 
L 191 3500 
z
" transform="scale(0.015625)"/>
      <path id="DejaVuSans-48" d="M 3597 1894 
L 3597 1613 
L 953 1613 
Q 991 1019 1311 708 
Q 1631 397 2203 397 
Q 2534 397 2845 478 
Q 3156 559 3463 722 
L 3463 178 
Q 3153 47 2828 -22 
Q 2503 -91 2169 -91 
Q 1331 -91 842 396 
Q 353 884 353 1716 
Q 353 2575 817 3079 
Q 1281 3584 2069 3584 
Q 2775 3584 3186 3129 
Q 3597 2675 3597 1894 
z
M 3022 2063 
Q 3016 2534 2758 2815 
Q 2500 3097 2075 3097 
Q 1594 3097 1305 2825 
Q 1016 2553 972 2059 
L 3022 2063 
z
" transform="scale(0.015625)"/>
      <path id="DejaVuSans-37" d="M -19 4666 
L 3928 4666 
L 3928 4134 
L 2272 4134 
L 2272 0 
L 1638 0 
L 1638 4134 
L -19 4134 
L -19 4666 
z
" transform="scale(0.015625)"/>
      <path id="DejaVuSans-46" d="M 3122 3366 
L 3122 2828 
Q 2878 2963 2633 3030 
Q 2388 3097 2138 3097 
Q 1578 3097 1268 2742 
Q 959 2388 959 1747 
Q 959 1106 1268 751 
Q 1578 397 2138 397 
Q 2388 397 2633 464 
Q 2878 531 3122 666 
L 3122 134 
Q 2881 22 2623 -34 
Q 2366 -91 2075 -91 
Q 1284 -91 818 406 
Q 353 903 353 1747 
Q 353 2603 823 3093 
Q 1294 3584 2113 3584 
Q 2378 3584 2631 3529 
Q 2884 3475 3122 3366 
z
" transform="scale(0.015625)"/>
      <path id="DejaVuSans-4b" d="M 3513 2113 
L 3513 0 
L 2938 0 
L 2938 2094 
Q 2938 2591 2744 2837 
Q 2550 3084 2163 3084 
Q 1697 3084 1428 2787 
Q 1159 2491 1159 1978 
L 1159 0 
L 581 0 
L 581 4863 
L 1159 4863 
L 1159 2956 
Q 1366 3272 1645 3428 
Q 1925 3584 2291 3584 
Q 2894 3584 3203 3211 
Q 3513 2838 3513 2113 
z
" transform="scale(0.015625)"/>
      <path id="DejaVuSans-3" transform="scale(0.015625)"/>
      <path id="DejaVuSans-12" d="M 1625 4666 
L 2156 4666 
L 531 -594 
L 0 -594 
L 1625 4666 
z
" transform="scale(0.015625)"/>
      <path id="DejaVuSans-38" d="M 556 4666 
L 1191 4666 
L 1191 1831 
Q 1191 1081 1462 751 
Q 1734 422 2344 422 
Q 2950 422 3222 751 
Q 3494 1081 3494 1831 
L 3494 4666 
L 4128 4666 
L 4128 1753 
Q 4128 841 3676 375 
Q 3225 -91 2344 -91 
Q 1459 -91 1007 375 
Q 556 841 556 1753 
L 556 4666 
z
" transform="scale(0.015625)"/>
      <path id="DejaVuSans-51" d="M 3513 2113 
L 3513 0 
L 2938 0 
L 2938 2094 
Q 2938 2591 2744 2837 
Q 2550 3084 2163 3084 
Q 1697 3084 1428 2787 
Q 1159 2491 1159 1978 
L 1159 0 
L 581 0 
L 581 3500 
L 1159 3500 
L 1159 2956 
Q 1366 3272 1645 3428 
Q 1925 3584 2291 3584 
Q 2894 3584 3203 3211 
Q 3513 2838 3513 2113 
z
" transform="scale(0.015625)"/>
      <path id="DejaVuSans-44" d="M 2194 1759 
Q 1497 1759 1228 1600 
Q 959 1441 959 1056 
Q 959 750 1161 570 
Q 1363 391 1709 391 
Q 2188 391 2477 730 
Q 2766 1069 2766 1631 
L 2766 1759 
L 2194 1759 
z
M 3341 1997 
L 3341 0 
L 2766 0 
L 2766 531 
Q 2569 213 2275 61 
Q 1981 -91 1556 -91 
Q 1019 -91 701 211 
Q 384 513 384 1019 
Q 384 1609 779 1909 
Q 1175 2209 1959 2209 
L 2766 2209 
L 2766 2266 
Q 2766 2663 2505 2880 
Q 2244 3097 1772 3097 
Q 1472 3097 1187 3025 
Q 903 2953 641 2809 
L 641 3341 
Q 956 3463 1253 3523 
Q 1550 3584 1831 3584 
Q 2591 3584 2966 3190 
Q 3341 2797 3341 1997 
z
" transform="scale(0.015625)"/>
      <path id="DejaVuSans-4f" d="M 603 4863 
L 1178 4863 
L 1178 0 
L 603 0 
L 603 4863 
z
" transform="scale(0.015625)"/>
      <path id="DejaVuSans-10" d="M 313 2009 
L 1997 2009 
L 1997 1497 
L 313 1497 
L 313 2009 
z
" transform="scale(0.015625)"/>
      <path id="DejaVuSans-2c" d="M 628 4666 
L 1259 4666 
L 1259 0 
L 628 0 
L 628 4666 
z
" transform="scale(0.015625)"/>
      <path id="DejaVuSans-26" d="M 4122 4306 
L 4122 3641 
Q 3803 3938 3442 4084 
Q 3081 4231 2675 4231 
Q 1875 4231 1450 3742 
Q 1025 3253 1025 2328 
Q 1025 1406 1450 917 
Q 1875 428 2675 428 
Q 3081 428 3442 575 
Q 3803 722 4122 1019 
L 4122 359 
Q 3791 134 3420 21 
Q 3050 -91 2638 -91 
Q 1578 -91 968 557 
Q 359 1206 359 2328 
Q 359 3453 968 4101 
Q 1578 4750 2638 4750 
Q 3056 4750 3426 4639 
Q 3797 4528 4122 4306 
z
" transform="scale(0.015625)"/>
      <path id="DejaVuSans-53" d="M 1159 525 
L 1159 -1331 
L 581 -1331 
L 581 3500 
L 1159 3500 
L 1159 2969 
Q 1341 3281 1617 3432 
Q 1894 3584 2278 3584 
Q 2916 3584 3314 3078 
Q 3713 2572 3713 1747 
Q 3713 922 3314 415 
Q 2916 -91 2278 -91 
Q 1894 -91 1617 61 
Q 1341 213 1159 525 
z
M 3116 1747 
Q 3116 2381 2855 2742 
Q 2594 3103 2138 3103 
Q 1681 3103 1420 2742 
Q 1159 2381 1159 1747 
Q 1159 1113 1420 752 
Q 1681 391 2138 391 
Q 2594 391 2855 752 
Q 3116 1113 3116 1747 
z
" transform="scale(0.015625)"/>
      <path id="DejaVuSans-47" d="M 2906 2969 
L 2906 4863 
L 3481 4863 
L 3481 0 
L 2906 0 
L 2906 525 
Q 2725 213 2448 61 
Q 2172 -91 1784 -91 
Q 1150 -91 751 415 
Q 353 922 353 1747 
Q 353 2572 751 3078 
Q 1150 3584 1784 3584 
Q 2172 3584 2448 3432 
Q 2725 3281 2906 2969 
z
M 947 1747 
Q 947 1113 1208 752 
Q 1469 391 1925 391 
Q 2381 391 2643 752 
Q 2906 1113 2906 1747 
Q 2906 2381 2643 2742 
Q 2381 3103 1925 3103 
Q 1469 3103 1208 2742 
Q 947 2381 947 1747 
z
" transform="scale(0.015625)"/>
      <path id="DejaVuSans-79" d="M 684 2619 
L 1344 2619 
L 1344 1825 
L 684 1825 
L 684 2619 
z
" transform="scale(0.015625)"/>
      <path id="DejaVuSans-36" d="M 3425 4513 
L 3425 3897 
Q 3066 4069 2747 4153 
Q 2428 4238 2131 4238 
Q 1616 4238 1336 4038 
Q 1056 3838 1056 3469 
Q 1056 3159 1242 3001 
Q 1428 2844 1947 2747 
L 2328 2669 
Q 3034 2534 3370 2195 
Q 3706 1856 3706 1288 
Q 3706 609 3251 259 
Q 2797 -91 1919 -91 
Q 1588 -91 1214 -16 
Q 841 59 441 206 
L 441 856 
Q 825 641 1194 531 
Q 1563 422 1919 422 
Q 2459 422 2753 634 
Q 3047 847 3047 1241 
Q 3047 1584 2836 1778 
Q 2625 1972 2144 2069 
L 1759 2144 
Q 1053 2284 737 2584 
Q 422 2884 422 3419 
Q 422 4038 858 4394 
Q 1294 4750 2059 4750 
Q 2388 4750 2728 4690 
Q 3069 4631 3425 4513 
z
" transform="scale(0.015625)"/>
      <path id="DejaVuSans-2b" d="M 628 4666 
L 1259 4666 
L 1259 2753 
L 3553 2753 
L 3553 4666 
L 4184 4666 
L 4184 0 
L 3553 0 
L 3553 2222 
L 1259 2222 
L 1259 0 
L 628 0 
L 628 4666 
z
" transform="scale(0.015625)"/>
      <path id="DejaVuSans-52" d="M 1959 3097 
Q 1497 3097 1228 2736 
Q 959 2375 959 1747 
Q 959 1119 1226 758 
Q 1494 397 1959 397 
Q 2419 397 2687 759 
Q 2956 1122 2956 1747 
Q 2956 2369 2687 2733 
Q 2419 3097 1959 3097 
z
M 1959 3584 
Q 2709 3584 3137 3096 
Q 3566 2609 3566 1747 
Q 3566 888 3137 398 
Q 2709 -91 1959 -91 
Q 1206 -91 779 398 
Q 353 888 353 1747 
Q 353 2609 779 3096 
Q 1206 3584 1959 3584 
z
" transform="scale(0.015625)"/>
      <path id="DejaVuSans-5c" d="M 2059 -325 
Q 1816 -950 1584 -1140 
Q 1353 -1331 966 -1331 
L 506 -1331 
L 506 -850 
L 844 -850 
Q 1081 -850 1212 -737 
Q 1344 -625 1503 -206 
L 1606 56 
L 191 3500 
L 800 3500 
L 1894 763 
L 2988 3500 
L 3597 3500 
L 2059 -325 
z
" transform="scale(0.015625)"/>
     </defs>
     <use xlink:href="#DejaVuSans-29"/>
     <use xlink:href="#DejaVuSans-4c" transform="translate(50.234375 0)"/>
     <use xlink:href="#DejaVuSans-55" transform="translate(78.015625 0)"/>
     <use xlink:href="#DejaVuSans-56" transform="translate(119.125 0)"/>
     <use xlink:href="#DejaVuSans-57" transform="translate(171.21875 0)"/>
     <use xlink:href="#DejaVuSans-28" transform="translate(210.421875 0)"/>
     <use xlink:href="#DejaVuSans-59" transform="translate(273.609375 0)"/>
     <use xlink:href="#DejaVuSans-48" transform="translate(332.796875 0)"/>
     <use xlink:href="#DejaVuSans-55" transform="translate(394.328125 0)"/>
     <use xlink:href="#DejaVuSans-37" transform="translate(435.4375 0)"/>
     <use xlink:href="#DejaVuSans-48" transform="translate(479.53125 0)"/>
     <use xlink:href="#DejaVuSans-46" transform="translate(541.0625 0)"/>
     <use xlink:href="#DejaVuSans-4b" transform="translate(596.046875 0)"/>
     <use xlink:href="#DejaVuSans-3" transform="translate(659.421875 0)"/>
     <use xlink:href="#DejaVuSans-12" transform="translate(691.203125 0)"/>
     <use xlink:href="#DejaVuSans-3" transform="translate(724.890625 0)"/>
     <use xlink:href="#DejaVuSans-38" transform="translate(756.671875 0)"/>
     <use xlink:href="#DejaVuSans-51" transform="translate(829.859375 0)"/>
     <use xlink:href="#DejaVuSans-4c" transform="translate(893.234375 0)"/>
     <use xlink:href="#DejaVuSans-59" transform="translate(921.015625 0)"/>
     <use xlink:href="#DejaVuSans-48" transform="translate(980.203125 0)"/>
     <use xlink:href="#DejaVuSans-55" transform="translate(1041.734375 0)"/>
     <use xlink:href="#DejaVuSans-56" transform="translate(1082.84375 0)"/>
     <use xlink:href="#DejaVuSans-44" transform="translate(1134.9375 0)"/>
     <use xlink:href="#DejaVuSans-4f" transform="translate(1196.21875 0)"/>
     <use xlink:href="#DejaVuSans-10" transform="translate(1224 0)"/>
     <use xlink:href="#DejaVuSans-2c" transform="translate(1260.078125 0)"/>
     <use xlink:href="#DejaVuSans-51" transform="translate(1289.578125 0)"/>
     <use xlink:href="#DejaVuSans-57" transform="translate(1352.953125 0)"/>
     <use xlink:href="#DejaVuSans-48" transform="translate(1392.15625 0)"/>
     <use xlink:href="#DejaVuSans-4f" transform="translate(1453.6875 0)"/>
     <use xlink:href="#DejaVuSans-10" transform="translate(1481.46875 0)"/>
     <use xlink:href="#DejaVuSans-26" transform="translate(1517.546875 0)"/>
     <use xlink:href="#DejaVuSans-4b" transform="translate(1587.375 0)"/>
     <use xlink:href="#DejaVuSans-4c" transform="translate(1650.75 0)"/>
     <use xlink:href="#DejaVuSans-53" transform="translate(1678.53125 0)"/>
     <use xlink:href="#DejaVuSans-56" transform="translate(1742.015625 0)"/>
     <use xlink:href="#DejaVuSans-48" transform="translate(1794.109375 0)"/>
     <use xlink:href="#DejaVuSans-57" transform="translate(1855.640625 0)"/>
     <use xlink:href="#DejaVuSans-10" transform="translate(1894.84375 0)"/>
     <use xlink:href="#DejaVuSans-38" transform="translate(1930.921875 0)"/>
     <use xlink:href="#DejaVuSans-53" transform="translate(2004.109375 0)"/>
     <use xlink:href="#DejaVuSans-47" transform="translate(2067.59375 0)"/>
     <use xlink:href="#DejaVuSans-44" transform="translate(2131.078125 0)"/>
     <use xlink:href="#DejaVuSans-57" transform="translate(2192.359375 0)"/>
     <use xlink:href="#DejaVuSans-48" transform="translate(2231.5625 0)"/>
     <use xlink:href="#DejaVuSans-55" transform="translate(2293.09375 0)"/>
     <use xlink:href="#DejaVuSans-3" transform="translate(2334.203125 0)"/>
     <use xlink:href="#DejaVuSans-79" transform="translate(2365.984375 0)"/>
     <use xlink:href="#DejaVuSans-3" transform="translate(2397.765625 0)"/>
     <use xlink:href="#DejaVuSans-36" transform="translate(2429.546875 0)"/>
     <use xlink:href="#DejaVuSans-57" transform="translate(2493.03125 0)"/>
     <use xlink:href="#DejaVuSans-44" transform="translate(2532.234375 0)"/>
     <use xlink:href="#DejaVuSans-55" transform="translate(2593.515625 0)"/>
     <use xlink:href="#DejaVuSans-56" transform="translate(2634.625 0)"/>
     <use xlink:href="#DejaVuSans-3" transform="translate(2686.71875 0)"/>
     <use xlink:href="#DejaVuSans-2b" transform="translate(2718.5 0)"/>
     <use xlink:href="#DejaVuSans-4c" transform="translate(2793.703125 0)"/>
     <use xlink:href="#DejaVuSans-56" transform="translate(2821.484375 0)"/>
     <use xlink:href="#DejaVuSans-57" transform="translate(2873.578125 0)"/>
     <use xlink:href="#DejaVuSans-52" transform="translate(2912.78125 0)"/>
     <use xlink:href="#DejaVuSans-55" transform="translate(2973.96875 0)"/>
     <use xlink:href="#DejaVuSans-5c" transform="translate(3015.078125 0)"/>
    </g>
   </g>
   <g id="PathCollection_1">
    <defs>
     <path id="ma5c05f7569" d="M 0 2.738613 
C 0.726289 2.738613 1.422928 2.450055 1.936492 1.936492 
C 2.450055 1.422928 2.738613 0.726289 2.738613 0 
C 2.738613 -0.726289 2.450055 -1.422928 1.936492 -1.936492 
C 1.422928 -2.450055 0.726289 -2.738613 0 -2.738613 
C -0.726289 -2.738613 -1.422928 -2.450055 -1.936492 -1.936492 
C -2.450055 -1.422928 -2.738613 -0.726289 -2.738613 0 
C -2.738613 0.726289 -2.450055 1.422928 -1.936492 1.936492 
C -1.422928 2.450055 -0.726289 2.738613 0 2.738613 
z
"/>
    </defs>
    <g clip-path="url(#p98edec7583)">
     <use xlink:href="#ma5c05f7569" x="53.70756" y="194.598526" style="fill: #58a6ff"/>
     <use xlink:href="#ma5c05f7569" x="75.20115" y="180.920417" style="fill: #58a6ff"/>
     <use xlink:href="#ma5c05f7569" x="96.69474" y="179.40706" style="fill: #58a6ff"/>
     <use xlink:href="#ma5c05f7569" x="118.188329" y="175.237087" style="fill: #58a6ff"/>
     <use xlink:href="#ma5c05f7569" x="139.681919" y="173.640582" style="fill: #58a6ff"/>
     <use xlink:href="#ma5c05f7569" x="161.175509" y="172.817034" style="fill: #58a6ff"/>
     <use xlink:href="#ma5c05f7569" x="182.669099" y="153.382012" style="fill: #58a6ff"/>
     <use xlink:href="#ma5c05f7569" x="204.162688" y="146.125457" style="fill: #58a6ff"/>
     <use xlink:href="#ma5c05f7569" x="225.656278" y="143.194607" style="fill: #58a6ff"/>
     <use xlink:href="#ma5c05f7569" x="247.149868" y="142.355702" style="fill: #58a6ff"/>
     <use xlink:href="#ma5c05f7569" x="268.643458" y="138.976971" style="fill: #58a6ff"/>
     <use xlink:href="#ma5c05f7569" x="290.137047" y="129.948268" style="fill: #58a6ff"/>
     <use xlink:href="#ma5c05f7569" x="311.630637" y="125.078252" style="fill: #58a6ff"/>
     <use xlink:href="#ma5c05f7569" x="333.124227" y="109.445268" style="fill: #58a6ff"/>
     <use xlink:href="#ma5c05f7569" x="354.617817" y="100.186594" style="fill: #58a6ff"/>
     <use xlink:href="#ma5c05f7569" x="376.111406" y="94.876036" style="fill: #58a6ff"/>
     <use xlink:href="#ma5c05f7569" x="397.604996" y="92.775794" style="fill: #58a6ff"/>
     <use xlink:href="#ma5c05f7569" x="419.098586" y="91.383175" style="fill: #58a6ff"/>
     <use xlink:href="#ma5c05f7569" x="440.592175" y="87.816205" style="fill: #58a6ff"/>
     <use xlink:href="#ma5c05f7569" x="462.085765" y="81.188034" style="fill: #58a6ff"/>
     <use xlink:href="#ma5c05f7569" x="483.579355" y="79.292864" style="fill: #58a6ff"/>
     <use xlink:href="#ma5c05f7569" x="505.072945" y="75.642354" style="fill: #58a6ff"/>
     <use xlink:href="#ma5c05f7569" x="526.566534" y="74.978821" style="fill: #58a6ff"/>
     <use xlink:href="#ma5c05f7569" x="548.060124" y="67.926643" style="fill: #58a6ff"/>
     <use xlink:href="#ma5c05f7569" x="569.553714" y="63.684376" style="fill: #58a6ff"/>
     <use xlink:href="#ma5c05f7569" x="591.047304" y="58.999492" style="fill: #58a6ff"/>
     <use xlink:href="#ma5c05f7569" x="612.540893" y="52.631757" style="fill: #58a6ff"/>
     <use xlink:href="#ma5c05f7569" x="634.034483" y="48.434795" style="fill: #58a6ff"/>
     <use xlink:href="#ma5c05f7569" x="655.528073" y="47.569841" style="fill: #58a6ff"/>
     <use xlink:href="#ma5c05f7569" x="677.021663" y="42.074164" style="fill: #58a6ff"/>
     <use xlink:href="#ma5c05f7569" x="698.515252" y="39.95916" style="fill: #58a6ff"/>
    </g>
   </g>
  </g>
 </g>
 <defs>
  <clipPath id="p98edec7583">
   <rect x="40.811406" y="24.798438" width="670.6" height="170.558125"/>
  </clipPath>
 </defs>
</svg>
