<?xml version="1.0" encoding="utf-8" standalone="no"?>
<!DOCTYPE svg PUBLIC "-//W3C//DTD SVG 1.1//EN"
  "http://www.w3.org/Graphics/SVG/1.1/DTD/svg11.dtd">
<svg xmlns:xlink="http://www.w3.org/1999/xlink" width="718.020545pt" height="228.557734pt" viewBox="0 0 718.020545 228.557734" xmlns="http://www.w3.org/2000/svg" version="1.1">
 <metadata>
  <rdf:RDF xmlns:dc="http://purl.org/dc/elements/1.1/" xmlns:cc="http://creativecommons.org/ns#" xmlns:rdf="http://www.w3.org/1999/02/22-rdf-syntax-ns#">
   <cc:Work>
    <dc:type rdf:resource="http://purl.org/dc/dcmitype/StillImage"/>
    <dc:date>2026-06-27T03:59:40.140922</dc:date>
    <dc:format>image/svg+xml</dc:format>
    <dc:creator>
     <cc:Agent>
      <dc:title>Matplotlib v3.11.0, https://matplotlib.org/</dc:title>
     </cc:Agent>
    </dc:creator>
   </cc:Work>
  </rdf:RDF>
 </metadata>
 <defs>
  <style type="text/css">*{stroke-linejoin: round; stroke-linecap: butt}</style>
 </defs>
 <g id="figure_1">
  <g id="patch_1">
   <path d="M 0 228.557734 
L 718.020545 228.557734 
L 718.020545 0 
L 0 0 
L 0 228.557734 
z
" style="fill: none"/>
  </g>
  <g id="axes_1">
   <g id="patch_2">
    <path d="M 40.811406 195.356563 
L 700.385061 195.356563 
L 700.385061 24.798438 
L 40.811406 24.798438 
L 40.811406 195.356563 
z
" style="fill: none"/>
   </g>
   <g id="matplotlib.axis_1">
    <g id="xtick_1">
     <g id="line2d_1">
      <path d="M 92.244586 195.356563 
L 92.244586 24.798438 
" clip-path="url(#pcb5fb6de38)" style="fill: none; stroke-dasharray: 0.7,1.155; stroke-dashoffset: 0; stroke: #283d58; stroke-width: 0.7"/>
     </g>
     <g id="line2d_2">
      <defs>
       <path id="mc05e43c7be" d="M 0 0 
L 0 3.5 
" style="stroke: #58a6ff; stroke-width: 0.8"/>
      </defs>
      <g>
       <use xlink:href="#mc05e43c7be" x="92.244586" y="195.356563" style="fill: #58a6ff; stroke: #58a6ff; stroke-width: 0.8"/>
      </g>
     </g>
     <g id="text_1">
      <!-- Dec '25 -->
      <g style="fill: #58a6ff" transform="translate(77.729976 207.674922) scale(0.07 -0.07)">
       <defs>
        <path id="DejaVuSans-Bold-27" d="M 1791 3756 
L 1791 909 
L 2222 909 
Q 2959 909 3348 1275 
Q 3738 1641 3738 2338 
Q 3738 3031 3350 3393 
Q 2963 3756 2222 3756 
L 1791 3756 
z
M 588 4666 
L 1856 4666 
Q 2919 4666 3439 4514 
Q 3959 4363 4331 4000 
Q 4659 3684 4818 3271 
Q 4978 2859 4978 2338 
Q 4978 1809 4818 1395 
Q 4659 981 4331 666 
Q 3956 303 3431 151 
Q 2906 0 1856 0 
L 588 0 
L 588 4666 
z
" transform="scale(0.015625)"/>
        <path id="DejaVuSans-Bold-48" d="M 4031 1759 
L 4031 1441 
L 1416 1441 
Q 1456 1047 1700 850 
Q 1944 653 2381 653 
Q 2734 653 3104 758 
Q 3475 863 3866 1075 
L 3866 213 
Q 3469 63 3072 -14 
Q 2675 -91 2278 -91 
Q 1328 -91 801 392 
Q 275 875 275 1747 
Q 275 2603 792 3093 
Q 1309 3584 2216 3584 
Q 3041 3584 3536 3087 
Q 4031 2591 4031 1759 
z
M 2881 2131 
Q 2881 2450 2695 2645 
Q 2509 2841 2209 2841 
Q 1884 2841 1681 2658 
Q 1478 2475 1428 2131 
L 2881 2131 
z
" transform="scale(0.015625)"/>
        <path id="DejaVuSans-Bold-46" d="M 3366 3391 
L 3366 2478 
Q 3138 2634 2908 2709 
Q 2678 2784 2431 2784 
Q 1963 2784 1702 2511 
Q 1441 2238 1441 1747 
Q 1441 1256 1702 982 
Q 1963 709 2431 709 
Q 2694 709 2930 787 
Q 3166 866 3366 1019 
L 3366 103 
Q 3103 6 2833 -42 
Q 2563 -91 2291 -91 
Q 1344 -91 809 395 
Q 275 881 275 1747 
Q 275 2613 809 3098 
Q 1344 3584 2291 3584 
Q 2566 3584 2833 3536 
Q 3100 3488 3366 3391 
z
" transform="scale(0.015625)"/>
        <path id="DejaVuSans-Bold-3" transform="scale(0.015625)"/>
        <path id="DejaVuSans-Bold-a" d="M 1350 4666 
L 1350 2931 
L 609 2931 
L 609 4666 
L 1350 4666 
z
" transform="scale(0.015625)"/>
        <path id="DejaVuSans-Bold-15" d="M 1844 884 
L 3897 884 
L 3897 0 
L 506 0 
L 506 884 
L 2209 2388 
Q 2438 2594 2547 2791 
Q 2656 2988 2656 3200 
Q 2656 3528 2436 3728 
Q 2216 3928 1850 3928 
Q 1569 3928 1234 3808 
Q 900 3688 519 3450 
L 519 4475 
Q 925 4609 1322 4679 
Q 1719 4750 2100 4750 
Q 2938 4750 3402 4381 
Q 3866 4013 3866 3353 
Q 3866 2972 3669 2642 
Q 3472 2313 2841 1759 
L 1844 884 
z
" transform="scale(0.015625)"/>
        <path id="DejaVuSans-Bold-18" d="M 678 4666 
L 3669 4666 
L 3669 3781 
L 1638 3781 
L 1638 3059 
Q 1775 3097 1914 3117 
Q 2053 3138 2203 3138 
Q 3056 3138 3531 2711 
Q 4006 2284 4006 1522 
Q 4006 766 3489 337 
Q 2972 -91 2053 -91 
Q 1656 -91 1267 -14 
Q 878 63 494 219 
L 494 1166 
Q 875 947 1217 837 
Q 1559 728 1863 728 
Q 2300 728 2551 942 
Q 2803 1156 2803 1522 
Q 2803 1891 2551 2103 
Q 2300 2316 1863 2316 
Q 1603 2316 1309 2248 
Q 1016 2181 678 2041 
L 678 4666 
z
" transform="scale(0.015625)"/>
       </defs>
       <use xlink:href="#DejaVuSans-Bold-27"/>
       <use xlink:href="#DejaVuSans-Bold-48" transform="translate(83.015625 0)"/>
       <use xlink:href="#DejaVuSans-Bold-46" transform="translate(150.84375 0)"/>
       <use xlink:href="#DejaVuSans-Bold-3" transform="translate(210.125 0)"/>
       <use xlink:href="#DejaVuSans-Bold-a" transform="translate(244.9375 0)"/>
       <use xlink:href="#DejaVuSans-Bold-15" transform="translate(275.546875 0)"/>
       <use xlink:href="#DejaVuSans-Bold-18" transform="translate(345.125 0)"/>
      </g>
     </g>
    </g>
    <g id="xtick_2">
     <g id="line2d_3">
      <path d="M 180.919531 195.356563 
L 180.919531 24.798438 
" clip-path="url(#pcb5fb6de38)" style="fill: none; stroke-dasharray: 0.7,1.155; stroke-dashoffset: 0; stroke: #283d58; stroke-width: 0.7"/>
     </g>
     <g id="line2d_4">
      <g>
       <use xlink:href="#mc05e43c7be" x="180.919531" y="195.356563" style="fill: #58a6ff; stroke: #58a6ff; stroke-width: 0.8"/>
      </g>
     </g>
     <g id="text_2">
      <!-- Jan '26 -->
      <g style="fill: #58a6ff" transform="translate(167.603672 207.674922) scale(0.07 -0.07)">
       <defs>
        <path id="DejaVuSans-Bold-2d" d="M 588 4666 
L 1791 4666 
L 1791 453 
Q 1791 -419 1317 -850 
Q 844 -1281 -116 -1281 
L -359 -1281 
L -359 -372 
L -172 -372 
Q 203 -372 395 -162 
Q 588 47 588 453 
L 588 4666 
z
" transform="scale(0.015625)"/>
        <path id="DejaVuSans-Bold-44" d="M 2106 1575 
Q 1756 1575 1579 1456 
Q 1403 1338 1403 1106 
Q 1403 894 1545 773 
Q 1688 653 1941 653 
Q 2256 653 2472 879 
Q 2688 1106 2688 1447 
L 2688 1575 
L 2106 1575 
z
M 3816 1997 
L 3816 0 
L 2688 0 
L 2688 519 
Q 2463 200 2181 54 
Q 1900 -91 1497 -91 
Q 953 -91 614 226 
Q 275 544 275 1050 
Q 275 1666 698 1953 
Q 1122 2241 2028 2241 
L 2688 2241 
L 2688 2328 
Q 2688 2594 2478 2717 
Q 2269 2841 1825 2841 
Q 1466 2841 1156 2769 
Q 847 2697 581 2553 
L 581 3406 
Q 941 3494 1303 3539 
Q 1666 3584 2028 3584 
Q 2975 3584 3395 3211 
Q 3816 2838 3816 1997 
z
" transform="scale(0.015625)"/>
        <path id="DejaVuSans-Bold-51" d="M 4056 2131 
L 4056 0 
L 2931 0 
L 2931 347 
L 2931 1631 
Q 2931 2084 2911 2256 
Q 2891 2428 2841 2509 
Q 2775 2619 2662 2680 
Q 2550 2741 2406 2741 
Q 2056 2741 1856 2470 
Q 1656 2200 1656 1722 
L 1656 0 
L 538 0 
L 538 3500 
L 1656 3500 
L 1656 2988 
Q 1909 3294 2193 3439 
Q 2478 3584 2822 3584 
Q 3428 3584 3742 3212 
Q 4056 2841 4056 2131 
z
" transform="scale(0.015625)"/>
        <path id="DejaVuSans-Bold-19" d="M 2316 2303 
Q 2000 2303 1842 2098 
Q 1684 1894 1684 1484 
Q 1684 1075 1842 870 
Q 2000 666 2316 666 
Q 2634 666 2792 870 
Q 2950 1075 2950 1484 
Q 2950 1894 2792 2098 
Q 2634 2303 2316 2303 
z
M 3803 4544 
L 3803 3681 
Q 3506 3822 3243 3889 
Q 2981 3956 2731 3956 
Q 2194 3956 1894 3657 
Q 1594 3359 1544 2772 
Q 1750 2925 1990 3001 
Q 2231 3078 2516 3078 
Q 3231 3078 3670 2659 
Q 4109 2241 4109 1563 
Q 4109 813 3618 361 
Q 3128 -91 2303 -91 
Q 1394 -91 895 523 
Q 397 1138 397 2266 
Q 397 3422 980 4083 
Q 1563 4744 2578 4744 
Q 2900 4744 3203 4694 
Q 3506 4644 3803 4544 
z
" transform="scale(0.015625)"/>
       </defs>
       <use xlink:href="#DejaVuSans-Bold-2d"/>
       <use xlink:href="#DejaVuSans-Bold-44" transform="translate(37.203125 0)"/>
       <use xlink:href="#DejaVuSans-Bold-51" transform="translate(104.6875 0)"/>
       <use xlink:href="#DejaVuSans-Bold-3" transform="translate(175.875 0)"/>
       <use xlink:href="#DejaVuSans-Bold-a" transform="translate(210.6875 0)"/>
       <use xlink:href="#DejaVuSans-Bold-15" transform="translate(241.296875 0)"/>
       <use xlink:href="#DejaVuSans-Bold-19" transform="translate(310.875 0)"/>
      </g>
     </g>
    </g>
    <g id="xtick_3">
     <g id="line2d_5">
      <path d="M 269.594477 195.356563 
L 269.594477 24.798438 
" clip-path="url(#pcb5fb6de38)" style="fill: none; stroke-dasharray: 0.7,1.155; stroke-dashoffset: 0; stroke: #283d58; stroke-width: 0.7"/>
     </g>
     <g id="line2d_6">
      <g>
       <use xlink:href="#mc05e43c7be" x="269.594477" y="195.356563" style="fill: #58a6ff; stroke: #58a6ff; stroke-width: 0.8"/>
      </g>
     </g>
     <g id="text_3">
      <!-- Feb '26 -->
      <g style="fill: #58a6ff" transform="translate(255.305727 207.675469) scale(0.07 -0.07)">
       <defs>
        <path id="DejaVuSans-Bold-29" d="M 588 4666 
L 3834 4666 
L 3834 3756 
L 1791 3756 
L 1791 2888 
L 3713 2888 
L 3713 1978 
L 1791 1978 
L 1791 0 
L 588 0 
L 588 4666 
z
" transform="scale(0.015625)"/>
        <path id="DejaVuSans-Bold-45" d="M 2400 722 
Q 2759 722 2948 984 
Q 3138 1247 3138 1747 
Q 3138 2247 2948 2509 
Q 2759 2772 2400 2772 
Q 2041 2772 1848 2508 
Q 1656 2244 1656 1747 
Q 1656 1250 1848 986 
Q 2041 722 2400 722 
z
M 1656 2988 
Q 1888 3294 2169 3439 
Q 2450 3584 2816 3584 
Q 3463 3584 3878 3070 
Q 4294 2556 4294 1747 
Q 4294 938 3878 423 
Q 3463 -91 2816 -91 
Q 2450 -91 2169 54 
Q 1888 200 1656 506 
L 1656 0 
L 538 0 
L 538 4863 
L 1656 4863 
L 1656 2988 
z
" transform="scale(0.015625)"/>
       </defs>
       <use xlink:href="#DejaVuSans-Bold-29"/>
       <use xlink:href="#DejaVuSans-Bold-48" transform="translate(64.265625 0)"/>
       <use xlink:href="#DejaVuSans-Bold-45" transform="translate(132.09375 0)"/>
       <use xlink:href="#DejaVuSans-Bold-3" transform="translate(203.671875 0)"/>
       <use xlink:href="#DejaVuSans-Bold-a" transform="translate(238.484375 0)"/>
       <use xlink:href="#DejaVuSans-Bold-15" transform="translate(269.09375 0)"/>
       <use xlink:href="#DejaVuSans-Bold-19" transform="translate(338.671875 0)"/>
      </g>
     </g>
    </g>
    <g id="xtick_4">
     <g id="line2d_7">
      <path d="M 349.687976 195.356563 
L 349.687976 24.798438 
" clip-path="url(#pcb5fb6de38)" style="fill: none; stroke-dasharray: 0.7,1.155; stroke-dashoffset: 0; stroke: #283d58; stroke-width: 0.7"/>
     </g>
     <g id="line2d_8">
      <g>
       <use xlink:href="#mc05e43c7be" x="349.687976" y="195.356563" style="fill: #58a6ff; stroke: #58a6ff; stroke-width: 0.8"/>
      </g>
     </g>
     <g id="text_4">
      <!-- Mar '26 -->
      <g style="fill: #58a6ff" transform="translate(334.956805 207.674922) scale(0.07 -0.07)">
       <defs>
        <path id="DejaVuSans-Bold-30" d="M 588 4666 
L 2119 4666 
L 3181 2169 
L 4250 4666 
L 5778 4666 
L 5778 0 
L 4641 0 
L 4641 3413 
L 3566 897 
L 2803 897 
L 1728 3413 
L 1728 0 
L 588 0 
L 588 4666 
z
" transform="scale(0.015625)"/>
        <path id="DejaVuSans-Bold-55" d="M 3138 2547 
Q 2991 2616 2845 2648 
Q 2700 2681 2553 2681 
Q 2122 2681 1889 2404 
Q 1656 2128 1656 1613 
L 1656 0 
L 538 0 
L 538 3500 
L 1656 3500 
L 1656 2925 
Q 1872 3269 2151 3426 
Q 2431 3584 2822 3584 
Q 2878 3584 2943 3579 
Q 3009 3575 3134 3559 
L 3138 2547 
z
" transform="scale(0.015625)"/>
       </defs>
       <use xlink:href="#DejaVuSans-Bold-30"/>
       <use xlink:href="#DejaVuSans-Bold-44" transform="translate(99.515625 0)"/>
       <use xlink:href="#DejaVuSans-Bold-55" transform="translate(167 0)"/>
       <use xlink:href="#DejaVuSans-Bold-3" transform="translate(216.3125 0)"/>
       <use xlink:href="#DejaVuSans-Bold-a" transform="translate(251.125 0)"/>
       <use xlink:href="#DejaVuSans-Bold-15" transform="translate(281.734375 0)"/>
       <use xlink:href="#DejaVuSans-Bold-19" transform="translate(351.3125 0)"/>
      </g>
     </g>
    </g>
    <g id="xtick_5">
     <g id="line2d_9">
      <path d="M 438.362922 195.356563 
L 438.362922 24.798438 
" clip-path="url(#pcb5fb6de38)" style="fill: none; stroke-dasharray: 0.7,1.155; stroke-dashoffset: 0; stroke: #283d58; stroke-width: 0.7"/>
     </g>
     <g id="line2d_10">
      <g>
       <use xlink:href="#mc05e43c7be" x="438.362922" y="195.356563" style="fill: #58a6ff; stroke: #58a6ff; stroke-width: 0.8"/>
      </g>
     </g>
     <g id="text_5">
      <!-- Apr '26 -->
      <g style="fill: #58a6ff" transform="translate(424.262844 207.674922) scale(0.07 -0.07)">
       <defs>
        <path id="DejaVuSans-Bold-24" d="M 3419 850 
L 1538 850 
L 1241 0 
L 31 0 
L 1759 4666 
L 3194 4666 
L 4922 0 
L 3713 0 
L 3419 850 
z
M 1838 1716 
L 3116 1716 
L 2478 3572 
L 1838 1716 
z
" transform="scale(0.015625)"/>
        <path id="DejaVuSans-Bold-53" d="M 1656 506 
L 1656 -1331 
L 538 -1331 
L 538 3500 
L 1656 3500 
L 1656 2988 
Q 1888 3294 2169 3439 
Q 2450 3584 2816 3584 
Q 3463 3584 3878 3070 
Q 4294 2556 4294 1747 
Q 4294 938 3878 423 
Q 3463 -91 2816 -91 
Q 2450 -91 2169 54 
Q 1888 200 1656 506 
z
M 2400 2772 
Q 2041 2772 1848 2508 
Q 1656 2244 1656 1747 
Q 1656 1250 1848 986 
Q 2041 722 2400 722 
Q 2759 722 2948 984 
Q 3138 1247 3138 1747 
Q 3138 2247 2948 2509 
Q 2759 2772 2400 2772 
z
" transform="scale(0.015625)"/>
       </defs>
       <use xlink:href="#DejaVuSans-Bold-24"/>
       <use xlink:href="#DejaVuSans-Bold-53" transform="translate(77.390625 0)"/>
       <use xlink:href="#DejaVuSans-Bold-55" transform="translate(148.96875 0)"/>
       <use xlink:href="#DejaVuSans-Bold-3" transform="translate(198.28125 0)"/>
       <use xlink:href="#DejaVuSans-Bold-a" transform="translate(233.09375 0)"/>
       <use xlink:href="#DejaVuSans-Bold-15" transform="translate(263.703125 0)"/>
       <use xlink:href="#DejaVuSans-Bold-19" transform="translate(333.28125 0)"/>
      </g>
     </g>
    </g>
    <g id="xtick_6">
     <g id="line2d_11">
      <path d="M 524.177386 195.356563 
L 524.177386 24.798438 
" clip-path="url(#pcb5fb6de38)" style="fill: none; stroke-dasharray: 0.7,1.155; stroke-dashoffset: 0; stroke: #283d58; stroke-width: 0.7"/>
     </g>
     <g id="line2d_12">
      <g>
       <use xlink:href="#mc05e43c7be" x="524.177386" y="195.356563" style="fill: #58a6ff; stroke: #58a6ff; stroke-width: 0.8"/>
      </g>
     </g>
     <g id="text_6">
      <!-- May '26 -->
      <g style="fill: #58a6ff" transform="translate(508.998323 207.674922) scale(0.07 -0.07)">
       <defs>
        <path id="DejaVuSans-Bold-5c" d="M 78 3500 
L 1197 3500 
L 2138 1125 
L 2938 3500 
L 4056 3500 
L 2584 -331 
Q 2363 -916 2067 -1148 
Q 1772 -1381 1288 -1381 
L 641 -1381 
L 641 -647 
L 991 -647 
Q 1275 -647 1404 -556 
Q 1534 -466 1606 -231 
L 1638 -134 
L 78 3500 
z
" transform="scale(0.015625)"/>
       </defs>
       <use xlink:href="#DejaVuSans-Bold-30"/>
       <use xlink:href="#DejaVuSans-Bold-44" transform="translate(99.515625 0)"/>
       <use xlink:href="#DejaVuSans-Bold-5c" transform="translate(163.921875 0)"/>
       <use xlink:href="#DejaVuSans-Bold-3" transform="translate(229.109375 0)"/>
       <use xlink:href="#DejaVuSans-Bold-a" transform="translate(263.921875 0)"/>
       <use xlink:href="#DejaVuSans-Bold-15" transform="translate(294.53125 0)"/>
       <use xlink:href="#DejaVuSans-Bold-19" transform="translate(364.109375 0)"/>
      </g>
     </g>
    </g>
    <g id="xtick_7">
     <g id="line2d_13">
      <path d="M 612.852331 195.356563 
L 612.852331 24.798438 
" clip-path="url(#pcb5fb6de38)" style="fill: none; stroke-dasharray: 0.7,1.155; stroke-dashoffset: 0; stroke: #283d58; stroke-width: 0.7"/>
     </g>
     <g id="line2d_14">
      <g>
       <use xlink:href="#mc05e43c7be" x="612.852331" y="195.356563" style="fill: #58a6ff; stroke: #58a6ff; stroke-width: 0.8"/>
      </g>
     </g>
     <g id="text_7">
      <!-- Jun '26 -->
      <g style="fill: #58a6ff" transform="translate(599.406863 207.674922) scale(0.07 -0.07)">
       <defs>
        <path id="DejaVuSans-Bold-58" d="M 500 1363 
L 500 3500 
L 1625 3500 
L 1625 3150 
Q 1625 2866 1622 2436 
Q 1619 2006 1619 1863 
Q 1619 1441 1641 1255 
Q 1663 1069 1716 984 
Q 1784 875 1895 815 
Q 2006 756 2150 756 
Q 2500 756 2700 1025 
Q 2900 1294 2900 1772 
L 2900 3500 
L 4019 3500 
L 4019 0 
L 2900 0 
L 2900 506 
Q 2647 200 2364 54 
Q 2081 -91 1741 -91 
Q 1134 -91 817 281 
Q 500 653 500 1363 
z
" transform="scale(0.015625)"/>
       </defs>
       <use xlink:href="#DejaVuSans-Bold-2d"/>
       <use xlink:href="#DejaVuSans-Bold-58" transform="translate(37.203125 0)"/>
       <use xlink:href="#DejaVuSans-Bold-51" transform="translate(108.390625 0)"/>
       <use xlink:href="#DejaVuSans-Bold-3" transform="translate(179.578125 0)"/>
       <use xlink:href="#DejaVuSans-Bold-a" transform="translate(214.390625 0)"/>
       <use xlink:href="#DejaVuSans-Bold-15" transform="translate(245 0)"/>
       <use xlink:href="#DejaVuSans-Bold-19" transform="translate(314.578125 0)"/>
      </g>
     </g>
    </g>
    <g id="xtick_8">
     <g id="line2d_15">
      <path d="M 698.666795 195.356563 
L 698.666795 24.798438 
" clip-path="url(#pcb5fb6de38)" style="fill: none; stroke-dasharray: 0.7,1.155; stroke-dashoffset: 0; stroke: #283d58; stroke-width: 0.7"/>
     </g>
     <g id="line2d_16">
      <g>
       <use xlink:href="#mc05e43c7be" x="698.666795" y="195.356563" style="fill: #58a6ff; stroke: #58a6ff; stroke-width: 0.8"/>
      </g>
     </g>
     <g id="text_8">
      <!-- Jul '26 -->
      <g style="fill: #58a6ff" transform="translate(686.513045 207.675469) scale(0.07 -0.07)">
       <defs>
        <path id="DejaVuSans-Bold-4f" d="M 538 4863 
L 1656 4863 
L 1656 0 
L 538 0 
L 538 4863 
z
" transform="scale(0.015625)"/>
       </defs>
       <use xlink:href="#DejaVuSans-Bold-2d"/>
       <use xlink:href="#DejaVuSans-Bold-58" transform="translate(37.203125 0)"/>
       <use xlink:href="#DejaVuSans-Bold-4f" transform="translate(108.390625 0)"/>
       <use xlink:href="#DejaVuSans-Bold-3" transform="translate(142.671875 0)"/>
       <use xlink:href="#DejaVuSans-Bold-a" transform="translate(177.484375 0)"/>
       <use xlink:href="#DejaVuSans-Bold-15" transform="translate(208.09375 0)"/>
       <use xlink:href="#DejaVuSans-Bold-19" transform="translate(277.671875 0)"/>
      </g>
     </g>
    </g>
    <g id="text_9">
     <!-- Month -->
     <g style="fill: #58a6ff" transform="translate(356.262609 219.435859) scale(0.08 -0.08)">
      <defs>
       <path id="DejaVuSans-Bold-52" d="M 2203 2784 
Q 1831 2784 1636 2517 
Q 1441 2250 1441 1747 
Q 1441 1244 1636 976 
Q 1831 709 2203 709 
Q 2569 709 2762 976 
Q 2956 1244 2956 1747 
Q 2956 2250 2762 2517 
Q 2569 2784 2203 2784 
z
M 2203 3584 
Q 3106 3584 3614 3096 
Q 4122 2609 4122 1747 
Q 4122 884 3614 396 
Q 3106 -91 2203 -91 
Q 1297 -91 786 396 
Q 275 884 275 1747 
Q 275 2609 786 3096 
Q 1297 3584 2203 3584 
z
" transform="scale(0.015625)"/>
       <path id="DejaVuSans-Bold-57" d="M 1759 4494 
L 1759 3500 
L 2913 3500 
L 2913 2700 
L 1759 2700 
L 1759 1216 
Q 1759 972 1856 886 
Q 1953 800 2241 800 
L 2816 800 
L 2816 0 
L 1856 0 
Q 1194 0 917 276 
Q 641 553 641 1216 
L 641 2700 
L 84 2700 
L 84 3500 
L 641 3500 
L 641 4494 
L 1759 4494 
z
" transform="scale(0.015625)"/>
       <path id="DejaVuSans-Bold-4b" d="M 4056 2131 
L 4056 0 
L 2931 0 
L 2931 347 
L 2931 1625 
Q 2931 2084 2911 2256 
Q 2891 2428 2841 2509 
Q 2775 2619 2662 2680 
Q 2550 2741 2406 2741 
Q 2056 2741 1856 2470 
Q 1656 2200 1656 1722 
L 1656 0 
L 538 0 
L 538 4863 
L 1656 4863 
L 1656 2988 
Q 1909 3294 2193 3439 
Q 2478 3584 2822 3584 
Q 3428 3584 3742 3212 
Q 4056 2841 4056 2131 
z
" transform="scale(0.015625)"/>
      </defs>
      <use xlink:href="#DejaVuSans-Bold-30"/>
      <use xlink:href="#DejaVuSans-Bold-52" transform="translate(99.515625 0)"/>
      <use xlink:href="#DejaVuSans-Bold-51" transform="translate(168.21875 0)"/>
      <use xlink:href="#DejaVuSans-Bold-57" transform="translate(239.40625 0)"/>
      <use xlink:href="#DejaVuSans-Bold-4b" transform="translate(287.203125 0)"/>
     </g>
    </g>
   </g>
   <g id="matplotlib.axis_2">
    <g id="ytick_1">
     <g id="line2d_17">
      <path d="M 40.811406 195.356563 
L 700.385061 195.356563 
" clip-path="url(#pcb5fb6de38)" style="fill: none; stroke-dasharray: 0.7,1.155; stroke-dashoffset: 0; stroke: #283d58; stroke-width: 0.7"/>
     </g>
     <g id="line2d_18">
      <defs>
       <path id="mf283b4a2eb" d="M 0 0 
L -3.5 0 
" style="stroke: #58a6ff; stroke-width: 0.8"/>
      </defs>
      <g>
       <use xlink:href="#mf283b4a2eb" x="40.811406" y="195.356563" style="fill: #58a6ff; stroke: #58a6ff; stroke-width: 0.8"/>
      </g>
     </g>
     <g id="text_10">
      <!-- 0 -->
      <g style="fill: #58a6ff" transform="translate(28.940938 198.015742) scale(0.07 -0.07)">
       <defs>
        <path id="DejaVuSans-Bold-13" d="M 2944 2338 
Q 2944 3213 2780 3570 
Q 2616 3928 2228 3928 
Q 1841 3928 1675 3570 
Q 1509 3213 1509 2338 
Q 1509 1453 1675 1090 
Q 1841 728 2228 728 
Q 2613 728 2778 1090 
Q 2944 1453 2944 2338 
z
M 4147 2328 
Q 4147 1169 3647 539 
Q 3147 -91 2228 -91 
Q 1306 -91 806 539 
Q 306 1169 306 2328 
Q 306 3491 806 4120 
Q 1306 4750 2228 4750 
Q 3147 4750 3647 4120 
Q 4147 3491 4147 2328 
z
" transform="scale(0.015625)"/>
       </defs>
       <use xlink:href="#DejaVuSans-Bold-13"/>
      </g>
     </g>
    </g>
    <g id="ytick_2">
     <g id="line2d_19">
      <path d="M 40.811406 172.615479 
L 700.385061 172.615479 
" clip-path="url(#pcb5fb6de38)" style="fill: none; stroke-dasharray: 0.7,1.155; stroke-dashoffset: 0; stroke: #283d58; stroke-width: 0.7"/>
     </g>
     <g id="line2d_20">
      <g>
       <use xlink:href="#mf283b4a2eb" x="40.811406" y="172.615479" style="fill: #58a6ff; stroke: #58a6ff; stroke-width: 0.8"/>
      </g>
     </g>
     <g id="text_11">
      <!-- 28 -->
      <g style="fill: #58a6ff" transform="translate(24.070469 175.274659) scale(0.07 -0.07)">
       <defs>
        <path id="DejaVuSans-Bold-1b" d="M 2228 2088 
Q 1891 2088 1709 1903 
Q 1528 1719 1528 1375 
Q 1528 1031 1709 848 
Q 1891 666 2228 666 
Q 2563 666 2741 848 
Q 2919 1031 2919 1375 
Q 2919 1722 2741 1905 
Q 2563 2088 2228 2088 
z
M 1350 2484 
Q 925 2613 709 2878 
Q 494 3144 494 3541 
Q 494 4131 934 4440 
Q 1375 4750 2228 4750 
Q 3075 4750 3515 4442 
Q 3956 4134 3956 3541 
Q 3956 3144 3739 2878 
Q 3522 2613 3097 2484 
Q 3572 2353 3814 2058 
Q 4056 1763 4056 1313 
Q 4056 619 3595 264 
Q 3134 -91 2228 -91 
Q 1319 -91 855 264 
Q 391 619 391 1313 
Q 391 1763 633 2058 
Q 875 2353 1350 2484 
z
M 1631 3419 
Q 1631 3141 1786 2991 
Q 1941 2841 2228 2841 
Q 2509 2841 2662 2991 
Q 2816 3141 2816 3419 
Q 2816 3697 2662 3845 
Q 2509 3994 2228 3994 
Q 1941 3994 1786 3844 
Q 1631 3694 1631 3419 
z
" transform="scale(0.015625)"/>
       </defs>
       <use xlink:href="#DejaVuSans-Bold-15"/>
       <use xlink:href="#DejaVuSans-Bold-1b" transform="translate(69.578125 0)"/>
      </g>
     </g>
    </g>
    <g id="ytick_3">
     <g id="line2d_21">
      <path d="M 40.811406 149.874396 
L 700.385061 149.874396 
" clip-path="url(#pcb5fb6de38)" style="fill: none; stroke-dasharray: 0.7,1.155; stroke-dashoffset: 0; stroke: #283d58; stroke-width: 0.7"/>
     </g>
     <g id="line2d_22">
      <g>
       <use xlink:href="#mf283b4a2eb" x="40.811406" y="149.874396" style="fill: #58a6ff; stroke: #58a6ff; stroke-width: 0.8"/>
      </g>
     </g>
     <g id="text_12">
      <!-- 56 -->
      <g style="fill: #58a6ff" transform="translate(24.070469 152.533576) scale(0.07 -0.07)">
       <use xlink:href="#DejaVuSans-Bold-18"/>
       <use xlink:href="#DejaVuSans-Bold-19" transform="translate(69.578125 0)"/>
      </g>
     </g>
    </g>
    <g id="ytick_4">
     <g id="line2d_23">
      <path d="M 40.811406 127.133313 
L 700.385061 127.133313 
" clip-path="url(#pcb5fb6de38)" style="fill: none; stroke-dasharray: 0.7,1.155; stroke-dashoffset: 0; stroke: #283d58; stroke-width: 0.7"/>
     </g>
     <g id="line2d_24">
      <g>
       <use xlink:href="#mf283b4a2eb" x="40.811406" y="127.133313" style="fill: #58a6ff; stroke: #58a6ff; stroke-width: 0.8"/>
      </g>
     </g>
     <g id="text_13">
      <!-- 84 -->
      <g style="fill: #58a6ff" transform="translate(24.070469 129.792492) scale(0.07 -0.07)">
       <defs>
        <path id="DejaVuSans-Bold-17" d="M 2356 3675 
L 1038 1722 
L 2356 1722 
L 2356 3675 
z
M 2156 4666 
L 3494 4666 
L 3494 1722 
L 4159 1722 
L 4159 850 
L 3494 850 
L 3494 0 
L 2356 0 
L 2356 850 
L 288 850 
L 288 1881 
L 2156 4666 
z
" transform="scale(0.015625)"/>
       </defs>
       <use xlink:href="#DejaVuSans-Bold-1b"/>
       <use xlink:href="#DejaVuSans-Bold-17" transform="translate(69.578125 0)"/>
      </g>
     </g>
    </g>
    <g id="ytick_5">
     <g id="line2d_25">
      <path d="M 40.811406 104.392229 
L 700.385061 104.392229 
" clip-path="url(#pcb5fb6de38)" style="fill: none; stroke-dasharray: 0.7,1.155; stroke-dashoffset: 0; stroke: #283d58; stroke-width: 0.7"/>
     </g>
     <g id="line2d_26">
      <g>
       <use xlink:href="#mf283b4a2eb" x="40.811406" y="104.392229" style="fill: #58a6ff; stroke: #58a6ff; stroke-width: 0.8"/>
      </g>
     </g>
     <g id="text_14">
      <!-- 112 -->
      <g style="fill: #58a6ff" transform="translate(19.2 107.051409) scale(0.07 -0.07)">
       <defs>
        <path id="DejaVuSans-Bold-14" d="M 750 831 
L 1813 831 
L 1813 3847 
L 722 3622 
L 722 4441 
L 1806 4666 
L 2950 4666 
L 2950 831 
L 4013 831 
L 4013 0 
L 750 0 
L 750 831 
z
" transform="scale(0.015625)"/>
       </defs>
       <use xlink:href="#DejaVuSans-Bold-14"/>
       <use xlink:href="#DejaVuSans-Bold-14" transform="translate(69.578125 0)"/>
       <use xlink:href="#DejaVuSans-Bold-15" transform="translate(139.15625 0)"/>
      </g>
     </g>
    </g>
    <g id="ytick_6">
     <g id="line2d_27">
      <path d="M 40.811406 81.651146 
L 700.385061 81.651146 
" clip-path="url(#pcb5fb6de38)" style="fill: none; stroke-dasharray: 0.7,1.155; stroke-dashoffset: 0; stroke: #283d58; stroke-width: 0.7"/>
     </g>
     <g id="line2d_28">
      <g>
       <use xlink:href="#mf283b4a2eb" x="40.811406" y="81.651146" style="fill: #58a6ff; stroke: #58a6ff; stroke-width: 0.8"/>
      </g>
     </g>
     <g id="text_15">
      <!-- 140 -->
      <g style="fill: #58a6ff" transform="translate(19.2 84.310326) scale(0.07 -0.07)">
       <use xlink:href="#DejaVuSans-Bold-14"/>
       <use xlink:href="#DejaVuSans-Bold-17" transform="translate(69.578125 0)"/>
       <use xlink:href="#DejaVuSans-Bold-13" transform="translate(139.15625 0)"/>
      </g>
     </g>
    </g>
    <g id="ytick_7">
     <g id="line2d_29">
      <path d="M 40.811406 58.910062 
L 700.385061 58.910062 
" clip-path="url(#pcb5fb6de38)" style="fill: none; stroke-dasharray: 0.7,1.155; stroke-dashoffset: 0; stroke: #283d58; stroke-width: 0.7"/>
     </g>
     <g id="line2d_30">
      <g>
       <use xlink:href="#mf283b4a2eb" x="40.811406" y="58.910062" style="fill: #58a6ff; stroke: #58a6ff; stroke-width: 0.8"/>
      </g>
     </g>
     <g id="text_16">
      <!-- 168 -->
      <g style="fill: #58a6ff" transform="translate(19.2 61.569242) scale(0.07 -0.07)">
       <use xlink:href="#DejaVuSans-Bold-14"/>
       <use xlink:href="#DejaVuSans-Bold-19" transform="translate(69.578125 0)"/>
       <use xlink:href="#DejaVuSans-Bold-1b" transform="translate(139.15625 0)"/>
      </g>
     </g>
    </g>
    <g id="ytick_8">
     <g id="line2d_31">
      <path d="M 40.811406 36.168979 
L 700.385061 36.168979 
" clip-path="url(#pcb5fb6de38)" style="fill: none; stroke-dasharray: 0.7,1.155; stroke-dashoffset: 0; stroke: #283d58; stroke-width: 0.7"/>
     </g>
     <g id="line2d_32">
      <g>
       <use xlink:href="#mf283b4a2eb" x="40.811406" y="36.168979" style="fill: #58a6ff; stroke: #58a6ff; stroke-width: 0.8"/>
      </g>
     </g>
     <g id="text_17">
      <!-- 196 -->
      <g style="fill: #58a6ff" transform="translate(19.2 38.828159) scale(0.07 -0.07)">
       <defs>
        <path id="DejaVuSans-Bold-1c" d="M 641 103 
L 641 966 
Q 928 831 1190 764 
Q 1453 697 1709 697 
Q 2247 697 2547 995 
Q 2847 1294 2900 1881 
Q 2688 1725 2447 1647 
Q 2206 1569 1925 1569 
Q 1209 1569 770 1986 
Q 331 2403 331 3084 
Q 331 3838 820 4291 
Q 1309 4744 2131 4744 
Q 3044 4744 3544 4128 
Q 4044 3513 4044 2388 
Q 4044 1231 3459 570 
Q 2875 -91 1856 -91 
Q 1528 -91 1228 -42 
Q 928 6 641 103 
z
M 2125 2350 
Q 2441 2350 2600 2554 
Q 2759 2759 2759 3169 
Q 2759 3575 2600 3781 
Q 2441 3988 2125 3988 
Q 1809 3988 1650 3781 
Q 1491 3575 1491 3169 
Q 1491 2759 1650 2554 
Q 1809 2350 2125 2350 
z
" transform="scale(0.015625)"/>
       </defs>
       <use xlink:href="#DejaVuSans-Bold-14"/>
       <use xlink:href="#DejaVuSans-Bold-1c" transform="translate(69.578125 0)"/>
       <use xlink:href="#DejaVuSans-Bold-19" transform="translate(139.15625 0)"/>
      </g>
     </g>
    </g>
    <g id="text_18">
     <!-- Stars -->
     <g style="fill: #58a6ff" transform="translate(13.278125 121.9225) rotate(-90) scale(0.08 -0.08)">
      <defs>
       <path id="DejaVuSans-Bold-36" d="M 3834 4519 
L 3834 3531 
Q 3450 3703 3084 3790 
Q 2719 3878 2394 3878 
Q 1963 3878 1756 3759 
Q 1550 3641 1550 3391 
Q 1550 3203 1689 3098 
Q 1828 2994 2194 2919 
L 2706 2816 
Q 3484 2659 3812 2340 
Q 4141 2022 4141 1434 
Q 4141 663 3683 286 
Q 3225 -91 2284 -91 
Q 1841 -91 1394 -6 
Q 947 78 500 244 
L 500 1259 
Q 947 1022 1364 901 
Q 1781 781 2169 781 
Q 2563 781 2772 912 
Q 2981 1044 2981 1288 
Q 2981 1506 2839 1625 
Q 2697 1744 2272 1838 
L 1806 1941 
Q 1106 2091 782 2419 
Q 459 2747 459 3303 
Q 459 4000 909 4375 
Q 1359 4750 2203 4750 
Q 2588 4750 2994 4692 
Q 3400 4634 3834 4519 
z
" transform="scale(0.015625)"/>
       <path id="DejaVuSans-Bold-56" d="M 3272 3391 
L 3272 2541 
Q 2913 2691 2578 2766 
Q 2244 2841 1947 2841 
Q 1628 2841 1473 2761 
Q 1319 2681 1319 2516 
Q 1319 2381 1436 2309 
Q 1553 2238 1856 2203 
L 2053 2175 
Q 2913 2066 3209 1816 
Q 3506 1566 3506 1031 
Q 3506 472 3093 190 
Q 2681 -91 1863 -91 
Q 1516 -91 1145 -36 
Q 775 19 384 128 
L 384 978 
Q 719 816 1070 734 
Q 1422 653 1784 653 
Q 2113 653 2278 743 
Q 2444 834 2444 1013 
Q 2444 1163 2330 1236 
Q 2216 1309 1875 1350 
L 1678 1375 
Q 931 1469 631 1722 
Q 331 1975 331 2491 
Q 331 3047 712 3315 
Q 1094 3584 1881 3584 
Q 2191 3584 2531 3537 
Q 2872 3491 3272 3391 
z
" transform="scale(0.015625)"/>
      </defs>
      <use xlink:href="#DejaVuSans-Bold-36"/>
      <use xlink:href="#DejaVuSans-Bold-57" transform="translate(72.015625 0)"/>
      <use xlink:href="#DejaVuSans-Bold-44" transform="translate(119.8125 0)"/>
      <use xlink:href="#DejaVuSans-Bold-55" transform="translate(187.296875 0)"/>
      <use xlink:href="#DejaVuSans-Bold-56" transform="translate(236.609375 0)"/>
     </g>
    </g>
   </g>
   <g id="FillBetweenPolyCollection_1">
    <defs>
     <path id="m99f6e0b4a2" d="M 53.495515 -33.201172 
L 53.495515 -34.013353 
L 57.952537 -34.825535 
L 58.750128 -35.637717 
L 58.901859 -36.449898 
L 59.208732 -37.26208 
L 59.242469 -38.074261 
L 60.290021 -38.886443 
L 64.546676 -39.698624 
L 69.393406 -40.510806 
L 70.096475 -41.322987 
L 70.252113 -42.135169 
L 70.332101 -42.94735 
L 70.675888 -43.759532 
L 70.709062 -44.571714 
L 71.025933 -45.383895 
L 72.345364 -46.196077 
L 73.445921 -47.008258 
L 74.77386 -47.82044 
L 75.523777 -48.632621 
L 93.168482 -49.444803 
L 98.876766 -50.256984 
L 104.619813 -51.069166 
L 111.087416 -51.881347 
L 111.568566 -52.693529 
L 116.621091 -53.505711 
L 116.774114 -54.317892 
L 126.269789 -55.130074 
L 132.638765 -55.942255 
L 151.29765 -56.754437 
L 173.410567 -57.566618 
L 173.546308 -58.3788 
L 174.524665 -59.190981 
L 175.263822 -60.003163 
L 175.602544 -60.815344 
L 175.904219 -61.627526 
L 176.062241 -62.439708 
L 178.606017 -63.251889 
L 178.840517 -64.064071 
L 179.546335 -64.876252 
L 179.606093 -65.688434 
L 179.867079 -66.500615 
L 179.91727 -67.312797 
L 181.118673 -68.124978 
L 181.429187 -68.93716 
L 181.551486 -69.749342 
L 182.462901 -70.561523 
L 182.826056 -71.373705 
L 183.411429 -72.185886 
L 184.783169 -72.998068 
L 185.481702 -73.810249 
L 185.707959 -74.622431 
L 185.9217 -75.434612 
L 186.13276 -76.246794 
L 186.854403 -77.058975 
L 189.911808 -77.871157 
L 191.055272 -78.683339 
L 192.2334 -79.49552 
L 192.326134 -80.307702 
L 193.721646 -81.119883 
L 197.024774 -81.932065 
L 198.328909 -82.744246 
L 201.808699 -83.556428 
L 203.286548 -84.368609 
L 205.515473 -85.180791 
L 213.035363 -85.992972 
L 213.584118 -86.805154 
L 213.988691 -87.617336 
L 226.143688 -88.429517 
L 226.620335 -89.241699 
L 238.113282 -90.05388 
L 260.587633 -90.866062 
L 267.313143 -91.678243 
L 271.362315 -92.490425 
L 272.530146 -93.302606 
L 280.170911 -94.114788 
L 283.883645 -94.926969 
L 283.956382 -95.739151 
L 284.784862 -96.551333 
L 286.35773 -97.363514 
L 287.301093 -98.175696 
L 298.41453 -98.987877 
L 299.071149 -99.800059 
L 299.324719 -100.61224 
L 299.345875 -101.424422 
L 300.049309 -102.236603 
L 300.736519 -103.048785 
L 303.177862 -103.860967 
L 307.350855 -104.673148 
L 309.897313 -105.48533 
L 316.475329 -106.297511 
L 317.157442 -107.109693 
L 317.511492 -107.921874 
L 317.628262 -108.734056 
L 331.062695 -109.546237 
L 333.21352 -110.358419 
L 335.143186 -111.1706 
L 336.130781 -111.982782 
L 336.589153 -112.794964 
L 341.251938 -113.607145 
L 343.016862 -114.419327 
L 343.1628 -115.231508 
L 344.019951 -116.04369 
L 345.032078 -116.855871 
L 345.036813 -117.668053 
L 345.239132 -118.480234 
L 345.297401 -119.292416 
L 345.2976 -120.104597 
L 345.565108 -120.916779 
L 347.948413 -121.728961 
L 347.952684 -122.541142 
L 348.424034 -123.353324 
L 348.436085 -124.165505 
L 349.676521 -124.977687 
L 349.748795 -125.789868 
L 350.463882 -126.60205 
L 352.21649 -127.414231 
L 353.466528 -128.226413 
L 355.539748 -129.038594 
L 356.397396 -129.850776 
L 357.028788 -130.662958 
L 361.036178 -131.475139 
L 362.115017 -132.287321 
L 362.477411 -133.099502 
L 366.75542 -133.911684 
L 368.014893 -134.723865 
L 368.525741 -135.536047 
L 376.31496 -136.348228 
L 377.383701 -137.16041 
L 377.963743 -137.972592 
L 379.790942 -138.784773 
L 380.473948 -139.596955 
L 386.19425 -140.409136 
L 389.047217 -141.221318 
L 400.884084 -142.033499 
L 407.469417 -142.845681 
L 411.02105 -143.657862 
L 433.796282 -144.470044 
L 439.750289 -145.282225 
L 448.824705 -146.094407 
L 448.932536 -146.906589 
L 451.216916 -147.71877 
L 460.222137 -148.530952 
L 462.77078 -149.343133 
L 464.605859 -150.155315 
L 468.027016 -150.967496 
L 468.539022 -151.779678 
L 469.325423 -152.591859 
L 474.243433 -153.404041 
L 480.282195 -154.216222 
L 481.063266 -155.028404 
L 482.816999 -155.840586 
L 483.676005 -156.652767 
L 488.838877 -157.464949 
L 497.102856 -158.27713 
L 509.453981 -159.089312 
L 511.104718 -159.901493 
L 512.115156 -160.713675 
L 520.068853 -161.525856 
L 526.267425 -162.338038 
L 532.932315 -163.150219 
L 560.757522 -163.962401 
L 561.447879 -164.774583 
L 565.94996 -165.586764 
L 573.061337 -166.398946 
L 573.245348 -167.211127 
L 573.583044 -168.023309 
L 574.148055 -168.83549 
L 574.750776 -169.647672 
L 574.778917 -170.459853 
L 577.171095 -171.272035 
L 585.595612 -172.084217 
L 589.21432 -172.896398 
L 589.88703 -173.70858 
L 591.701251 -174.520761 
L 593.64969 -175.332943 
L 603.932726 -176.145124 
L 613.499516 -176.957306 
L 618.823555 -177.769487 
L 620.871978 -178.581669 
L 622.334797 -179.39385 
L 623.304315 -180.206032 
L 623.721998 -181.018214 
L 628.576408 -181.830395 
L 633.979475 -182.642577 
L 635.719105 -183.454758 
L 637.122959 -184.26694 
L 641.058572 -185.079121 
L 642.101953 -185.891303 
L 643.023399 -186.703484 
L 644.50052 -187.515666 
L 651.511052 -188.327847 
L 651.800643 -189.140029 
L 652.878157 -189.952211 
L 656.619032 -190.764392 
L 660.97021 -191.576574 
L 671.125451 -192.388755 
L 687.700953 -192.388755 
L 687.700953 -33.201172 
L 687.700953 -33.201172 
L 671.125451 -33.201172 
L 660.97021 -33.201172 
L 656.619032 -33.201172 
L 652.878157 -33.201172 
L 651.800643 -33.201172 
L 651.511052 -33.201172 
L 644.50052 -33.201172 
L 643.023399 -33.201172 
L 642.101953 -33.201172 
L 641.058572 -33.201172 
L 637.122959 -33.201172 
L 635.719105 -33.201172 
L 633.979475 -33.201172 
L 628.576408 -33.201172 
L 623.721998 -33.201172 
L 623.304315 -33.201172 
L 622.334797 -33.201172 
L 620.871978 -33.201172 
L 618.823555 -33.201172 
L 613.499516 -33.201172 
L 603.932726 -33.201172 
L 593.64969 -33.201172 
L 591.701251 -33.201172 
L 589.88703 -33.201172 
L 589.21432 -33.201172 
L 585.595612 -33.201172 
L 577.171095 -33.201172 
L 574.778917 -33.201172 
L 574.750776 -33.201172 
L 574.148055 -33.201172 
L 573.583044 -33.201172 
L 573.245348 -33.201172 
L 573.061337 -33.201172 
L 565.94996 -33.201172 
L 561.447879 -33.201172 
L 560.757522 -33.201172 
L 532.932315 -33.201172 
L 526.267425 -33.201172 
L 520.068853 -33.201172 
L 512.115156 -33.201172 
L 511.104718 -33.201172 
L 509.453981 -33.201172 
L 497.102856 -33.201172 
L 488.838877 -33.201172 
L 483.676005 -33.201172 
L 482.816999 -33.201172 
L 481.063266 -33.201172 
L 480.282195 -33.201172 
L 474.243433 -33.201172 
L 469.325423 -33.201172 
L 468.539022 -33.201172 
L 468.027016 -33.201172 
L 464.605859 -33.201172 
L 462.77078 -33.201172 
L 460.222137 -33.201172 
L 451.216916 -33.201172 
L 448.932536 -33.201172 
L 448.824705 -33.201172 
L 439.750289 -33.201172 
L 433.796282 -33.201172 
L 411.02105 -33.201172 
L 407.469417 -33.201172 
L 400.884084 -33.201172 
L 389.047217 -33.201172 
L 386.19425 -33.201172 
L 380.473948 -33.201172 
L 379.790942 -33.201172 
L 377.963743 -33.201172 
L 377.383701 -33.201172 
L 376.31496 -33.201172 
L 368.525741 -33.201172 
L 368.014893 -33.201172 
L 366.75542 -33.201172 
L 362.477411 -33.201172 
L 362.115017 -33.201172 
L 361.036178 -33.201172 
L 357.028788 -33.201172 
L 356.397396 -33.201172 
L 355.539748 -33.201172 
L 353.466528 -33.201172 
L 352.21649 -33.201172 
L 350.463882 -33.201172 
L 349.748795 -33.201172 
L 349.676521 -33.201172 
L 348.436085 -33.201172 
L 348.424034 -33.201172 
L 347.952684 -33.201172 
L 347.948413 -33.201172 
L 345.565108 -33.201172 
L 345.2976 -33.201172 
L 345.297401 -33.201172 
L 345.239132 -33.201172 
L 345.036813 -33.201172 
L 345.032078 -33.201172 
L 344.019951 -33.201172 
L 343.1628 -33.201172 
L 343.016862 -33.201172 
L 341.251938 -33.201172 
L 336.589153 -33.201172 
L 336.130781 -33.201172 
L 335.143186 -33.201172 
L 333.21352 -33.201172 
L 331.062695 -33.201172 
L 317.628262 -33.201172 
L 317.511492 -33.201172 
L 317.157442 -33.201172 
L 316.475329 -33.201172 
L 309.897313 -33.201172 
L 307.350855 -33.201172 
L 303.177862 -33.201172 
L 300.736519 -33.201172 
L 300.049309 -33.201172 
L 299.345875 -33.201172 
L 299.324719 -33.201172 
L 299.071149 -33.201172 
L 298.41453 -33.201172 
L 287.301093 -33.201172 
L 286.35773 -33.201172 
L 284.784862 -33.201172 
L 283.956382 -33.201172 
L 283.883645 -33.201172 
L 280.170911 -33.201172 
L 272.530146 -33.201172 
L 271.362315 -33.201172 
L 267.313143 -33.201172 
L 260.587633 -33.201172 
L 238.113282 -33.201172 
L 226.620335 -33.201172 
L 226.143688 -33.201172 
L 213.988691 -33.201172 
L 213.584118 -33.201172 
L 213.035363 -33.201172 
L 205.515473 -33.201172 
L 203.286548 -33.201172 
L 201.808699 -33.201172 
L 198.328909 -33.201172 
L 197.024774 -33.201172 
L 193.721646 -33.201172 
L 192.326134 -33.201172 
L 192.2334 -33.201172 
L 191.055272 -33.201172 
L 189.911808 -33.201172 
L 186.854403 -33.201172 
L 186.13276 -33.201172 
L 185.9217 -33.201172 
L 185.707959 -33.201172 
L 185.481702 -33.201172 
L 184.783169 -33.201172 
L 183.411429 -33.201172 
L 182.826056 -33.201172 
L 182.462901 -33.201172 
L 181.551486 -33.201172 
L 181.429187 -33.201172 
L 181.118673 -33.201172 
L 179.91727 -33.201172 
L 179.867079 -33.201172 
L 179.606093 -33.201172 
L 179.546335 -33.201172 
L 178.840517 -33.201172 
L 178.606017 -33.201172 
L 176.062241 -33.201172 
L 175.904219 -33.201172 
L 175.602544 -33.201172 
L 175.263822 -33.201172 
L 174.524665 -33.201172 
L 173.546308 -33.201172 
L 173.410567 -33.201172 
L 151.29765 -33.201172 
L 132.638765 -33.201172 
L 126.269789 -33.201172 
L 116.774114 -33.201172 
L 116.621091 -33.201172 
L 111.568566 -33.201172 
L 111.087416 -33.201172 
L 104.619813 -33.201172 
L 98.876766 -33.201172 
L 93.168482 -33.201172 
L 75.523777 -33.201172 
L 74.77386 -33.201172 
L 73.445921 -33.201172 
L 72.345364 -33.201172 
L 71.025933 -33.201172 
L 70.709062 -33.201172 
L 70.675888 -33.201172 
L 70.332101 -33.201172 
L 70.252113 -33.201172 
L 70.096475 -33.201172 
L 69.393406 -33.201172 
L 64.546676 -33.201172 
L 60.290021 -33.201172 
L 59.242469 -33.201172 
L 59.208732 -33.201172 
L 58.901859 -33.201172 
L 58.750128 -33.201172 
L 57.952537 -33.201172 
L 53.495515 -33.201172 
z
" style="stroke: #1f6feb; stroke-opacity: 0.15"/>
    </defs>
    <g clip-path="url(#pcb5fb6de38)">
     <use xlink:href="#m99f6e0b4a2" x="0" y="228.557734" style="fill: #1f6feb; fill-opacity: 0.15; stroke: #1f6feb; stroke-opacity: 0.15"/>
    </g>
   </g>
   <g id="patch_3">
    <path d="M 40.811406 195.356563 
L 40.811406 24.798437 
" style="fill: none; stroke: #283d58; stroke-width: 0.8; stroke-linejoin: miter; stroke-linecap: square"/>
   </g>
   <g id="patch_4">
    <path d="M 700.385061 195.356563 
L 700.385061 24.798437 
" style="fill: none; stroke: #283d58; stroke-width: 0.8; stroke-linejoin: miter; stroke-linecap: square"/>
   </g>
   <g id="patch_5">
    <path d="M 40.811406 195.356563 
L 700.385061 195.356563 
" style="fill: none; stroke: #283d58; stroke-width: 0.8; stroke-linejoin: miter; stroke-linecap: square"/>
   </g>
   <g id="patch_6">
    <path d="M 40.811406 24.798438 
L 700.385061 24.798438 
" style="fill: none; stroke: #283d58; stroke-width: 0.8; stroke-linejoin: miter; stroke-linecap: square"/>
   </g>
   <g id="line2d_33">
    <path d="M 53.495515 194.544381 
L 57.952537 193.732199 
L 58.750128 192.920018 
L 58.901859 192.107836 
L 59.208732 191.295655 
L 59.242469 190.483473 
L 60.290021 189.671292 
L 69.393406 188.046929 
L 70.096475 187.234747 
L 70.709062 183.986021 
L 71.025933 183.173839 
L 72.345364 182.361658 
L 73.445921 181.549476 
L 74.77386 180.737295 
L 75.523777 179.925113 
L 93.168482 179.112932 
L 104.619813 177.488568 
L 111.087416 176.676387 
L 111.568566 175.864205 
L 116.621091 175.052024 
L 116.774114 174.239842 
L 126.269789 173.427661 
L 132.638765 172.615479 
L 151.29765 171.803298 
L 173.410567 170.991116 
L 173.546308 170.178935 
L 174.524665 169.366753 
L 175.263822 168.554571 
L 175.904219 166.930208 
L 176.062241 166.118027 
L 178.606017 165.305845 
L 178.840517 164.493664 
L 179.546335 163.681482 
L 179.606093 162.869301 
L 179.867079 162.057119 
L 179.91727 161.244938 
L 181.118673 160.432756 
L 181.429187 159.620574 
L 181.551486 158.808393 
L 182.462901 157.996211 
L 182.826056 157.18403 
L 183.411429 156.371848 
L 184.783169 155.559667 
L 185.481702 154.747485 
L 186.13276 152.31094 
L 186.854403 151.498759 
L 189.911808 150.686577 
L 192.2334 149.062214 
L 192.326134 148.250033 
L 193.721646 147.437851 
L 197.024774 146.62567 
L 198.328909 145.813488 
L 201.808699 145.001307 
L 203.286548 144.189125 
L 205.515473 143.376943 
L 213.035363 142.564762 
L 213.584118 141.75258 
L 213.988691 140.940399 
L 226.143688 140.128217 
L 226.620335 139.316036 
L 238.113282 138.503854 
L 260.587633 137.691673 
L 267.313143 136.879491 
L 271.362315 136.06731 
L 272.530146 135.255128 
L 280.170911 134.442946 
L 283.883645 133.630765 
L 283.956382 132.818583 
L 284.784862 132.006402 
L 286.35773 131.19422 
L 287.301093 130.382039 
L 298.41453 129.569857 
L 299.071149 128.757676 
L 299.324719 127.945494 
L 299.345875 127.133313 
L 300.736519 125.508949 
L 303.177862 124.696768 
L 307.350855 123.884586 
L 309.897313 123.072405 
L 316.475329 122.260223 
L 317.157442 121.448042 
L 317.511492 120.63586 
L 317.628262 119.823679 
L 331.062695 119.011497 
L 335.143186 117.387134 
L 336.130781 116.574952 
L 336.589153 115.762771 
L 341.251938 114.950589 
L 343.016862 114.138408 
L 343.1628 113.326226 
L 345.032078 111.701863 
L 345.036813 110.889682 
L 345.239132 110.0775 
L 345.2976 108.453137 
L 345.565108 107.640955 
L 347.948413 106.828774 
L 347.952684 106.016592 
L 348.424034 105.204411 
L 348.436085 104.392229 
L 349.676521 103.580048 
L 349.748795 102.767866 
L 350.463882 101.955685 
L 352.21649 101.143503 
L 353.466528 100.331321 
L 355.539748 99.51914 
L 356.397396 98.706958 
L 357.028788 97.894777 
L 361.036178 97.082595 
L 362.115017 96.270414 
L 362.477411 95.458232 
L 366.75542 94.646051 
L 368.014893 93.833869 
L 368.525741 93.021687 
L 376.31496 92.209506 
L 377.383701 91.397324 
L 377.963743 90.585143 
L 379.790942 89.772961 
L 380.473948 88.96078 
L 386.19425 88.148598 
L 389.047217 87.336417 
L 400.884084 86.524235 
L 407.469417 85.712054 
L 411.02105 84.899872 
L 433.796282 84.08769 
L 439.750289 83.275509 
L 448.824705 82.463327 
L 448.932536 81.651146 
L 451.216916 80.838964 
L 460.222137 80.026783 
L 462.77078 79.214601 
L 464.605859 78.40242 
L 468.027016 77.590238 
L 468.539022 76.778057 
L 469.325423 75.965875 
L 474.243433 75.153693 
L 480.282195 74.341512 
L 481.063266 73.52933 
L 482.816999 72.717149 
L 483.676005 71.904967 
L 488.838877 71.092786 
L 497.102856 70.280604 
L 509.453981 69.468423 
L 511.104718 68.656241 
L 512.115156 67.84406 
L 520.068853 67.031878 
L 532.932315 65.407515 
L 560.757522 64.595333 
L 561.447879 63.783152 
L 565.94996 62.97097 
L 573.061337 62.158789 
L 573.245348 61.346607 
L 573.583044 60.534426 
L 574.750776 58.910062 
L 574.778917 58.097881 
L 577.171095 57.285699 
L 585.595612 56.473518 
L 589.21432 55.661336 
L 589.88703 54.849155 
L 593.64969 53.224792 
L 613.499516 51.600429 
L 618.823555 50.788247 
L 620.871978 49.976065 
L 622.334797 49.163884 
L 623.304315 48.351702 
L 623.721998 47.539521 
L 633.979475 45.915158 
L 635.719105 45.102976 
L 637.122959 44.290795 
L 641.058572 43.478613 
L 643.023399 41.85425 
L 644.50052 41.042068 
L 651.511052 40.229887 
L 651.800643 39.417705 
L 652.878157 38.605524 
L 656.619032 37.793342 
L 660.97021 36.981161 
L 671.125451 36.168979 
L 687.700953 36.168979 
L 687.700953 36.168979 
" clip-path="url(#pcb5fb6de38)" style="fill: none; stroke: #1f6feb; stroke-width: 2.5; stroke-linecap: square"/>
   </g>
   <g id="text_19">
    <!-- FirstEverTech / Universal-Intel-Chipset-Updater · Stars History -->
    <g style="fill: #58a6ff" transform="translate(216.884953 14.798438) scale(0.1 -0.1)">
     <defs>
      <path id="DejaVuSans-29" d="M 628 4666 
L 3309 4666 
L 3309 4134 
L 1259 4134 
L 1259 2759 
L 3109 2759 
L 3109 2228 
L 1259 2228 
L 1259 0 
L 628 0 
L 628 4666 
z
" transform="scale(0.015625)"/>
      <path id="DejaVuSans-4c" d="M 603 3500 
L 1178 3500 
L 1178 0 
L 603 0 
L 603 3500 
z
M 603 4863 
L 1178 4863 
L 1178 4134 
L 603 4134 
L 603 4863 
z
" transform="scale(0.015625)"/>
      <path id="DejaVuSans-55" d="M 2631 2963 
Q 2534 3019 2420 3045 
Q 2306 3072 2169 3072 
Q 1681 3072 1420 2755 
Q 1159 2438 1159 1844 
L 1159 0 
L 581 0 
L 581 3500 
L 1159 3500 
L 1159 2956 
Q 1341 3275 1631 3429 
Q 1922 3584 2338 3584 
Q 2397 3584 2469 3576 
Q 2541 3569 2628 3553 
L 2631 2963 
z
" transform="scale(0.015625)"/>
      <path id="DejaVuSans-56" d="M 2834 3397 
L 2834 2853 
Q 2591 2978 2328 3040 
Q 2066 3103 1784 3103 
Q 1356 3103 1142 2972 
Q 928 2841 928 2578 
Q 928 2378 1081 2264 
Q 1234 2150 1697 2047 
L 1894 2003 
Q 2506 1872 2764 1633 
Q 3022 1394 3022 966 
Q 3022 478 2636 193 
Q 2250 -91 1575 -91 
Q 1294 -91 989 -36 
Q 684 19 347 128 
L 347 722 
Q 666 556 975 473 
Q 1284 391 1588 391 
Q 1994 391 2212 530 
Q 2431 669 2431 922 
Q 2431 1156 2273 1281 
Q 2116 1406 1581 1522 
L 1381 1569 
Q 847 1681 609 1914 
Q 372 2147 372 2553 
Q 372 3047 722 3315 
Q 1072 3584 1716 3584 
Q 2034 3584 2315 3537 
Q 2597 3491 2834 3397 
z
" transform="scale(0.015625)"/>
      <path id="DejaVuSans-57" d="M 1172 4494 
L 1172 3500 
L 2356 3500 
L 2356 3053 
L 1172 3053 
L 1172 1153 
Q 1172 725 1289 603 
Q 1406 481 1766 481 
L 2356 481 
L 2356 0 
L 1766 0 
Q 1100 0 847 248 
Q 594 497 594 1153 
L 594 3053 
L 172 3053 
L 172 3500 
L 594 3500 
L 594 4494 
L 1172 4494 
z
" transform="scale(0.015625)"/>
      <path id="DejaVuSans-28" d="M 628 4666 
L 3578 4666 
L 3578 4134 
L 1259 4134 
L 1259 2753 
L 3481 2753 
L 3481 2222 
L 1259 2222 
L 1259 531 
L 3634 531 
L 3634 0 
L 628 0 
L 628 4666 
z
" transform="scale(0.015625)"/>
      <path id="DejaVuSans-59" d="M 191 3500 
L 800 3500 
L 1894 563 
L 2988 3500 
L 3597 3500 
L 2284 0 
L 1503 0 
L 191 3500 
z
" transform="scale(0.015625)"/>
      <path id="DejaVuSans-48" d="M 3597 1894 
L 3597 1613 
L 953 1613 
Q 991 1019 1311 708 
Q 1631 397 2203 397 
Q 2534 397 2845 478 
Q 3156 559 3463 722 
L 3463 178 
Q 3153 47 2828 -22 
Q 2503 -91 2169 -91 
Q 1331 -91 842 396 
Q 353 884 353 1716 
Q 353 2575 817 3079 
Q 1281 3584 2069 3584 
Q 2775 3584 3186 3129 
Q 3597 2675 3597 1894 
z
M 3022 2063 
Q 3016 2534 2758 2815 
Q 2500 3097 2075 3097 
Q 1594 3097 1305 2825 
Q 1016 2553 972 2059 
L 3022 2063 
z
" transform="scale(0.015625)"/>
      <path id="DejaVuSans-37" d="M -19 4666 
L 3928 4666 
L 3928 4134 
L 2272 4134 
L 2272 0 
L 1638 0 
L 1638 4134 
L -19 4134 
L -19 4666 
z
" transform="scale(0.015625)"/>
      <path id="DejaVuSans-46" d="M 3122 3366 
L 3122 2828 
Q 2878 2963 2633 3030 
Q 2388 3097 2138 3097 
Q 1578 3097 1268 2742 
Q 959 2388 959 1747 
Q 959 1106 1268 751 
Q 1578 397 2138 397 
Q 2388 397 2633 464 
Q 2878 531 3122 666 
L 3122 134 
Q 2881 22 2623 -34 
Q 2366 -91 2075 -91 
Q 1284 -91 818 406 
Q 353 903 353 1747 
Q 353 2603 823 3093 
Q 1294 3584 2113 3584 
Q 2378 3584 2631 3529 
Q 2884 3475 3122 3366 
z
" transform="scale(0.015625)"/>
      <path id="DejaVuSans-4b" d="M 3513 2113 
L 3513 0 
L 2938 0 
L 2938 2094 
Q 2938 2591 2744 2837 
Q 2550 3084 2163 3084 
Q 1697 3084 1428 2787 
Q 1159 2491 1159 1978 
L 1159 0 
L 581 0 
L 581 4863 
L 1159 4863 
L 1159 2956 
Q 1366 3272 1645 3428 
Q 1925 3584 2291 3584 
Q 2894 3584 3203 3211 
Q 3513 2838 3513 2113 
z
" transform="scale(0.015625)"/>
      <path id="DejaVuSans-3" transform="scale(0.015625)"/>
      <path id="DejaVuSans-12" d="M 1625 4666 
L 2156 4666 
L 531 -594 
L 0 -594 
L 1625 4666 
z
" transform="scale(0.015625)"/>
      <path id="DejaVuSans-38" d="M 556 4666 
L 1191 4666 
L 1191 1831 
Q 1191 1081 1462 751 
Q 1734 422 2344 422 
Q 2950 422 3222 751 
Q 3494 1081 3494 1831 
L 3494 4666 
L 4128 4666 
L 4128 1753 
Q 4128 841 3676 375 
Q 3225 -91 2344 -91 
Q 1459 -91 1007 375 
Q 556 841 556 1753 
L 556 4666 
z
" transform="scale(0.015625)"/>
      <path id="DejaVuSans-51" d="M 3513 2113 
L 3513 0 
L 2938 0 
L 2938 2094 
Q 2938 2591 2744 2837 
Q 2550 3084 2163 3084 
Q 1697 3084 1428 2787 
Q 1159 2491 1159 1978 
L 1159 0 
L 581 0 
L 581 3500 
L 1159 3500 
L 1159 2956 
Q 1366 3272 1645 3428 
Q 1925 3584 2291 3584 
Q 2894 3584 3203 3211 
Q 3513 2838 3513 2113 
z
" transform="scale(0.015625)"/>
      <path id="DejaVuSans-44" d="M 2194 1759 
Q 1497 1759 1228 1600 
Q 959 1441 959 1056 
Q 959 750 1161 570 
Q 1363 391 1709 391 
Q 2188 391 2477 730 
Q 2766 1069 2766 1631 
L 2766 1759 
L 2194 1759 
z
M 3341 1997 
L 3341 0 
L 2766 0 
L 2766 531 
Q 2569 213 2275 61 
Q 1981 -91 1556 -91 
Q 1019 -91 701 211 
Q 384 513 384 1019 
Q 384 1609 779 1909 
Q 1175 2209 1959 2209 
L 2766 2209 
L 2766 2266 
Q 2766 2663 2505 2880 
Q 2244 3097 1772 3097 
Q 1472 3097 1187 3025 
Q 903 2953 641 2809 
L 641 3341 
Q 956 3463 1253 3523 
Q 1550 3584 1831 3584 
Q 2591 3584 2966 3190 
Q 3341 2797 3341 1997 
z
" transform="scale(0.015625)"/>
      <path id="DejaVuSans-4f" d="M 603 4863 
L 1178 4863 
L 1178 0 
L 603 0 
L 603 4863 
z
" transform="scale(0.015625)"/>
      <path id="DejaVuSans-10" d="M 313 2009 
L 1997 2009 
L 1997 1497 
L 313 1497 
L 313 2009 
z
" transform="scale(0.015625)"/>
      <path id="DejaVuSans-2c" d="M 628 4666 
L 1259 4666 
L 1259 0 
L 628 0 
L 628 4666 
z
" transform="scale(0.015625)"/>
      <path id="DejaVuSans-26" d="M 4122 4306 
L 4122 3641 
Q 3803 3938 3442 4084 
Q 3081 4231 2675 4231 
Q 1875 4231 1450 3742 
Q 1025 3253 1025 2328 
Q 1025 1406 1450 917 
Q 1875 428 2675 428 
Q 3081 428 3442 575 
Q 3803 722 4122 1019 
L 4122 359 
Q 3791 134 3420 21 
Q 3050 -91 2638 -91 
Q 1578 -91 968 557 
Q 359 1206 359 2328 
Q 359 3453 968 4101 
Q 1578 4750 2638 4750 
Q 3056 4750 3426 4639 
Q 3797 4528 4122 4306 
z
" transform="scale(0.015625)"/>
      <path id="DejaVuSans-53" d="M 1159 525 
L 1159 -1331 
L 581 -1331 
L 581 3500 
L 1159 3500 
L 1159 2969 
Q 1341 3281 1617 3432 
Q 1894 3584 2278 3584 
Q 2916 3584 3314 3078 
Q 3713 2572 3713 1747 
Q 3713 922 3314 415 
Q 2916 -91 2278 -91 
Q 1894 -91 1617 61 
Q 1341 213 1159 525 
z
M 3116 1747 
Q 3116 2381 2855 2742 
Q 2594 3103 2138 3103 
Q 1681 3103 1420 2742 
Q 1159 2381 1159 1747 
Q 1159 1113 1420 752 
Q 1681 391 2138 391 
Q 2594 391 2855 752 
Q 3116 1113 3116 1747 
z
" transform="scale(0.015625)"/>
      <path id="DejaVuSans-47" d="M 2906 2969 
L 2906 4863 
L 3481 4863 
L 3481 0 
L 2906 0 
L 2906 525 
Q 2725 213 2448 61 
Q 2172 -91 1784 -91 
Q 1150 -91 751 415 
Q 353 922 353 1747 
Q 353 2572 751 3078 
Q 1150 3584 1784 3584 
Q 2172 3584 2448 3432 
Q 2725 3281 2906 2969 
z
M 947 1747 
Q 947 1113 1208 752 
Q 1469 391 1925 391 
Q 2381 391 2643 752 
Q 2906 1113 2906 1747 
Q 2906 2381 2643 2742 
Q 2381 3103 1925 3103 
Q 1469 3103 1208 2742 
Q 947 2381 947 1747 
z
" transform="scale(0.015625)"/>
      <path id="DejaVuSans-79" d="M 684 2619 
L 1344 2619 
L 1344 1825 
L 684 1825 
L 684 2619 
z
" transform="scale(0.015625)"/>
      <path id="DejaVuSans-36" d="M 3425 4513 
L 3425 3897 
Q 3066 4069 2747 4153 
Q 2428 4238 2131 4238 
Q 1616 4238 1336 4038 
Q 1056 3838 1056 3469 
Q 1056 3159 1242 3001 
Q 1428 2844 1947 2747 
L 2328 2669 
Q 3034 2534 3370 2195 
Q 3706 1856 3706 1288 
Q 3706 609 3251 259 
Q 2797 -91 1919 -91 
Q 1588 -91 1214 -16 
Q 841 59 441 206 
L 441 856 
Q 825 641 1194 531 
Q 1563 422 1919 422 
Q 2459 422 2753 634 
Q 3047 847 3047 1241 
Q 3047 1584 2836 1778 
Q 2625 1972 2144 2069 
L 1759 2144 
Q 1053 2284 737 2584 
Q 422 2884 422 3419 
Q 422 4038 858 4394 
Q 1294 4750 2059 4750 
Q 2388 4750 2728 4690 
Q 3069 4631 3425 4513 
z
" transform="scale(0.015625)"/>
      <path id="DejaVuSans-2b" d="M 628 4666 
L 1259 4666 
L 1259 2753 
L 3553 2753 
L 3553 4666 
L 4184 4666 
L 4184 0 
L 3553 0 
L 3553 2222 
L 1259 2222 
L 1259 0 
L 628 0 
L 628 4666 
z
" transform="scale(0.015625)"/>
      <path id="DejaVuSans-52" d="M 1959 3097 
Q 1497 3097 1228 2736 
Q 959 2375 959 1747 
Q 959 1119 1226 758 
Q 1494 397 1959 397 
Q 2419 397 2687 759 
Q 2956 1122 2956 1747 
Q 2956 2369 2687 2733 
Q 2419 3097 1959 3097 
z
M 1959 3584 
Q 2709 3584 3137 3096 
Q 3566 2609 3566 1747 
Q 3566 888 3137 398 
Q 2709 -91 1959 -91 
Q 1206 -91 779 398 
Q 353 888 353 1747 
Q 353 2609 779 3096 
Q 1206 3584 1959 3584 
z
" transform="scale(0.015625)"/>
      <path id="DejaVuSans-5c" d="M 2059 -325 
Q 1816 -950 1584 -1140 
Q 1353 -1331 966 -1331 
L 506 -1331 
L 506 -850 
L 844 -850 
Q 1081 -850 1212 -737 
Q 1344 -625 1503 -206 
L 1606 56 
L 191 3500 
L 800 3500 
L 1894 763 
L 2988 3500 
L 3597 3500 
L 2059 -325 
z
" transform="scale(0.015625)"/>
     </defs>
     <use xlink:href="#DejaVuSans-29"/>
     <use xlink:href="#DejaVuSans-4c" transform="translate(50.234375 0)"/>
     <use xlink:href="#DejaVuSans-55" transform="translate(78.015625 0)"/>
     <use xlink:href="#DejaVuSans-56" transform="translate(119.125 0)"/>
     <use xlink:href="#DejaVuSans-57" transform="translate(171.21875 0)"/>
     <use xlink:href="#DejaVuSans-28" transform="translate(210.421875 0)"/>
     <use xlink:href="#DejaVuSans-59" transform="translate(273.609375 0)"/>
     <use xlink:href="#DejaVuSans-48" transform="translate(332.796875 0)"/>
     <use xlink:href="#DejaVuSans-55" transform="translate(394.328125 0)"/>
     <use xlink:href="#DejaVuSans-37" transform="translate(435.4375 0)"/>
     <use xlink:href="#DejaVuSans-48" transform="translate(479.53125 0)"/>
     <use xlink:href="#DejaVuSans-46" transform="translate(541.0625 0)"/>
     <use xlink:href="#DejaVuSans-4b" transform="translate(596.046875 0)"/>
     <use xlink:href="#DejaVuSans-3" transform="translate(659.421875 0)"/>
     <use xlink:href="#DejaVuSans-12" transform="translate(691.203125 0)"/>
     <use xlink:href="#DejaVuSans-3" transform="translate(724.890625 0)"/>
     <use xlink:href="#DejaVuSans-38" transform="translate(756.671875 0)"/>
     <use xlink:href="#DejaVuSans-51" transform="translate(829.859375 0)"/>
     <use xlink:href="#DejaVuSans-4c" transform="translate(893.234375 0)"/>
     <use xlink:href="#DejaVuSans-59" transform="translate(921.015625 0)"/>
     <use xlink:href="#DejaVuSans-48" transform="translate(980.203125 0)"/>
     <use xlink:href="#DejaVuSans-55" transform="translate(1041.734375 0)"/>
     <use xlink:href="#DejaVuSans-56" transform="translate(1082.84375 0)"/>
     <use xlink:href="#DejaVuSans-44" transform="translate(1134.9375 0)"/>
     <use xlink:href="#DejaVuSans-4f" transform="translate(1196.21875 0)"/>
     <use xlink:href="#DejaVuSans-10" transform="translate(1224 0)"/>
     <use xlink:href="#DejaVuSans-2c" transform="translate(1260.078125 0)"/>
     <use xlink:href="#DejaVuSans-51" transform="translate(1289.578125 0)"/>
     <use xlink:href="#DejaVuSans-57" transform="translate(1352.953125 0)"/>
     <use xlink:href="#DejaVuSans-48" transform="translate(1392.15625 0)"/>
     <use xlink:href="#DejaVuSans-4f" transform="translate(1453.6875 0)"/>
     <use xlink:href="#DejaVuSans-10" transform="translate(1481.46875 0)"/>
     <use xlink:href="#DejaVuSans-26" transform="translate(1517.546875 0)"/>
     <use xlink:href="#DejaVuSans-4b" transform="translate(1587.375 0)"/>
     <use xlink:href="#DejaVuSans-4c" transform="translate(1650.75 0)"/>
     <use xlink:href="#DejaVuSans-53" transform="translate(1678.53125 0)"/>
     <use xlink:href="#DejaVuSans-56" transform="translate(1742.015625 0)"/>
     <use xlink:href="#DejaVuSans-48" transform="translate(1794.109375 0)"/>
     <use xlink:href="#DejaVuSans-57" transform="translate(1855.640625 0)"/>
     <use xlink:href="#DejaVuSans-10" transform="translate(1894.84375 0)"/>
     <use xlink:href="#DejaVuSans-38" transform="translate(1930.921875 0)"/>
     <use xlink:href="#DejaVuSans-53" transform="translate(2004.109375 0)"/>
     <use xlink:href="#DejaVuSans-47" transform="translate(2067.59375 0)"/>
     <use xlink:href="#DejaVuSans-44" transform="translate(2131.078125 0)"/>
     <use xlink:href="#DejaVuSans-57" transform="translate(2192.359375 0)"/>
     <use xlink:href="#DejaVuSans-48" transform="translate(2231.5625 0)"/>
     <use xlink:href="#DejaVuSans-55" transform="translate(2293.09375 0)"/>
     <use xlink:href="#DejaVuSans-3" transform="translate(2334.203125 0)"/>
     <use xlink:href="#DejaVuSans-79" transform="translate(2365.984375 0)"/>
     <use xlink:href="#DejaVuSans-3" transform="translate(2397.765625 0)"/>
     <use xlink:href="#DejaVuSans-36" transform="translate(2429.546875 0)"/>
     <use xlink:href="#DejaVuSans-57" transform="translate(2493.03125 0)"/>
     <use xlink:href="#DejaVuSans-44" transform="translate(2532.234375 0)"/>
     <use xlink:href="#DejaVuSans-55" transform="translate(2593.515625 0)"/>
     <use xlink:href="#DejaVuSans-56" transform="translate(2634.625 0)"/>
     <use xlink:href="#DejaVuSans-3" transform="translate(2686.71875 0)"/>
     <use xlink:href="#DejaVuSans-2b" transform="translate(2718.5 0)"/>
     <use xlink:href="#DejaVuSans-4c" transform="translate(2793.703125 0)"/>
     <use xlink:href="#DejaVuSans-56" transform="translate(2821.484375 0)"/>
     <use xlink:href="#DejaVuSans-57" transform="translate(2873.578125 0)"/>
     <use xlink:href="#DejaVuSans-52" transform="translate(2912.78125 0)"/>
     <use xlink:href="#DejaVuSans-55" transform="translate(2973.96875 0)"/>
     <use xlink:href="#DejaVuSans-5c" transform="translate(3015.078125 0)"/>
    </g>
   </g>
   <g id="PathCollection_1">
    <defs>
     <path id="m3119cfbd17" d="M 0 2.738613 
C 0.726289 2.738613 1.422928 2.450055 1.936492 1.936492 
C 2.450055 1.422928 2.738613 0.726289 2.738613 0 
C 2.738613 -0.726289 2.450055 -1.422928 1.936492 -1.936492 
C 1.422928 -2.450055 0.726289 -2.738613 0 -2.738613 
C -0.726289 -2.738613 -1.422928 -2.450055 -1.936492 -1.936492 
C -2.450055 -1.422928 -2.738613 -0.726289 -2.738613 0 
C -2.738613 0.726289 -2.450055 1.422928 -1.936492 1.936492 
C -1.422928 2.450055 -0.726289 2.738613 0 2.738613 
z
"/>
    </defs>
    <g clip-path="url(#pcb5fb6de38)">
     <use xlink:href="#m3119cfbd17" x="53.495515" y="194.544381" style="fill: #58a6ff"/>
     <use xlink:href="#m3119cfbd17" x="74.635696" y="180.821797" style="fill: #58a6ff"/>
     <use xlink:href="#m3119cfbd17" x="95.775878" y="178.741948" style="fill: #58a6ff"/>
     <use xlink:href="#m3119cfbd17" x="116.916059" y="174.227701" style="fill: #58a6ff"/>
     <use xlink:href="#m3119cfbd17" x="138.05624" y="172.379668" style="fill: #58a6ff"/>
     <use xlink:href="#m3119cfbd17" x="159.196421" y="171.513185" style="fill: #58a6ff"/>
     <use xlink:href="#m3119cfbd17" x="180.336603" y="160.961457" style="fill: #58a6ff"/>
     <use xlink:href="#m3119cfbd17" x="201.476784" y="145.078775" style="fill: #58a6ff"/>
     <use xlink:href="#m3119cfbd17" x="222.616965" y="140.363868" style="fill: #58a6ff"/>
     <use xlink:href="#m3119cfbd17" x="243.757146" y="138.299895" style="fill: #58a6ff"/>
     <use xlink:href="#m3119cfbd17" x="264.897328" y="137.171228" style="fill: #58a6ff"/>
     <use xlink:href="#m3119cfbd17" x="286.037509" y="131.359573" style="fill: #58a6ff"/>
     <use xlink:href="#m3119cfbd17" x="307.17769" y="123.918289" style="fill: #58a6ff"/>
     <use xlink:href="#m3119cfbd17" x="328.317871" y="119.177436" style="fill: #58a6ff"/>
     <use xlink:href="#m3119cfbd17" x="349.458053" y="103.723091" style="fill: #58a6ff"/>
     <use xlink:href="#m3119cfbd17" x="370.598234" y="92.805589" style="fill: #58a6ff"/>
     <use xlink:href="#m3119cfbd17" x="391.738415" y="87.151761" style="fill: #58a6ff"/>
     <use xlink:href="#m3119cfbd17" x="412.878596" y="84.833631" style="fill: #58a6ff"/>
     <use xlink:href="#m3119cfbd17" x="434.018778" y="84.05734" style="fill: #58a6ff"/>
     <use xlink:href="#m3119cfbd17" x="455.158959" y="80.483431" style="fill: #58a6ff"/>
     <use xlink:href="#m3119cfbd17" x="476.29914" y="74.877212" style="fill: #58a6ff"/>
     <use xlink:href="#m3119cfbd17" x="497.439321" y="70.258479" style="fill: #58a6ff"/>
     <use xlink:href="#m3119cfbd17" x="518.579503" y="67.183961" style="fill: #58a6ff"/>
     <use xlink:href="#m3119cfbd17" x="539.719684" y="65.2094" style="fill: #58a6ff"/>
     <use xlink:href="#m3119cfbd17" x="560.859865" y="64.474931" style="fill: #58a6ff"/>
     <use xlink:href="#m3119cfbd17" x="582.000046" y="56.820155" style="fill: #58a6ff"/>
     <use xlink:href="#m3119cfbd17" x="603.140228" y="52.475204" style="fill: #58a6ff"/>
     <use xlink:href="#m3119cfbd17" x="624.280409" y="47.446094" style="fill: #58a6ff"/>
     <use xlink:href="#m3119cfbd17" x="645.42059" y="40.935477" style="fill: #58a6ff"/>
     <use xlink:href="#m3119cfbd17" x="666.560771" y="36.534047" style="fill: #58a6ff"/>
     <use xlink:href="#m3119cfbd17" x="687.700953" y="36.168979" style="fill: #58a6ff"/>
    </g>
   </g>
  </g>
 </g>
 <defs>
  <clipPath id="pcb5fb6de38">
   <rect x="40.811406" y="24.798438" width="659.573655" height="170.558125"/>
  </clipPath>
 </defs>
</svg>
